<svg width="40" height="40" viewBox="0 0 40 40" fill="none" xmlns="http://www.w3.org/2000/svg">
<path d="M18.9063 38.4375C18.9063 39.3005 18.2068 40 17.3438 40H8.35938C4.91303 40 2.10938 37.1964 2.10938 33.75V6.25C2.10938 2.80365 4.91303 0 8.35938 0H27.5696C31.0156 0 33.8196 2.80365 33.8196 6.25V22.8125C33.8196 23.6755 33.1198 24.375 32.2571 24.375C31.394 24.375 30.6946 23.6755 30.6946 22.8125V6.25C30.6946 4.52698 29.2926 3.125 27.5696 3.125H8.35938C6.63635 3.125 5.23438 4.52698 5.23438 6.25V33.75C5.23438 35.473 6.63635 36.875 8.35938 36.875H17.3438C18.2068 36.875 18.9063 37.5745 18.9063 38.4375ZM37.3157 25.4483C36.6141 24.946 35.6381 25.1077 35.1358 25.809L27.4341 36.5671C27.2238 36.8109 26.9601 36.8634 26.8192 36.8729C26.6733 36.8823 26.3913 36.864 26.1493 36.6336L21.1633 31.846C20.5411 31.2485 19.552 31.2683 18.9542 31.8909C18.3563 32.5134 18.3765 33.5025 18.999 34.1L23.9899 38.8925C24.7376 39.6039 25.7352 40 26.7618 40C26.85 40 26.9385 39.9969 27.027 39.9911C28.1451 39.9167 29.1891 39.3729 29.8914 38.4988C29.9094 38.4766 29.9271 38.4534 29.9438 38.4299L37.6767 27.6282C38.179 26.9266 38.0176 25.9506 37.3157 25.4483ZM26.0071 9.375H9.91333C9.05029 9.375 8.35083 10.0745 8.35083 10.9375C8.35083 11.8005 9.05029 12.5 9.91333 12.5H26.0071C26.8698 12.5 27.5696 11.8005 27.5696 10.9375C27.5696 10.0745 26.8698 9.375 26.0071 9.375ZM27.5696 17.1875C27.5696 16.3245 26.8698 15.625 26.0071 15.625H9.91333C9.05029 15.625 8.35083 16.3245 8.35083 17.1875C8.35083 18.0505 9.05029 18.75 9.91333 18.75H26.0071C26.8698 18.75 27.5696 18.0505 27.5696 17.1875ZM9.91333 21.875C9.05029 21.875 8.35083 22.5745 8.35083 23.4375C8.35083 24.3005 9.05029 25 9.91333 25H19.6875C20.5505 25 21.25 24.3005 21.25 23.4375C21.25 22.5745 20.5505 21.875 19.6875 21.875H9.91333Z" fill="#065091"/>
</svg>
