<svg enable-background="new 0 0 24 24" fill="#065091" height="512" viewBox="0 0 24 24" width="512" xmlns="http://www.w3.org/2000/svg"><path d="m3.5 19.5c-1.084 0-2-.916-2-2 0-.659.324-1.275.868-1.649.396-.272.632-.727.632-1.217v-6.134c0-.276.224-.5.5-.5s.5.224.5.5v6.134c0 .82-.398 1.583-1.065 2.041-.273.186-.435.495-.435.825 0 .532.468 1 1 1 .552 0 1-.448 1-1 0-.276.224-.5.5-.5s.5.224.5.5c0 1.103-.897 2-2 2z"/><path d="m17.5 24c-.276 0-.5-.224-.5-.5v-18.5h-3v18.5c0 .276-.224.5-.5.5s-.5-.224-.5-.5v-19c0-.276.224-.5.5-.5h4c.276 0 .5.224.5.5v19c0 .276-.224.5-.5.5z"/><path d="m17.5 21h-4c-.276 0-.5-.224-.5-.5s.224-.5.5-.5h2.793l-3.146-3.146c-.143-.143-.186-.358-.108-.545s.259-.309.461-.309h2.793l-3.146-3.146c-.143-.143-.186-.358-.108-.545s.259-.309.461-.309h2.793l-3.146-3.146c-.143-.143-.186-.358-.108-.545s.259-.309.461-.309h2.793l-3.146-3.146c-.195-.195-.195-.512 0-.707s.512-.195.707 0l4 4c.143.143.186.358.108.545s-.26.308-.462.308h-2.793l3.146 3.146c.143.143.186.358.108.545s-.259.309-.461.309h-2.793l3.146 3.146c.143.143.186.358.108.545s-.259.309-.461.309h-2.793l3.146 3.146c.143.143.186.358.108.545s-.259.309-.461.309z"/><path d="m23.5 9h-23c-.276 0-.5-.224-.5-.5v-2c0-.247.18-.457.424-.494l13-2c.282-.04.528.145.57.418s-.146.528-.418.57l-12.576 1.935v1.071h22v-1.14l-5.658-1.886c-.262-.087-.403-.37-.316-.632.088-.262.372-.401.633-.316l6 2c.203.068.341.259.341.474v2c0 .276-.224.5-.5.5z"/><path d="m15.5 5c-.276 0-.5-.224-.5-.5v-4c0-.276.224-.5.5-.5s.5.224.5.5v4c0 .276-.224.5-.5.5z"/><path d="m23.5 12h-3c-.276 0-.5-.224-.5-.5v-3c0-.276.224-.5.5-.5h3c.276 0 .5.224.5.5v3c0 .276-.224.5-.5.5zm-2.5-1h2v-2h-2z"/><path d="m2 6.769c-.194 0-.379-.114-.46-.304-.108-.254.01-.547.264-.656l13.5-5.769c.175-.074.376-.043.52.078l6.5 5.5c.211.179.237.494.059.705-.178.212-.494.236-.705.059l-6.264-5.301-13.218 5.648c-.063.027-.131.04-.196.04z"/></svg>
