<svg width="35" height="35" viewBox="0 0 35 35" fill="none" xmlns="http://www.w3.org/2000/svg">
<path d="M24.0939 15.0391C24.0939 14.284 23.4818 13.6719 22.7267 13.6719H8.64465C7.88956 13.6719 7.27747 14.284 7.27747 15.0391C7.27747 15.7942 7.88956 16.4062 8.64465 16.4062H22.7267C23.4818 16.4062 24.0939 15.7942 24.0939 15.0391Z" fill="#065091"/>
<path d="M8.64465 19.1406C7.88956 19.1406 7.27747 19.7527 7.27747 20.5078C7.27747 21.2629 7.88956 21.875 8.64465 21.875H17.1972C17.9523 21.875 18.5644 21.2629 18.5644 20.5078C18.5644 19.7527 17.9523 19.1406 17.1972 19.1406H8.64465Z" fill="#065091"/>
<path d="M11.8575 32.2656H7.28503C5.7773 32.2656 4.55066 31.039 4.55066 29.5312V5.46875C4.55066 3.96102 5.7773 2.73438 7.28503 2.73438H24.0939C25.6016 2.73438 26.8282 3.96102 26.8282 5.46875V13.877C26.8282 14.6321 27.4403 15.2441 28.1954 15.2441C28.9505 15.2441 29.5626 14.6321 29.5626 13.877V5.46875C29.5626 2.45328 27.1093 0 24.0939 0H7.28503C4.26957 0 1.81628 2.45328 1.81628 5.46875V29.5312C1.81628 32.5467 4.26957 35 7.28503 35H11.8575C12.6126 35 13.2247 34.3879 13.2247 33.6328C13.2247 32.8777 12.6126 32.2656 11.8575 32.2656Z" fill="#065091"/>
<path d="M31.9843 19.795C30.3851 18.1958 27.783 18.1958 26.1849 19.7939L18.6788 27.2834C18.5194 27.4425 18.4018 27.6384 18.3363 27.8538L16.7016 33.2354C16.5567 33.7126 16.683 34.2307 17.0312 34.5876C17.2921 34.8549 17.6464 35.0001 18.0099 35.0001C18.1315 35.0001 18.2543 34.9838 18.3748 34.9504L23.8931 33.4218C24.1202 33.3589 24.3272 33.2384 24.494 33.0719L31.9843 25.5956C33.5835 23.9964 33.5835 21.3944 31.9843 19.795ZM22.8167 30.8826L20.0405 31.6517L20.853 28.9769L25.9176 23.9234L27.8515 25.8573L22.8167 30.8826ZM30.0518 23.6613L29.7869 23.9256L27.8534 21.9921L28.1174 21.7286C28.6504 21.1956 29.5178 21.1956 30.0509 21.7286C30.5839 22.2617 30.5839 23.129 30.0518 23.6613Z" fill="#065091"/>
<path d="M22.7267 8.20312H8.64465C7.88956 8.20312 7.27747 8.81521 7.27747 9.57031C7.27747 10.3254 7.88956 10.9375 8.64465 10.9375H22.7267C23.4818 10.9375 24.0939 10.3254 24.0939 9.57031C24.0939 8.81521 23.4818 8.20312 22.7267 8.20312Z" fill="#065091"/>
</svg>
