<svg width="35" height="24" viewBox="0 0 35 24" fill="none" xmlns="http://www.w3.org/2000/svg">
<path d="M1.11611 2.56154L15.6994 10.5868C16.1894 10.8557 16.8233 10.9832 17.4611 10.9832C18.0989 10.9832 18.7328 10.8557 19.2228 10.5868L33.8061 2.56154C34.7569 2.03768 35.6553 0 33.9111 0H1.01306C-0.731108 0 0.167225 2.03768 1.11611 2.56154ZM34.2475 6.94963L19.2228 14.9709C18.5617 15.3254 18.0989 15.3673 17.4611 15.3673C16.8233 15.3673 16.3606 15.3254 15.6994 14.9709C15.0383 14.6163 1.82973 7.52329 0.750559 6.94764C-0.00777455 6.5413 3.14234e-06 7.01736 3.14234e-06 7.38386V21.9106C3.14234e-06 22.7472 1.10056 23.9024 1.94445 23.9024H33.0556C33.8994 23.9024 35 22.7472 35 21.9106V7.38585C35 7.01935 35.0078 6.54329 34.2475 6.94963Z" fill="#065091"/>
</svg>
