<svg id="Capa_1" enable-background="new 0 0 512 512" fill="#065091" height="512" viewBox="0 0 512 512" width="512" xmlns="http://www.w3.org/2000/svg"><g><path d="m497 401h-5v-285c0-8.284-6.716-15-15-15h-85v-45c0-8.284-6.716-15-15-15s-15 6.716-15 15v60 185h-32v-105c0-85.467-69.533-155-155-155h-100c-8.284 0-15 6.716-15 15v165h-25c-19.299 0-35 15.701-35 35v160c0 8.284 6.716 15 15 15h27.096c6.547 23.057 27.777 40 52.904 40s46.356-16.943 52.904-40h34.193c6.547 23.057 27.777 40 52.904 40s46.356-16.943 52.904-40h27.095c8.284 0 15-6.716 15-15v-85h32v85c0 8.284 6.716 15 15 15h120c8.284 0 15-6.716 15-15s-6.716-15-15-15zm-105-170h70v70h-70zm70-100v70h-70v-70zm-287-60c68.925 0 125 56.075 125 125v83.787l-63.787-63.787 9.394-9.394c5.858-5.858 5.858-15.355 0-21.213-5.857-5.858-15.355-5.858-21.213 0l-40 40c-5.858 5.858-5.858 15.355 0 21.213 2.928 2.93 6.767 4.394 10.606 4.394s7.678-1.464 10.606-4.394l9.394-9.394 63.787 63.788h-128.787v-105c0-19.299-15.701-35-35-35h-25v-90zm-85 120h25c2.757 0 5 2.243 5 5v105h-30zm5 250c-13.785 0-25-11.215-25-25s11.215-25 25-25 25 11.215 25 25-11.215 25-25 25zm140 0c-13.785 0-25-11.215-25-25s11.215-25 25-25 25 11.215 25 25-11.215 25-25 25zm65-40h-12.096c-6.547-23.057-27.777-40-52.904-40s-46.356 16.943-52.904 40h-34.193c-6.547-23.057-27.777-40-52.904-40s-46.356 16.943-52.904 40h-12.095v-145c0-2.757 2.243-5 5-5h25v65c0 8.284 6.716 15 15 15h225zm92 0v-70h70v70z"/></g></svg>
