<svg width="40" height="32" viewBox="0 0 40 32" fill="none" xmlns="http://www.w3.org/2000/svg">
<g clip-path="url(#clip0)">
<path fill-rule="evenodd" clip-rule="evenodd" d="M28.8492 11.57H40V15.092H37.1366V19.8327H31.6985V15.1026H28.8492V11.5805V11.57ZM6.91732 24.8375C6.10083 24.8348 5.31858 24.5092 4.74124 23.9318C4.16389 23.3545 3.83831 22.5722 3.83552 21.7557V12.6794C3.83552 11.5648 4.16602 10.4753 4.78524 9.5486C5.40445 8.62189 6.28456 7.8996 7.31428 7.47307C8.34399 7.04655 9.47706 6.93496 10.5702 7.15239C11.6633 7.36983 12.6675 7.90654 13.4556 8.69465C14.2437 9.48276 14.7804 10.4869 14.9978 11.58C15.2153 12.6732 15.1037 13.8062 14.6771 14.8359C14.2506 15.8657 13.5283 16.7458 12.6016 17.365C11.6749 17.9842 10.5854 18.3147 9.47081 18.3147C8.98233 18.3141 8.4959 18.2514 8.02325 18.128V14.768C8.49223 15.0836 9.05322 15.2335 9.61713 15.1938C10.181 15.1541 10.7155 14.9271 11.1357 14.5489C11.5558 14.1707 11.8376 13.663 11.9361 13.1064C12.0347 12.5497 11.9445 11.9761 11.6797 11.4766C11.415 10.9771 10.991 10.5804 10.475 10.3495C9.95901 10.1186 9.38067 10.0667 8.83182 10.2021C8.28297 10.3374 7.79509 10.6523 7.44567 11.0967C7.09625 11.5411 6.90533 12.0895 6.90323 12.6547V24.8375H6.91732ZM34.2379 4.22647C30.9941 2.46544 25.3588 0 19.0649 0C9.15735 0 0 4.85339 0 15.8281C0 26.8029 8.56916 31.5189 18.5472 31.5189C25.6159 31.5189 31.4414 28.7576 34.2379 27.1445V20.8682C32.2057 22.0763 28.4723 23.9148 24.5699 23.9148C13.4754 23.9148 13.891 7.85419 24.2177 7.81192C28.0919 7.79431 31.8781 9.34049 34.2309 10.545V4.22647H34.2379Z" fill="#065091"/>
</g>
<defs>
<clipPath id="clip0">
<rect width="40" height="31.5189" fill="white"/>
</clipPath>
</defs>
</svg>
