<svg width="60" height="60" viewBox="0 0 60 60" fill="none" xmlns="http://www.w3.org/2000/svg">
<path d="M47.375 36.9621C46.1975 34.5071 41.985 31.0996 37.9151 27.8071C35.645 25.972 33.5 24.2371 32.1326 22.8696C31.79 22.5246 31.2776 22.4146 30.8251 22.5771C29.9827 22.8821 29.4626 23.1171 29.0527 23.2996C28.4277 23.5795 28.2177 23.6746 27.3751 23.7595C27.0026 23.797 26.6677 23.9971 26.4601 24.307C24.6926 26.9495 22.8626 26.7245 21.6401 26.3146C21.2501 26.1846 21.1801 26.017 21.1426 25.8571C20.8801 24.7596 22.1977 22.2046 23.9051 20.497C27.9676 16.432 30.0626 15.4145 34.4876 17.392C39.5075 19.637 44.5376 21.3946 44.5876 21.412C45.2452 21.6395 45.9526 21.2945 46.1801 20.642C46.4051 19.9895 46.0625 19.277 45.41 19.0495C45.36 19.0321 40.43 17.3095 35.51 15.107C29.7776 12.5444 26.6325 14.2319 22.14 18.727C20.43 20.437 18.1075 23.897 18.7075 26.4346C18.9649 27.5146 19.725 28.3146 20.8549 28.687C23.6875 29.6221 26.2724 28.727 28.1974 26.1721C28.9924 26.0496 29.425 25.8696 30.0749 25.5771C30.3098 25.4721 30.5849 25.3496 30.9499 25.2021C32.38 26.5446 34.3099 28.1071 36.3424 29.7496C40.0174 32.722 44.185 36.0921 45.1225 38.0421C45.585 39.0046 45.0874 39.6321 44.7499 39.9196C44.2549 40.3446 43.5775 40.4796 43.21 40.222C42.805 39.9445 42.2775 39.9271 41.86 40.177C41.44 40.427 41.205 40.8995 41.2575 41.3845C41.3425 42.1795 40.615 42.6346 40.3 42.7921C39.4999 43.1971 38.665 43.1271 38.3524 42.8371C38.0024 42.5121 37.4999 42.4171 37.0549 42.5821C36.61 42.7495 36.2999 43.1596 36.2549 43.6345C36.1799 44.4545 35.5724 45.242 34.7798 45.5495C34.3973 45.6944 33.8423 45.782 33.3449 45.327C33.0349 45.047 32.6048 44.9394 32.2024 45.0369C31.795 45.1369 31.4674 45.4319 31.3249 45.8244C31.2775 45.9494 31.1699 46.2494 29.9999 46.2494C29.1674 46.2494 27.6698 45.6869 26.9374 45.2019C26.0599 44.6244 20.5574 40.5194 15.805 36.5394C15.1375 35.9769 13.9825 34.7719 12.9625 33.7069C12.0574 32.7619 11.23 31.9044 10.8049 31.5444C10.2724 31.0944 9.48492 31.1619 9.04242 31.6919C8.59746 32.2194 8.66238 33.0095 9.18996 33.4544C9.5775 33.782 10.3275 34.5744 11.155 35.4369C12.27 36.6019 13.4224 37.8069 14.1975 38.4569C18.8525 42.3545 24.4475 46.562 25.5625 47.2944C26.4825 47.8994 28.465 48.7494 30 48.7494C31.2325 48.7494 32.18 48.4669 32.8375 47.9144C33.7174 48.257 34.7175 48.2594 35.68 47.8844C36.8175 47.4444 37.7524 46.5569 38.2825 45.482C39.2674 45.692 40.395 45.5445 41.4199 45.0295C42.4225 44.5246 43.1474 43.7521 43.5074 42.8495C44.5024 42.902 45.5274 42.5495 46.3749 41.822C47.81 40.5946 48.205 38.6846 47.375 36.9621Z" fill="#065091"/>
<path d="M25 16.2498H13.75C13.06 16.2498 12.4999 16.8098 12.4999 17.4998C12.4999 18.1898 13.06 18.7498 13.75 18.7498H25C25.69 18.7498 26.25 18.1898 26.25 17.4998C26.25 16.8098 25.69 16.2498 25 16.2498Z" fill="#065091"/>
<path d="M51.0375 34.3023C50.65 33.7298 49.875 33.5723 49.3025 33.9623L45.6476 36.4173C45.0751 36.8022 44.9225 37.5798 45.3076 38.1522C45.5501 38.5098 45.9451 38.7048 46.3477 38.7048C46.5852 38.7048 46.8277 38.6373 47.0427 38.4923L50.6977 36.0374C51.27 35.6523 51.4225 34.8749 51.0375 34.3023Z" fill="#065091"/>
<path d="M43.2775 40.2671C42.3825 39.5621 38.38 35.4646 35.905 32.8846C35.4274 32.3846 34.635 32.3671 34.1374 32.8471C33.6374 33.3246 33.6224 34.1171 34.0999 34.6146C34.7425 35.2846 40.4099 41.1921 41.7274 42.2322C41.9549 42.4122 42.2299 42.4997 42.4999 42.4997C42.8674 42.4997 43.2349 42.3347 43.4849 42.0222C43.9125 41.4821 43.82 40.6946 43.2775 40.2671Z" fill="#065091"/>
<path d="M38.2825 42.7747C36.7849 41.5771 33.0225 37.5796 32.1724 36.6547C31.7024 36.1447 30.9149 36.1147 30.4049 36.5797C29.8974 37.0471 29.8624 37.8397 30.3299 38.3472C30.3749 38.3947 34.8649 43.2423 36.7199 44.7273C36.9499 44.9097 37.2274 44.9997 37.4999 44.9997C37.8649 44.9997 38.2299 44.8372 38.4774 44.5323C38.9076 43.9921 38.82 43.2046 38.2825 42.7747Z" fill="#065091"/>
<path d="M33.3075 45.2921C31.525 43.7897 27.8775 39.9071 27.165 39.1446C26.6925 38.6396 25.9 38.6121 25.3975 39.0846C24.8925 39.5571 24.8674 40.3471 25.3375 40.8521C26.3625 41.9496 29.8525 45.6497 31.695 47.2046C31.93 47.4021 32.215 47.4996 32.5 47.4996C32.8549 47.4996 33.21 47.3471 33.4575 47.0546C33.9025 46.5246 33.835 45.7371 33.3075 45.2921Z" fill="#065091"/>
<path d="M14.61 14.0922C12.4675 12.0622 3.9 11.4046 1.32504 11.2522C0.970078 11.2347 0.642539 11.3521 0.392578 11.5897C0.1425 11.8246 0 12.1546 0 12.4996V34.9997C0 35.6897 0.560039 36.2497 1.25004 36.2497H8.75004C9.29004 36.2497 9.77004 35.9022 9.9375 35.3872C10.12 34.8272 14.4275 21.6072 14.995 15.1072C15.0275 14.7271 14.8875 14.3521 14.61 14.0922ZM7.8375 33.7497H2.49996V13.8397C6.5175 14.1571 10.8525 14.8472 12.4275 15.6122C11.765 21.0872 8.7675 30.8147 7.8375 33.7497Z" fill="#065091"/>
<path d="M58.7499 13.7498C48.9349 13.7498 43.4899 16.2623 43.2624 16.3673C42.9375 16.5197 42.6949 16.8023 42.5949 17.1448C42.495 17.4873 42.5449 17.8548 42.7324 18.1598C44.2774 20.6473 49.1149 34.4623 50.0449 37.8323C50.1949 38.3747 50.6874 38.7497 51.2499 38.7497H58.7499C59.4399 38.7497 60 38.1897 60 37.4997V14.9997C60 14.3072 59.4399 13.7498 58.7499 13.7498ZM57.5 36.2498H52.185C51 32.3897 47.4999 22.3247 45.5475 18.1648C47.4549 17.5173 51.5525 16.4048 57.5 16.2648V36.2498Z" fill="#065091"/>
</svg>
