<svg width="80" height="80" viewBox="0 0 80 80" fill="none" xmlns="http://www.w3.org/2000/svg">
<path d="M8.33328 35C3.74 35 0 38.74 0 43.3333V70C0 74.5933 3.74 78.3333 8.33328 78.3333H18.3333C20.21 78.3333 21.9366 77.7 23.3333 76.6466V35H8.33328Z" fill="#065091"/>
<path d="M80 47.5C80 45.4967 79.2067 43.63 77.83 42.2533C79.3867 40.55 80.18 38.2666 79.9633 35.89C79.5733 31.6533 75.7566 28.3333 71.27 28.3333H50.68C51.7 25.2366 53.3333 19.56 53.3333 15C53.3333 7.77003 47.19 1.66675 43.3333 1.66675C39.87 1.66675 37.3966 3.61675 37.29 3.69675C36.8967 4.01347 36.6667 4.49347 36.6667 5.00003V16.3033L27.0667 37.1L26.6667 37.3033V73.03C29.38 74.31 32.8133 75 35 75H65.5967C69.2267 75 72.4035 72.5533 73.15 69.1768C73.5333 67.44 73.31 65.69 72.5468 64.17C75.01 62.93 76.6667 60.3933 76.6667 57.5C76.6667 56.32 76.3967 55.19 75.8835 54.1667C78.3467 52.9267 80 50.39 80 47.5Z" fill="#065091"/>
</svg>
