<svg width="80" height="80" viewBox="0 0 80 80" fill="none" xmlns="http://www.w3.org/2000/svg">
<g clip-path="url(#clip0)">
<path d="M40.0001 43.6364C52.0499 43.6364 61.8183 33.8681 61.8183 21.8182C61.8183 9.76834 52.0499 0 40.0001 0C27.9502 0 18.1819 9.76834 18.1819 21.8182C18.1819 33.8681 27.9502 43.6364 40.0001 43.6364Z" fill="#065091"/>
<path d="M71.0511 55.4724C67.6136 53.7092 62.1377 51.2359 55.5895 49.4692C54.6805 49.2135 53.7217 49.7196 53.4055 50.6109L45.953 71.4019L43.6967 60.1173L47.1805 49.6662C47.3651 49.1122 47.2729 48.5015 46.9284 48.0273C46.5875 47.5533 46.0407 47.2727 45.4546 47.2727H34.5455C33.9595 47.2727 33.4127 47.5533 33.0718 48.0273C32.7273 48.5013 32.6349 49.1122 32.8197 49.6662L36.3034 60.1173L34.0471 71.4019L26.5947 50.6109C26.2787 49.7196 25.3163 49.2152 24.4106 49.4692C17.8623 51.2359 12.3864 53.7092 8.94904 55.4724C3.4304 58.3062 0 63.8992 0 70.0657V72.7274C0 76.7383 3.26352 80.0002 7.27279 80.0002H34.5455H45.4546H72.7274C76.7366 80.0002 80.0002 76.7385 80.0002 72.7274V70.0657C80 63.8992 76.5696 58.3062 71.0511 55.4724Z" fill="#065091"/>
</g>
<defs>
<clipPath id="clip0">
<rect width="80" height="80" fill="white"/>
</clipPath>
</defs>
</svg>
