<svg width="32" height="32" viewBox="0 0 32 32" fill="none" xmlns="http://www.w3.org/2000/svg">
<path d="M30.5083 5.05623L26.3724 0.924258C26.0807 0.631228 25.7339 0.398728 25.352 0.240115C24.9702 0.0815015 24.5607 -9.91038e-05 24.1472 9.03269e-08C23.3045 9.03269e-08 22.5123 0.330092 21.9181 0.924258L17.4677 5.37468C17.1747 5.66642 16.9422 6.01319 16.7836 6.39507C16.6249 6.77694 16.5433 7.18638 16.5434 7.59989C16.5434 8.44259 16.8735 9.23481 17.4677 9.82898L20.722 13.0833C19.9603 14.7623 18.9012 16.2898 17.5959 17.592C16.2938 18.9004 14.7665 19.9634 13.0872 20.7298L9.83286 17.4755C9.54112 17.1824 9.19435 16.9499 8.81248 16.7913C8.4306 16.6327 8.02116 16.5511 7.60765 16.5512C6.76495 16.5512 5.97273 16.8813 5.37856 17.4755L0.92426 21.922C0.63087 22.2143 0.39817 22.5617 0.23955 22.9443C0.0809292 23.3268 -0.000481231 23.737 2.13992e-06 24.1511C2.13992e-06 24.9938 0.330094 25.786 0.92426 26.3802L5.05235 30.5083C5.99991 31.4597 7.30863 31.9995 8.6523 31.9995C8.93579 31.9995 9.20763 31.9762 9.47559 31.9296C14.7105 31.0675 19.9026 28.2831 24.0928 24.0967C28.2792 19.9143 31.0597 14.726 31.9335 9.47559C32.1976 7.87173 31.6655 6.22127 30.5083 5.05623Z" fill="#065091"/>
</svg>
