<svg xmlns="http://www.w3.org/2000/svg" viewBox="0 0 461.5 177.9"><defs><style>.cls-1{fill:#096854;}.cls-2{fill:#0b6753;}.cls-3{fill:#0a6753;}.cls-4{fill:#0a6853;}.cls-5{fill:#096754;}.cls-6{fill:#0a6854;}.cls-7{fill:#096853;}.cls-8{fill:#096852;}.cls-9{fill:#0a6653;}.cls-10{fill:#0a6754;}.cls-11{fill:#086853;}.cls-12{fill:#076955;}.cls-13{fill:#fefffe;}.cls-14{fill:#feffff;}.cls-15{fill:#fffeff;}</style></defs><title>Ресурс 3</title><g id="Слой_2" data-name="Слой 2"><g id="Слой_1-2" data-name="Слой 1"><path class="cls-1" d="M230.78,2.07a18,18,0,0,1,.4-2.07c1.58,12.88,3.39,25.73,5,38.61-3.62,0-7.24,0-10.86,0,1.8-12.19,3.66-24.37,5.47-36.56Zm31,34.6a9.86,9.86,0,0,1,6.78,1.16c1.14.7,2.42,1.6,2.62,3q.87,6.46,1.59,12.94c.16,1.75.43,3.51.43,5.27A14,14,0,0,0,269.4,54a2,2,0,0,0-2.48-.19,4.26,4.26,0,0,0-1,2.65,7.75,7.75,0,0,0,.87,3.67c.82,2.07,1.78,4.08,2.54,6.17a30.22,30.22,0,0,1-6.56-7.07,59.19,59.19,0,0,1-5.59-11.38,11.86,11.86,0,0,1-.58-6.34,6.91,6.91,0,0,1,5.21-4.79ZM192.69,38a9.3,9.3,0,0,1,8.88-.59,6.76,6.76,0,0,1,3.52,5.24c.2,2.83-.83,5.55-1.89,8.12a74.41,74.41,0,0,1-4.48,8.47,31.85,31.85,0,0,1-6.56,7.1c.92-2.69,2.27-5.2,3.17-7.9a5.18,5.18,0,0,0-.46-4.26,1.82,1.82,0,0,0-2.64-.29,14.47,14.47,0,0,0-4,5.24c.44-6,1.26-11.95,2-17.91.09-1.46,1.31-2.5,2.46-3.22Zm25.06,2.35q13,0,26,0c-.05,4.19.08,8.38-.07,12.57-8.65-.07-17.29.06-25.94-.06.07-4.17,0-8.34,0-12.51Zm-11.39.3c1.57,2.77,3.33,5.67,3.42,8.94a12.84,12.84,0,0,1-2.8,7.85,22.08,22.08,0,0,0-4.09,7.07,11.59,11.59,0,0,0,3.77,8.6c.08,7.08,0,14.18,0,21.26-3.85.2-7.87.25-11.5-1.2s-5.81-4.74-7-8.18a14.81,14.81,0,0,1,.46-11.43c2.09-3.61,5.33-6.34,8-9.49a56.31,56.31,0,0,0,5.76-7.74c1.79-3.37,3.5-6.91,3.91-10.76a27.87,27.87,0,0,0,.06-4.92Zm48.74,0a41.14,41.14,0,0,0,.05,4.58A25.19,25.19,0,0,0,257.93,54c2.82,6,7.61,10.71,12,15.56a18.59,18.59,0,0,1,3.47,5.09,15.92,15.92,0,0,1-1.34,13.06,11.77,11.77,0,0,1-6.59,5.72,27.7,27.7,0,0,1-10.72.83c.08-7.07,0-14.14,0-21.21a10.38,10.38,0,0,0,3.59-6.54,5.5,5.5,0,0,0,.07-2.64,23.94,23.94,0,0,0-3.69-6.16,12.4,12.4,0,0,1-2.88-9.64c.45-2.71,1.93-5.08,3.23-7.46ZM212.47,55.38c12.18,0,24.35,0,36.53,0-.05,5.38,0,10.75,0,16.12-12.18.1-24.35,0-36.53,0,0-5.39,0-10.79,0-16.18ZM207.93,73c15.16,0,30.33,0,45.5,0,.18,7.18,0,14.37.07,21.55q-22.78,0-45.56,0c0-7.18,0-14.36,0-21.54ZM31.55,170q9.85-9.89,19.75-19.74c1.31.08,2.63-.09,3.93.09,1.39,1.2,2.58,2.6,3.92,3.85,0,7.89,0,15.8,0,23.69-1.31,0-2.63,0-3.94,0,0-2.61,0-5.23,0-7.84-4.94-.17-9.89,0-14.83-.07a33.07,33.07,0,0,0-3.73.08c-.49.46-1.25.9-1.18,1.68,0,2,0,4.09,0,6.14-1.3,0-2.6,0-3.89,0-.09-2.63,0-5.27-.05-7.91Zm20.76-15.61c-3.88,3.87-7.77,7.73-11.6,11.64,4.82.07,9.65,0,14.48.05.06-3.59,0-7.17,0-10.76-.67-.85-1.82-1.55-2.88-.93Zm62-4.06c1.34-.11,2.68,0,4-.07,1.39,1.29,2.69,2.66,4,4,0,7.88,0,15.76,0,23.64-1.3,0-2.6,0-3.9,0-.07-2.63,0-5.27,0-7.9-6.15,0-12.29,0-18.44,0-.43.42-.86.86-1.27,1.3,0,2.21,0,4.42,0,6.63H94.66c0-2.62,0-5.24,0-7.85,6.44-6.65,13.13-13.07,19.57-19.71Zm1.24,3.91c-3.84,4-7.84,7.78-11.64,11.79,4.82.06,9.63,0,14.45,0q0-5.07,0-10.14c.11-.79-.69-1.19-1.13-1.69Zm105.35-3.93c7.71-.08,15.43,0,23.15,0,.61-.11,1,.45,1.36.81,1,1.06,2.06,2,3,3.08.15,2.65,0,5.32.05,8-1.33,1.27-2.58,2.62-3.91,3.88-6.57.1-13.15,0-19.73,0,0,3.95,0,7.89,0,11.84-1.31,0-2.62,0-3.93,0,0-9.19,0-18.38,0-27.57Zm4,3.94c0,2.62-.06,5.24,0,7.87,6,0,12,0,18,0,.72,0,1.15-.66,1.6-1.11.16-1.68,0-3.39.07-5.08.08-.77-.68-1.16-1.11-1.66q-9.3-.06-18.6,0Zm27.61-4c7.89,0,15.77,0,23.66,0,0,1.3,0,2.59,0,3.89-6.57.13-13.15,0-19.72.06q0,11.82,0,23.65c-1.32,0-2.62,0-3.93,0-.05-9.2,0-18.41,0-27.61Zm31.59,0c7.88,0,15.76,0,23.64,0,0,1.3,0,2.6,0,3.89-7.43.09-14.86,0-22.28.05a1.91,1.91,0,0,0-1.4,2V172c-.15.83.65,1.29,1.11,1.85,7.52.08,15,0,22.55,0,0,1.32,0,2.64,0,4-7.89,0-15.78,0-23.67,0-1.3-1.31-2.62-2.61-3.93-3.91,0-6.56,0-13.13,0-19.68,1.29-1.38,2.64-2.71,4-4Zm27.58,0c1.3,0,2.6,0,3.91,0,.05,7.45,0,14.91,0,22.36a7.32,7.32,0,0,0,1.14,1.29c.63-.09,1.45.25,1.92-.32,4.22-4.21,8.43-8.45,12.65-12.66,1.3-1.39,2.75-2.64,4-4.08,0-2.2,0-4.39,0-6.58,1.31,0,2.61,0,3.91,0,.08,9.2,0,18.41,0,27.61-1.3,0-2.61,0-3.91,0-.08-5.22,0-10.45,0-15.67-1.73,1.46-3.23,3.18-4.87,4.75L322,175.31a26.76,26.76,0,0,1-2.68,2.54c-1.27.05-2.53,0-3.79,0-1.14-1.1-2.23-2.24-3.37-3.33-.29-.3-.69-.59-.6-1.06,0-7.75,0-15.49,0-23.24Zm31.51,0c1.32,0,2.65,0,4,0,0,3.93,0,7.87,0,11.8q9.85,0,19.72,0c0-3.94,0-7.88,0-11.82h3.91c0,9.21.06,18.42,0,27.63-1.3,0-2.59,0-3.89,0,0-3.94,0-7.88,0-11.81-6.56,0-13.12,0-19.68,0-.07,3.95,0,7.9,0,11.85-1.3,0-2.59,0-3.88,0-.15-9.2,0-18.41-.08-27.61Zm29.56,0c9.2-.05,18.41,0,27.62,0,0,1.3,0,2.59,0,3.89-4,.15-7.9,0-11.85.08q0,11.82,0,23.64H384.5q0-11.84,0-23.65-5.92,0-11.84,0c0-1.32,0-2.63,0-3.94Z"/><path class="cls-2" d="M234,120.72l2,0c0,4.73,0,9.46,0,14.2l-2,0c0-2,0-4.05,0-6.08-3.38,0-6.75,0-10.13,0,0,2,0,4,0,6.07-.68,0-1.35,0-2,.06q0-7.11,0-14.22h2c0,2,0,4,0,6.06,3.37,0,6.74,0,10.11,0,0-2,0-4.06,0-6.1Z"/><path class="cls-3" d="M.06,122.81c.67-.72,1.35-1.42,2.08-2.08,3.36,0,6.72,0,10.08,0a26,26,0,0,1,2,2.08c.08,3.27,0,6.54,0,9.81a6.94,6.94,0,0,1-2,2.22c-1.52.2-3.07,0-4.6.08-1.84-.05-3.68.11-5.5-.07a23.9,23.9,0,0,1-2.06-2c0-3.36,0-6.73,0-10.09Zm2,.59c0,2.79,0,5.59,0,8.38-.06.51.3,1.15.88,1.1,2.91,0,5.82,0,8.73,0,.27-.32.58-.65.5-1.1,0-2.79,0-5.59,0-8.38l-.55-.63c-3,0-6,0-9,0l-.59.63Zm44.57-2.65c4,0,8.09,0,12.13,0a20.2,20.2,0,0,1,2,2.11,27.25,27.25,0,0,1-.06,4,13.59,13.59,0,0,1-2,1.93c-3.35.1-6.72,0-10.08.05,0,2,0,4,0,6l-2,.07c0-4.74,0-9.49,0-14.22Zm2,2c0,1.35,0,2.7,0,4,3.24,0,6.48.07,9.71-.07.73-.94.28-2.2.42-3.29-.2-.23-.39-.47-.59-.69-3.19,0-6.38,0-9.57,0Zm106.37-2c.67,0,1.33,0,2,0,.09,2,0,4.08,0,6.12h3.45q3-3,6.08-6.07h2.58c-2,2.06-4,4.06-6.06,6.07,1.35.07,2.71-.08,4,.07a14.89,14.89,0,0,1,2,2c.16,2,0,4,.07,6.06l-2,0c0-1.74,0-3.49-.06-5.24a1,1,0,0,0-1.1-.88h-9c0,2,0,4,0,6.08-.67,0-1.35,0-2,0,0-4.73,0-9.46,0-14.19Zm50.57,2.06a27.21,27.21,0,0,1,2.09-2.07c3.36,0,6.73,0,10.09,0a18.62,18.62,0,0,1,2,2.09c.12,3.26,0,6.53,0,9.79-.35.93-1.29,1.54-2,2.22-3.06.21-6.14,0-9.21.1-1.42.23-2-1.32-3-2,0-3.37,0-6.74,0-10.1Zm2,.59c0,2.79,0,5.59,0,8.39-.07.41.26.72.42,1.08,3,.07,6.09,0,9.14,0,.18-.2.37-.4.57-.59,0-2.77,0-5.54,0-8.3a1,1,0,0,0-1.14-1.24h-8.39l-.61.63Z"/><path class="cls-4" d="M15.23,122.77c0-.68,0-1.35,0-2,4.72,0,9.43,0,14.15,0,0,.68,0,1.35,0,2q-3,0-6.07,0c0,4,0,8.07,0,12.11l-.24,0c-.12-4,0-8-.05-12l-1.72-.09c-2-.1-4.07,0-6.1,0Zm81.1,0a21.88,21.88,0,0,1,2.11-2c3.08,0,6.16,0,9.25,0,1.12-.16,1.67,1.05,2.44,1.66.53.36.33,1,.37,1.6,0,3,0,5.9,0,8.84a14.74,14.74,0,0,1-1.93,2c-2,.21-4,0-6,.08a28.26,28.26,0,0,1-4.22-.12,14.59,14.59,0,0,1-1.93-2c0-3.36,0-6.72,0-10.08Zm2,1c0,2.86,0,5.72,0,8.58l.51.57c3,.06,6.09.06,9.12,0l.48-.62c0-2.36,0-4.72,0-7.08,0-.85.26-2-.71-2.42-2.8.07-5.61,0-8.42,0a.93.93,0,0,0-1,.93Zm14.16-.89a19.18,19.18,0,0,1,2.08-2c4-.07,8.08,0,12.12,0,0,.68,0,1.35,0,2-3.75,0-7.51,0-11.26,0-.75,0-1,.93-.89,1.53.06.79-.22,1.8.45,2.41a4.45,4.45,0,0,0,1.32.12c3.47,0,6.94,0,10.41,0,0,.67,0,1.34,0,2-3.55,0-7.1,0-10.66,0a4.17,4.17,0,0,0-1.3.22,6.83,6.83,0,0,0,0,3.42c.46.7,1.48.31,2.19.42,3.27,0,6.55,0,9.82,0,0,.68,0,1.37,0,2.06-4-.06-7.93,0-11.89,0-1-.32-1.5-1.38-2.3-2,0-1.35,0-2.7,0-4,.32-.33.65-.65,1-1a10.35,10.35,0,0,0-1-1c-.06-1.35,0-2.7,0-4.05Zm58.76-2.07,2,0c0,3.87,0,7.73,0,11.59.31.27.61.63,1.07.56,3,0,6.05,0,9.08,0,0-4.06,0-8.12,0-12.17l2,0c0,4,0,8.06,0,12.09.64.71,1.32,1.39,2,2,0,.36,0,.7,0,1.06h-1.94c-.17-.34-.34-.67-.53-1-3.84,0-7.68,0-11.52,0a8.77,8.77,0,0,1-2.18-2c-.06-4,0-8.09,0-12.13Zm66.85,2c.62-.71,1.34-1.33,2-2,4,0,8.05,0,12.06,0,0,.68,0,1.37,0,2-3.82,0-7.64,0-11.46,0-.94.27-.67,1.35-.72,2.08.07.53-.16,1.2.27,1.62s.88.32,1.35.33c3.5,0,7,0,10.5,0,0,.68.06,1.36,0,2H240.76c-1.1.58-.58,1.94-.68,2.94a1,1,0,0,0,1,1.11c3.72,0,7.44,0,11.17,0,0,.66,0,1.32,0,2-4,.06-8,0-12,0a8.06,8.06,0,0,1-2.14-2.1c-.05-1.27,0-2.55,0-3.82a4.47,4.47,0,0,1,1-1.16c-.4-.46-1.11-.82-1-1.52a28.61,28.61,0,0,1,.07-3.59Zm50.46-1.93c3-.11,5.92,0,8.89-.05a4,4,0,0,1,1.41.11c.68.57,1.25,1.27,1.92,1.86,0,3.4.07,6.8,0,10.2a8.27,8.27,0,0,1-2.18,2c-3.34.06-6.68.05-10,0a27.11,27.11,0,0,1-1.93-2.1c0-3.36,0-6.72,0-10.08a19.44,19.44,0,0,0,1.91-1.94Zm.1,2.57c0,3,0,6,0,9,.3.22.58.57,1,.51,2.86,0,5.73,0,8.59,0,.18-.21.36-.42.55-.62,0-2.86,0-5.71,0-8.56.09-.49-.39-.7-.68-1-2.81.08-5.61,0-8.42,0-.45-.08-.71.35-1,.58Zm14.18-.55c.66-.7,1.35-1.39,2-2.06h12.16c0,.66,0,1.31,0,2-3.85.18-7.72,0-11.58.11-.78.35-.6,1.34-.63,2s-.16,1.72.69,1.92c3.83.12,7.67,0,11.5.08,0,.65,0,1.32,0,2-3.76,0-7.52,0-11.28,0-.91,0-.95,1.06-.9,1.73s-.24,1.84.62,2.25c3.85.09,7.72,0,11.57,0,0,.66,0,1.33,0,2-4.1.07-8.21.1-12.31,0-.56-.71-1.27-1.27-1.82-2-.17-1.34,0-2.69-.07-4,.33-.36.66-.73,1-1.11-.4-.42-1.06-.78-1-1.46,0-1.17,0-2.34,0-3.5Zm42.55-2.08c4.05,0,8.11,0,12.16,0,0,.67,0,1.35,0,2-3.37,0-6.75,0-10.12,0v4c3.31,0,6.61,0,9.91,0a10.61,10.61,0,0,1,2.26,2c0,1.34.06,2.69-.05,4-.6.73-1.34,1.32-2,2-4.05.06-8.11,0-12.17,0,0-4.74,0-9.48,0-14.22Zm2,8.11c0,1.35,0,2.7,0,4,3.2,0,6.39.07,9.59,0,1-.59.46-1.89.56-2.81a1,1,0,0,0-1.15-1.19Zm36.25-6c.67-.7,1.36-1.38,2.05-2.06,4,0,8.09,0,12.14,0,0,.66,0,1.32,0,2-3.78.13-7.57,0-11.35.07-.37,0-.65.31-.78.61a14.05,14.05,0,0,0,0,2.9l.57.52c3.85,0,7.69,0,11.54,0,0,.67,0,1.34,0,2-3.78,0-7.56,0-11.33,0-.76,0-.9.86-.85,1.47.05.87-.25,2,.61,2.57,3.85,0,7.72-.08,11.58.05,0,.66,0,1.33,0,2-3.76,0-7.53,0-11.29,0-1.32.14-2-1.28-2.83-2.05-.17-1.33,0-2.69-.08-4,.29-.37.79-.66.89-1.13-.33-.46-1-.8-.87-1.46,0-1.16,0-2.33,0-3.49Zm16.25,0a13.77,13.77,0,0,1,2.12-2.13c4,.06,8,0,12,0,0,.67,0,1.36,0,2-3.82,0-7.64,0-11.47,0-.29.26-.76.46-.67.94,0,2.86,0,5.73,0,8.59l.49.6c3.89.09,7.78-.07,11.66.09,0,.64,0,1.28,0,1.92-3.69.14-7.39,0-11.08.07-1.46.27-2.19-1.22-3.07-2.09,0-3.34,0-6.68,0-10Zm30.41-2.11q4,0,8,0a20.23,20.23,0,0,1,2,2.1c.07,1.33,0,2.66,0,4a16.06,16.06,0,0,1,2,0,17.48,17.48,0,0,1,2.1,2c0,1.34,0,2.69,0,4-.64.64-1.3,1.27-1.9,2-4.08.12-8.17.06-12.26,0,0-4.72-.08-9.45,0-14.18Zm2,2.06c0,1.34,0,2.69,0,4,2,0,4.08.1,6.11-.07-.08-1,0-2.06-.07-3.09,0-.44-.42-1-.9-.88-1.71,0-3.43,0-5.15,0Zm0,6c0,1.35,0,2.7,0,4,3.07,0,6.14,0,9.2,0,.51.09.71-.39,1-.72-.07-.89,0-1.78-.08-2.67-.22-.63-.94-.65-1.5-.65-2.85,0-5.7,0-8.56,0Zm14.18-6.11a13.88,13.88,0,0,1,2.17-2c3.06-.05,6.13,0,9.19,0,1.29-.11,1.83,1.36,2.77,2,0,3.35,0,6.71,0,10.07a22.53,22.53,0,0,1-1.93,2.12c-3.34,0-6.68.05-10,0-.88-.4-1.4-1.36-2.17-1.93-.05-3.42,0-6.84,0-10.26Zm2,1c0,2.85,0,5.71,0,8.56l.53.64c3,0,6.09.05,9.14,0l.46-.62c0-3,0-6,0-8.94-.23-.18-.44-.36-.65-.54-2.93,0-5.85,0-8.77,0-.29.27-.79.46-.69.94Z"/><path class="cls-5" d="M30.46,134.9c.05-4.72,0-9.44,0-14.16h2q0,3,0,6.09c1.17,0,2.34,0,3.51,0,2-2,4-4.1,6.08-6.07l2.53,0c-2,2-4,4-6,6,1.29,0,2.58,0,3.87,0a14.7,14.7,0,0,1,2.15,2c0,2,0,4,0,6-.68,0-1.37,0-2,0,.06-1.81,0-3.63,0-5.45-.3-.29-.6-.73-1.09-.64-3,0-6,0-9.06,0,0,2,0,4,0,6a10.8,10.8,0,0,1-2,0ZM67,150.33c6.59-.15,13.22-.07,19.82,0,1.18,1.23,2.41,2.41,3.61,3.62.43.35.25,1,.3,1.44-.07,2.27.06,4.54-.06,6.8-.67.61-1.3,1.26-1.93,1.91.75,1,2.28,1.62,2,3.06-.1,2.28.13,4.58-.1,6.84-1.25,1.35-2.6,2.62-3.92,3.91q-9.81,0-19.62,0c-1.31-1.29-2.66-2.55-3.9-3.91a25.43,25.43,0,0,1-.07-4c1.31,0,2.62,0,3.93,0,0,.89,0,1.78,0,2.67.39.42.79.83,1.19,1.24h17.4a6.86,6.86,0,0,0,1.14-1.27c0-1.76,0-3.52,0-5.27a3.19,3.19,0,0,0-1.19-1.31c-2.62-.07-5.24,0-7.86,0,0-1.3,0-2.61,0-3.91,2.64-.09,5.28,0,7.92,0,.41-.4.81-.8,1.2-1.22-.05-1.84,0-3.68,0-5.52l-1.17-1.13c-5.57,0-11.14,0-16.72,0-.8-.15-1.31.61-1.75,1.15a21,21,0,0,0-.08,2.75c-1.3,0-2.6,0-3.91,0a30.92,30.92,0,0,1,0-4c1.22-1.32,2.52-2.59,3.83-3.84Zm90.77-.07c1.3,0,2.6,0,3.89,0,.05,3.94,0,7.89,0,11.83,6.59,0,13.18,0,19.77,0,1.17,1.23,2.4,2.4,3.59,3.61a.93.93,0,0,1,.32.85c0,2.1,0,4.21,0,6.32,0,.44.1,1-.27,1.29-1.25,1.26-2.47,2.54-3.78,3.73-7.84,0-15.68-.06-23.52,0-.1-9.21,0-18.43,0-27.64ZM161.72,166c0,2.62-.1,5.26,0,7.88,6.18,0,12.35,0,18.52,0l1.17-1.22c-.06-1.84,0-3.68,0-5.52-.38-.36-.74-.72-1.08-1.1-6.2-.06-12.4,0-18.6,0Zm29.49-13.74a19.52,19.52,0,0,1,2.16-2q9.76-.06,19.54,0c1.43,1.19,2.68,2.62,4,3.94,0,6.59,0,13.17,0,19.75-1.34,1.27-2.61,2.62-3.95,3.9-6.52,0-13,0-19.56,0a37,37,0,0,1-3.14-3c-.37-.42-1-.77-.92-1.4q0-9.52,0-19.06a11.64,11.64,0,0,1,1.89-2.09Zm3.12,1.94a10.82,10.82,0,0,1-1,1.1c-.08,5.56,0,11.12,0,16.68-.18.86.68,1.31,1.14,1.88,5.82,0,11.64,0,17.46,0l1.16-1.21c0-5.59,0-11.19,0-16.78.08-.79-.74-1.18-1.19-1.69-5.82,0-11.65-.05-17.47,0Zm211.94-3.94c7.88-.09,15.77,0,23.65,0,0,1.3,0,2.6,0,3.9-7.51.13-15,0-22.53.07l-1.1,1.06c-.09,1.89,0,3.78,0,5.66.49.41.87,1.16,1.59,1.13,7.35,0,14.7,0,22.05,0,0,1.33.05,2.66,0,4-7.25-.07-14.49,0-21.74,0-.83-.17-1.28.62-1.84,1.08-.07,1.88,0,3.77,0,5.65.55.49,1,1.32,1.88,1.16,7.24,0,14.48,0,21.72,0,.08,1.33,0,2.66,0,4-7.86,0-15.72,0-23.57,0a45.25,45.25,0,0,1-4-4.09c-.07-2.6,0-5.21,0-7.81.64-.59,1.25-1.22,1.88-1.83-.46-.86-1.38-1.36-1.87-2.19,0-2.59,0-5.18,0-7.76,1.33-1.3,2.59-2.67,3.95-3.91Zm31.46,0c6.59,0,13.2-.07,19.79,0,1.37,1.23,2.63,2.58,4,3.87,0,2.6,0,5.21,0,7.82-.46.78-1.29,1.26-1.84,2a9.3,9.3,0,0,0,1.85,2c0,2.66.12,5.34-.07,8a47.32,47.32,0,0,1-4,3.88c-6.53,0-13.06,0-19.59,0-1.3-1.32-2.61-2.62-3.91-3.94,0-1.3,0-2.6,0-3.9,1.33-.11,2.66,0,4-.06a25.63,25.63,0,0,0,0,2.63c.2.52.71.85,1.06,1.29,5.82.07,11.64,0,17.46,0a15.2,15.2,0,0,0,1.11-1.16c.14-1.68,0-3.38,0-5.07.06-.75-.73-1.13-1.13-1.64-2.63-.06-5.29.09-7.9-.08-.08-1.29,0-2.59,0-3.89,2.47,0,4.95,0,7.42,0,.74.06,1.09-.74,1.6-1.13.06-1.69,0-3.38,0-5.07.08-.75-.69-1.14-1.09-1.66-5.83,0-11.67,0-17.5,0a6.89,6.89,0,0,0-1.07,1.16,15.33,15.33,0,0,0,0,2.71c-1.33.08-2.66,0-4,0,0-1.28,0-2.57,0-3.85,1.24-1.39,2.64-2.6,3.88-4Z"/><path class="cls-6" d="M62.88,134.91c0-4.73-.05-9.47,0-14.2q1,0,2,0c0,2,0,4,0,6.06,3.34.07,6.68,0,10,0a21.88,21.88,0,0,1,2.11,2c0,1.39,0,2.78,0,4.17-1,.68-1.58,2.22-3,2-3.71,0-7.43,0-11.15,0Zm2-6c0,1.34,0,2.68,0,4,3.23,0,6.45,0,9.67,0,.84-.95.32-2.3.48-3.44-.3-.25-.56-.66-1-.6-3,0-6.09,0-9.13,0Zm189.35-8.13c4.06,0,8.12,0,12.18,0a21.25,21.25,0,0,1,1.94,2.09,32.34,32.34,0,0,1,0,4.06c-.72.59-1.28,1.38-2.05,1.91-3.35.08-6.71,0-10.07,0,0,2,0,4.07,0,6.1-.69,0-1.38,0-2.06,0,.06-4.72,0-9.45,0-14.17Zm2,2c0,1.35,0,2.7,0,4,3,0,6,0,9,0,.45.07.78-.24,1.12-.49,0-1,0-2,0-2.92l-.53-.63c-3.19,0-6.39,0-9.58,0Zm14.2-2h2c0,2,0,4.06,0,6.09h10.13c0-2,0-4.07,0-6.1l2,0c0,4.74,0,9.48,0,14.22-.69,0-1.37,0-2-.05,0-2,0-4,0-6.07-3.38,0-6.76,0-10.13,0,0,2,0,4.07,0,6.11l-2,0c0-4.73,0-9.46,0-14.18ZM0,150.27c1.32,0,2.65,0,4,0-.05,3.92,0,7.85,0,11.77,1.8.06,3.6,0,5.4,0,.6,0,1.32.13,1.73-.42,3.68-3.71,7.4-7.38,11.07-11.09.3-.41.84-.31,1.27-.33h4.09c-3,3.27-6.29,6.33-9.42,9.52A19.28,19.28,0,0,0,16,162.07c2.59,0,5.17,0,7.75,0,1.29,1.34,2.62,2.64,3.93,4-.06,3.93,0,7.87-.05,11.81-1.3,0-2.61,0-3.92,0,0-3.29,0-6.58,0-9.87a1.85,1.85,0,0,0-2-2c-5.91,0-11.82,0-17.73,0q0,5.91,0,11.82c-1.32,0-2.63,0-3.95,0,0-9.2,0-18.4,0-27.6Z"/><path class="cls-7" d="M78.1,120.74h2c0,4.72.08,9.45-.07,14.16a11.43,11.43,0,0,1-1.94,0q-.1-7.09,0-14.2Zm70.61.27a3,3,0,0,1,2.35-.16,15.28,15.28,0,0,1,1.95,2c.07,4,0,8,0,12-.68.06-1.36.07-2,.08,0-1.36,0-2.71,0-4.06-3.2-.06-6.4,0-9.6,0l-.55.66c0,1.13,0,2.27,0,3.4q-1,0-2-.09c0-1.35,0-2.69,0-4,3.27-3.29,6.58-6.54,9.83-9.84Zm.6,2-5.74,5.76c2.48.07,5,0,7.43,0,0-1.73,0-3.45,0-5.17a1,1,0,0,0-1.69-.62Zm181.86-2.21a3.61,3.61,0,0,1,1.36-.11c3,0,5.94,0,8.91,0,.6.68,1.25,1.32,1.92,2,0,3.35,0,6.72,0,10.08a23,23,0,0,1-1.95,2.12c-3.34,0-6.69,0-10,0-.86-.45-1.39-1.37-2.15-2,0-3.42,0-6.84,0-10.26.66-.6,1.25-1.29,1.94-1.86Zm.08,2.46c0,3,0,5.95,0,8.92.17.22.34.43.53.65,3,0,6.09,0,9.14,0l.46-.6c0-2.84,0-5.68,0-8.52a.9.9,0,0,0-1-1c-2.81,0-5.62,0-8.43,0l-.66.55Z"/><path class="cls-8" d="M81.07,122.77c0-.68,0-1.36.05-2,4.72,0,9.44,0,14.16,0,0,.67,0,1.34,0,2-2,0-4.05,0-6.08,0,0,4,0,8.07,0,12.11-.68,0-1.36.06-2,.07,0-4.07.07-8.14,0-12.21-2,0-4,0-6.05,0Z"/><path class="cls-9" d="M189.44,132.35c0-3.87,0-7.75,0-11.61h2c0,3.83,0,7.66,0,11.49l.55.68c.36-.06.83.07,1.11-.25,2.79-2.81,5.63-5.58,8.37-8.43a27.11,27.11,0,0,0,.12-3.5h2c0,4.74.08,9.49,0,14.23-.65,0-1.31,0-2,0,0-2.69,0-5.38,0-8.07-2.68,2.55-5.23,5.23-7.87,7.82-.5.38-1.2.22-1.78.24s-1.07-.67-1.53-1.08-1.08-.82-1-1.52Z"/><path class="cls-10" d="M361.63,120.73h2c0,3.85,0,7.71,0,11.57.18.19.37.38.55.58,1.54,0,3.08,0,4.62,0,.44.06.7-.36,1-.61-.05-3.85,0-7.69,0-11.54l2,0c.09,3.89,0,7.78,0,11.67.3.17.54.54.94.5,1.72,0,3.45,0,5.18,0,0-4.05,0-8.09,0-12.14h2c.11,4.06,0,8.12.06,12.18.75,1,2.18,1.6,2.08,3-.66,0-1.31,0-2,0-.22-.34-.44-.68-.67-1-2.33,0-4.65,0-7,0-.74.11-1.18-.57-1.69-1-.48.46-1,1.11-1.74.95-1.81-.06-3.63.11-5.43-.07a18.32,18.32,0,0,1-2-2c-.1-4.05,0-8.11,0-12.17ZM126.21,150.26c1.3,0,2.61,0,3.92,0,.08,3.94,0,7.88,0,11.82,6.56.06,13.11,0,19.67,0,.1-3.93,0-7.88,0-11.82,1.33,0,2.65,0,4,0v27.59c-1.32,0-2.64,0-4,0q0-5.91,0-11.82c-6.57,0-13.14,0-19.71,0,0,3.93,0,7.87,0,11.8-1.31,0-2.62,0-3.92,0-.08-9.2,0-18.4,0-27.61Z"/><path class="cls-11" d="M415.07,120.75c4.72,0,9.45,0,14.17,0,0,.68,0,1.35,0,2-2,0-4.07,0-6.1,0,0,4,0,8.07,0,12.1-.68,0-1.35.06-2,0,0-4.05,0-8.11,0-12.16-2,0-4.05,0-6.08,0,0-.68,0-1.36,0-2Z"/><path class="cls-12" d="M21.33,122.82l1.72.09c.06,4-.07,8,.05,12-.6,0-1.19,0-1.79,0,0-4,0-8.09,0-12.13Z"/><path class="cls-13" d="M48.69,122.78c3.19,0,6.38,0,9.57,0,.2.22.39.46.59.69-.14,1.09.31,2.35-.42,3.29-3.23.14-6.47,0-9.71.07,0-1.35,0-2.7,0-4Zm383.65,0c1.72,0,3.44,0,5.15,0,.48-.07.86.44.9.88.05,1,0,2.06.07,3.09-2,.17-4.08,0-6.11.07,0-1.34,0-2.69,0-4Z"/><path class="cls-14" d="M149.31,123.06a1,1,0,0,1,1.69.62c0,1.72,0,3.44,0,5.17-2.47,0-4.95,0-7.43,0l5.74-5.76Zm107-.29c3.19,0,6.39,0,9.58,0l.53.63c0,1,0,1.94,0,2.92-.34.25-.67.56-1.12.49-3,0-6,0-9,0,0-1.35,0-2.7,0-4Z"/><path class="cls-15" d="M115.5,154.22h1.67c.44.5,1.24.9,1.13,1.69q0,5.07,0,10.14c-4.82,0-9.63,0-14.45,0,3.8-4,7.8-7.82,11.64-11.79Z"/></g></g></svg>