<svg width="77" height="39" viewBox="0 0 77 39" fill="none" xmlns="http://www.w3.org/2000/svg">
<g clip-path="url(#clip0)">
<path d="M37.7412 23.8174H38.9462V26.4157H39.8167L41.3789 23.8174H42.6963L40.8212 26.8668V26.8882L42.808 30.2159H41.4462L39.8389 27.4241H38.969V30.2159H37.7634V23.8168H37.7412V23.8174ZM45.5085 25.514C46.9583 25.514 48.1418 26.5231 48.1418 27.9187C48.1418 29.3363 46.9812 30.324 45.5307 30.324C44.0795 30.324 42.9189 29.3363 42.9189 27.9187C42.8967 26.5018 44.0573 25.514 45.5085 25.514ZM49.0789 25.6208H50.2173V29.2288H51.7129V25.6215H52.8506V29.2288H54.3462V25.6215H55.4845V30.2159H49.1233V25.6208H49.0789ZM58.8552 25.514C60.2162 25.514 60.9751 26.4804 60.9751 27.6831C60.9714 27.8341 60.9565 27.9846 60.9307 28.1336H57.6495C57.7168 28.9278 58.364 29.3576 59.0785 29.3576C59.569 29.3576 60.0601 29.1427 60.4396 28.8637L60.9085 29.68C60.4174 30.0871 59.6807 30.3454 58.9891 30.3454C57.404 30.3454 56.4224 29.2502 56.4224 27.94C56.4224 26.5018 57.4262 25.514 58.8552 25.514ZM61.5328 29.2502C62.1135 29.1641 62.5373 28.6922 62.5373 27.0597V25.6215H66.0196V30.2159H64.8362V26.5438H63.6756V27.0591C63.6756 29.056 63.1179 30.2159 61.5328 30.2586V29.2495V29.2502ZM69.4118 25.514C70.7728 25.514 71.5317 26.4804 71.5317 27.6831C71.528 27.8341 71.5132 27.9846 71.4873 28.1336H68.2062C68.2735 28.9278 68.9207 29.3576 69.6352 29.3576C70.1256 29.3576 70.6167 29.1427 70.9962 28.8637L71.4651 29.68C70.974 30.0871 70.2373 30.3454 69.5457 30.3454C67.9613 30.3454 66.979 29.2502 66.979 27.94C66.979 26.5018 67.9835 25.514 69.4118 25.514ZM72.514 25.6208H73.6968V27.3821H74.2774L75.4379 25.6215H76.7546L75.2368 27.8112V27.8333L76.9328 30.2159H75.5496L74.2996 28.3485H73.6752V30.2159H72.4911V25.6208H72.5133H72.514ZM45.5085 29.3363C46.2896 29.3363 46.9368 28.7563 46.9368 27.8973C46.9368 27.0597 46.2896 26.4584 45.5078 26.4584C44.7274 26.4584 44.1024 27.039 44.1024 27.8973C44.1024 28.7563 44.7267 29.3363 45.5085 29.3363ZM59.7702 27.3394C59.7702 26.738 59.3456 26.373 58.8101 26.373C58.208 26.373 57.7612 26.7594 57.6495 27.3394H59.7702ZM70.3268 27.3394C70.3268 26.738 69.9029 26.373 69.3674 26.373C68.7639 26.373 68.3178 26.7594 68.2062 27.3394H70.3268Z" fill="white"/>
<path d="M54.4135 9.8813V20.7254C54.4144 20.7651 54.407 20.8045 54.3916 20.8414C54.3763 20.8782 54.3533 20.9117 54.3241 20.9398C54.295 20.9679 54.2602 20.9899 54.2219 21.0047C54.1836 21.0195 54.1426 21.0266 54.1013 21.0257H51.8024C51.7612 21.0266 51.7201 21.0195 51.6818 21.0047C51.6435 20.9899 51.6087 20.9679 51.5796 20.9398C51.5504 20.9117 51.5274 20.8782 51.5121 20.8414C51.4967 20.8045 51.4893 20.7651 51.4902 20.7254V9.8813C51.4893 9.84161 51.4967 9.80214 51.5121 9.76529C51.5274 9.72844 51.5504 9.69497 51.5796 9.6669C51.6087 9.63882 51.6435 9.61673 51.6818 9.60196C51.7201 9.58719 51.7612 9.58005 51.8024 9.58096H54.1013C54.1426 9.58005 54.1836 9.58719 54.2219 9.60196C54.2602 9.61673 54.295 9.63882 54.3241 9.6669C54.3533 9.69497 54.3763 9.72844 54.3916 9.76529C54.407 9.80214 54.4144 9.84161 54.4135 9.8813ZM72.3579 9.58096C72.4474 9.58096 72.5591 9.62368 72.6701 9.70977C72.7374 9.77384 72.7374 9.8813 72.7152 9.96739L68.9207 20.8328C68.8977 20.8891 68.8578 20.9375 68.8062 20.9719C68.7546 21.0064 68.6935 21.0253 68.6307 21.0264H66.5774C66.4435 21.0264 66.3318 20.9616 66.2874 20.8328L64.0766 14.4984L61.8672 20.8322C61.8442 20.8884 61.8043 20.9368 61.7527 20.9712C61.7011 21.0057 61.64 21.0246 61.5772 21.0257H59.5239C59.39 21.0257 59.2783 20.9616 59.2339 20.8322L55.4394 9.96673C55.4172 9.8813 55.4172 9.7952 55.4838 9.70977C55.5289 9.62368 55.6406 9.58096 55.7294 9.58096H58.2961C58.43 9.58096 58.5416 9.66639 58.5867 9.7952L60.6172 16.2157L62.8495 9.7952C62.8725 9.73897 62.9123 9.69058 62.964 9.65613C63.0156 9.62168 63.0766 9.60272 63.1394 9.60165H64.9472C65.0811 9.60165 65.1928 9.66639 65.2372 9.7952L67.4695 16.2157L69.5006 9.7952C69.5188 9.73438 69.5568 9.68076 69.609 9.64221C69.6612 9.60366 69.7248 9.58219 69.7906 9.58096H72.3572H72.3579ZM76.2412 9.58096C76.3973 9.58096 76.5312 9.70977 76.5534 9.8813V20.7254C76.5544 20.7651 76.5469 20.8045 76.5316 20.8414C76.5162 20.8782 76.4933 20.9117 76.4641 20.9398C76.4349 20.9679 76.4001 20.9899 76.3618 21.0047C76.3235 21.0195 76.2825 21.0266 76.2412 21.0257H73.9423C73.9011 21.0266 73.8601 21.0195 73.8218 21.0047C73.7835 20.9899 73.7487 20.9679 73.7195 20.9398C73.6903 20.9117 73.6674 20.8782 73.652 20.8414C73.6367 20.8045 73.6292 20.7651 73.6302 20.7254V9.8813C73.6292 9.84161 73.6367 9.80214 73.652 9.76529C73.6674 9.72844 73.6903 9.69497 73.7195 9.6669C73.7487 9.63882 73.7835 9.61673 73.8218 9.60196C73.8601 9.58719 73.9011 9.58005 73.9423 9.58096H76.2412ZM50.1507 20.64C50.2846 20.7901 50.1729 21.0044 49.9717 21.0044H47.1595C47.1041 21.0058 47.0492 20.9949 46.9989 20.9726C46.9486 20.9502 46.9043 20.917 46.8695 20.8756L46.4013 20.3176C45.419 20.9183 44.2578 21.284 43.0306 21.284C39.5941 21.284 36.804 18.5997 36.804 15.2927C36.804 11.9856 39.5941 9.30132 43.0306 9.30132C46.4679 9.30132 49.2579 11.9856 49.2579 15.2927C49.2579 16.474 48.9007 17.5906 48.2757 18.5349L50.1507 20.6393V20.64ZM26.6484 25.9005C27.229 26.1154 27.4524 26.9523 27.4968 27.3174C27.5862 27.9835 27.3858 28.2411 27.1624 28.2411C26.939 28.2411 26.6262 27.9835 26.2918 27.4682C25.9568 26.9523 25.8229 26.373 26.0018 26.072C26.1128 25.8785 26.3584 25.793 26.6491 25.9005H26.6484ZM23.2562 28.3272C23.6135 28.3272 24.0151 28.4774 24.3724 28.7777C25.064 29.3363 25.2651 29.9804 24.9079 30.4529C24.7067 30.6892 24.3724 30.8393 23.9929 30.8393C23.6135 30.8393 23.2118 30.7105 22.944 30.4743C22.319 29.959 22.1407 29.0994 22.5417 28.6275C22.6985 28.434 22.944 28.3272 23.2562 28.3272ZM15.4452 34.5328C6.96341 34.5328 0.0895996 27.9187 0.0895996 19.759C0.0895996 11.5992 6.96411 4.98584 15.4445 4.98584C23.9256 4.98584 30.8001 11.5999 30.8001 19.759C30.8001 22.5287 29.9968 25.1276 28.6358 27.3394C28.5907 27.4035 28.479 27.3821 28.4568 27.296C27.9213 23.6673 25.6224 21.6698 22.2746 21.0691C21.984 21.0257 21.9396 20.8542 22.319 20.8115C23.3457 20.7254 24.7962 20.7467 25.5551 20.8756C25.5995 20.5105 25.6224 20.124 25.6224 19.7376C25.6224 14.3476 21.069 9.96673 15.4667 9.96673C9.86513 9.96673 5.31173 14.3476 5.31173 19.7376C5.31173 25.1276 9.86514 29.5085 15.4674 29.5085H15.9357C15.7766 28.6367 15.7092 27.7517 15.7345 26.8669C15.7574 26.2656 15.8913 26.1795 16.159 26.652C17.5651 28.9926 19.5741 31.0969 23.5018 31.9345C26.7157 32.622 29.9295 33.4162 33.389 37.6462C33.7011 38.0113 33.2329 38.3978 32.8757 38.0974C29.3496 35.0907 26.1357 34.103 23.2118 34.103C19.9306 34.125 17.699 34.5328 15.4445 34.5328H15.4452ZM44.5706 18.2346L43.3428 16.7957C43.2096 16.6455 43.3213 16.4092 43.5218 16.4092H46.1106C46.2445 16.0655 46.3118 15.6791 46.3118 15.2927C46.3118 13.5107 44.9279 11.9643 43.0306 11.9643C41.1341 11.9643 39.7495 13.5107 39.7495 15.2927C39.7495 17.0746 41.1341 18.5997 43.0306 18.5997C43.5662 18.621 44.1024 18.4709 44.5706 18.2346Z" fill="#FF8C00"/>
</g>
<defs>
<clipPath id="clip0">
<rect width="77" height="37.375" fill="white" transform="translate(0 0.916626)"/>
</clipPath>
</defs>
</svg>
