<svg width="130" height="25" viewBox="0 0 130 25" fill="none" xmlns="http://www.w3.org/2000/svg">
<g clip-path="url(#clip0)">
<path d="M6.2613 13.2942L2.63321 21.1645H0L3.97457 12.7479C2.10607 11.8279 0.858764 10.1628 0.858764 7.09375C0.858764 2.78125 3.67759 0.625 7.03097 0.625H10.4438V21.1645H8.15949V13.2942H6.2613ZM8.15949 2.49375H6.94188C5.10804 2.49135 3.32369 3.6701 3.32369 7.09375C3.32369 10.3976 4.9546 11.4614 6.94435 11.4614H8.16197L8.15949 2.49375Z" fill="#FF0000"/>
<path d="M21.4567 6.68651V21.1645H19.1725V14.6718H15.73V21.1645H13.416V6.68651H15.73V12.8438H19.1725V6.68651H21.4567ZM33.3557 24.0084H31.2793V21.1645H24.8695V24.0084H22.7931V19.3269H23.7138C25.0774 16.2531 25.2259 11.7729 25.2259 7.92276V6.68651H32.1702V19.3269H33.3581L33.3557 24.0084ZM29.8909 8.49536H27.3023V8.75411C27.3023 11.7992 27.1538 16.2507 25.9089 19.3245H29.886L29.8909 8.49536ZM39.7432 21.3658C36.6571 21.3658 34.7589 18.9819 34.7589 14.5305C34.7589 9.87536 36.0953 6.48526 39.2705 6.48526C41.7626 6.48526 43.396 8.29411 43.396 13.208V14.4442H37.1545C37.1545 17.7193 38.1049 19.4419 39.9436 19.4419C41.0029 19.4136 42.0279 19.0726 42.8813 18.4644L43.4158 20.187C42.3617 20.9708 41.0647 21.3863 39.7358 21.3658H39.7432ZM37.1842 12.6042H41.0128C41.0128 10.1341 40.597 8.32286 39.2631 8.32286C37.8376 8.32286 37.3327 10.0191 37.1842 12.6042ZM48.0734 13.9531V21.1645H45.7595V6.68651H48.0734V13.3805L51.6644 6.68651H54.0081L50.2958 13.4955L54.5402 21.1621H52.0208L48.0734 13.9531ZM54.852 13.9267C54.852 9.38661 56.6636 6.48526 60.163 6.48526C61.1407 6.45043 62.1053 6.71174 62.9224 7.23276L62.5957 9.35786C61.9721 8.84036 61.0836 8.35161 60.1209 8.35161C58.4578 8.35161 57.2724 10.1605 57.2724 13.8093C57.2724 17.4582 58.1633 19.497 60.0318 19.497C60.9567 19.5085 61.8539 19.1915 62.5536 18.6058L63.0882 20.2829C62.2295 21.015 61.1163 21.4053 59.9724 21.3754C56.7675 21.3658 54.852 18.8669 54.852 13.9267Z" fill="white"/>
<path d="M78.8281 21.1645H69.7479L69.5401 24.5833H68.3818V19.9881H69.0055C70.0449 19.1544 70.5473 16.8568 70.8443 13.9267C71.1413 10.8816 71.2304 6.34146 71.3195 0.625H78.7439V19.9881H80.1991V24.5833H79.0409L78.8281 21.1645ZM77.2566 1.80135H72.6559C72.5668 7.00031 72.4084 10.9654 72.1807 13.9243C71.9134 16.9981 71.4382 19.037 70.6389 19.9857H77.2566V1.80135Z" fill="white"/>
<path d="M86.3392 20.2708C86.9336 20.2587 87.5168 20.1122 88.0423 19.8431C88.5679 19.5739 89.0211 19.1896 89.3659 18.7207L89.8114 19.8108C89.4007 20.3301 88.87 20.7488 88.2618 21.0334C87.6536 21.3181 86.9849 21.4606 86.3095 21.4495C83.1343 21.4495 81.6791 18.6632 81.6791 13.9242C81.6791 9.18528 83.5203 6.39893 86.0348 6.39893C88.616 6.39893 90.2766 9.01278 89.8039 14.1566H83.0452C83.1046 18.1146 84.1737 20.2708 86.3392 20.2708ZM83.065 13.0833H88.5096C88.7571 9.23559 87.5593 7.51059 86.0348 7.51059C84.4707 7.52018 83.1937 9.47278 83.065 13.0833Z" fill="white"/>
<path d="M98.9532 14.1831H93.8477V21.1645H92.4543V6.68652H93.8477V13.0834H98.9532V6.68652H100.347V21.1645H98.9532V14.1831Z" fill="white"/>
<path d="M103.646 6.68652H105.039V12.058H106.138C108.986 12.058 110.825 13.5506 110.825 16.5693C110.825 19.6432 108.867 21.1645 106.049 21.1645H103.646V6.68652ZM105.039 13.1217V20.1008H105.93C108.036 20.1008 109.461 19.0969 109.461 16.5957C109.461 14.1543 108.224 13.1193 106.078 13.1193L105.039 13.1217Z" fill="white"/>
<path d="M114.594 7.81256V21.1645H113.231V6.68652H119.551V7.81256H114.594Z" fill="white"/>
<path d="M128.664 11.0829C128.669 10.4209 128.708 9.75962 128.782 9.10152H128.693C128.477 9.74307 128.209 10.3671 127.891 10.9679L123.026 21.1645H121.838V6.68652H123.145V16.749C123.145 17.5253 123.085 18.1554 123.026 18.7879H123.115C123.339 18.1327 123.607 17.4924 123.917 16.8712L128.782 6.68652H129.998V21.1645H128.664V11.0829Z" fill="white"/>
</g>
<defs>
<clipPath id="clip0">
<rect width="130" height="23.9583" fill="white" transform="translate(0 0.625)"/>
</clipPath>
</defs>
</svg>
