<svg width="512" height="512" viewBox="0 0 512 512" fill="none" xmlns="http://www.w3.org/2000/svg">
<path d="M105.705 270.533H45.586C37.286 270.533 30.556 263.804 30.556 255.503V15.031C30.556 6.73098 37.285 0.000991821 45.586 0.000991821H105.704C114.004 0.000991821 120.734 6.72998 120.734 15.031V255.504C120.734 263.804 114.006 270.533 105.705 270.533Z" fill="#38393B"/>
<path d="M481.145 230.693C478.494 254.008 456.715 270.533 433.25 270.533H316.075C326.033 288.364 331.378 338.797 331.141 359.399C330.748 393.501 302.507 420.829 268.404 420.829H256.002C247.695 420.829 240.972 414.107 240.972 405.799C240.972 371.044 227.439 308.312 201.916 282.788C184.737 265.609 170.051 259.384 150.794 249.76V24.242C180.277 14.415 217.711 0 274.768 0H373.084C405.479 0 430.709 30.003 418.156 61.703C437.281 66.913 451.385 84.453 451.385 105.207C451.385 111.064 450.255 116.67 448.215 121.822C480.444 130.603 492.307 170.398 469.938 195.385C478.156 204.566 482.688 217.124 481.145 230.693Z" fill="#38393B"/>
</svg>
