<svg width="60" height="14" viewBox="0 0 60 14" fill="none" xmlns="http://www.w3.org/2000/svg">
<g clip-path="url(#clip0)">
<path fill-rule="evenodd" clip-rule="evenodd" d="M31.1519 0.559692H36.3123V4.25372L39.8854 0.559692H45.525L40.8504 5.48507L43.9399 10.0936L48.2843 0.559692H53.7929L59.2992 12.6358H54.1388L53.5623 11.2231H48.5149L47.9384 12.6358H40.7172L37.9534 8.53096L36.3123 10.2582V12.6358H31.1519V0.559692ZM52.1552 7.77648L51.0448 5.0373L49.9254 7.77648H52.1552ZM24.8026 12.6358H24.7802L20.5623 7.34439V12.6358H15.4019V0.559692H20.5623L24.8026 5.8791V0.559692H29.9631V12.6358H24.8026ZM5.72014 5.40895H12.281V7.78768H5.72014V9.6638H14.1157V12.6358H0.559692V0.559692H14.1134V3.86081H5.7179V5.40895H5.72014Z" fill="white"/>
</g>
<defs>
<clipPath id="clip0">
<rect width="58.7396" height="12.0761" fill="white" transform="translate(0.559692 0.559692)"/>
</clipPath>
</defs>
</svg>
