<svg width="94" height="19" viewBox="0 0 94 19" fill="none" xmlns="http://www.w3.org/2000/svg">
<path d="M6.89487 4.13123V7.77005H3.24449V4.13123H0V14.0941H3.24449V10.2991H6.89487V14.0941H10.1394V4.13123H6.89487Z" fill="white"/>
<path d="M17.9787 4.13123V10.5623C17.9787 11.5456 17.6789 11.6453 16.4002 11.6453C15.0857 11.6453 14.5525 11.6081 14.5525 10.6783V4.13271H11.308V10.726C11.308 13.1211 11.7895 14.1713 16.4002 14.1713C19.451 14.1713 21.2232 13.6075 21.2232 10.726V4.13123H17.9787Z" fill="white"/>
<path d="M30.617 4.13105C30.617 4.13105 30.7748 10.6767 30.7908 11.3432L27.6709 4.13105H22.4089V14.0984H25.6574C25.6574 14.0984 25.4996 7.56159 25.4836 6.89066L28.5583 14.0939H33.8641V4.12659L30.617 4.13105Z" fill="white"/>
<path d="M34.8099 4.13123V6.66174H37.6817V14.0941H40.9275V6.66174H43.9478V4.13123H34.8099Z" fill="white"/>
<path d="M44.4798 7.15115C44.4798 9.95688 46.0583 10.0506 48.6753 10.2038L49.7418 10.2648C51.0868 10.3392 51.0868 10.3526 51.0868 11.0206C51.0868 11.6588 50.8215 11.7644 49.3452 11.7644C47.8171 11.7644 47.5863 11.6365 47.5863 10.7959V10.6472H44.4639V10.7959C44.4639 14.164 46.6193 14.164 49.3492 14.164C51.7076 14.164 53.1216 13.8114 53.7954 13.0542C54.3366 12.4472 54.3366 11.6707 54.3353 10.9179V10.8599C54.3353 8.52575 53.4267 8.13896 50.0734 7.93068L48.8319 7.85332C47.971 7.79679 47.7256 7.75365 47.7256 7.14371C47.7256 6.7465 47.7256 6.45938 49.3492 6.45938C50.6 6.45938 50.8958 6.49063 50.8958 7.31033V7.45909H54.0222V6.90568C54.0222 4.05383 51.7514 4.05383 49.3492 4.05383C46.3196 4.05383 44.4798 4.26359 44.4798 7.15115Z" fill="white"/>
<path d="M64.3327 4.13105C64.3327 4.13105 62.4478 9.74547 62.3271 10.1159C62.2011 9.74845 60.2207 4.13105 60.2207 4.13105H55.269V14.0984H58.5202C58.5202 14.0984 58.2721 7.92607 58.231 7.03794L60.9608 14.0939H63.7159C63.7159 14.0939 66.1565 7.73565 66.4377 6.99926C66.4032 7.83235 66.1512 14.0939 66.1512 14.0939H69.4023V4.12659L64.3327 4.13105Z" fill="white"/>
<path d="M78.3148 4.13105H73.594L70.1306 14.0984H73.5144C73.5144 14.0984 74.0158 12.5943 74.0688 12.4292H77.9155L78.4992 14.0939H81.8232L78.3135 4.12659L78.3148 4.13105ZM74.4429 10.5458L75.8953 6.06649H76.1023L77.5879 10.5458H74.4429Z" fill="white"/>
<path d="M90.7515 4.13123L90.9253 11.3434L87.8108 4.13123H82.5448V14.0986H85.7933C85.7933 14.0986 85.6341 7.56177 85.6182 6.89084C85.8596 7.45317 88.6929 14.0986 88.6929 14.0986H93.9987V4.13123H90.7515Z" fill="white"/>
<path d="M0 2.06406H94V0H0V2.06406Z" fill="white"/>
<path d="M0 18.2267H94V16.1617H0V18.2267Z" fill="white"/>
</svg>
