<svg width="150" height="59" viewBox="0 0 150 59" fill="none" xmlns="http://www.w3.org/2000/svg">
<g clip-path="url(#clip0)">
<path d="M75.0097 0.676497C75.0399 0.448638 75.0833 0.222751 75.1397 0C75.6533 4.20932 76.2415 8.40883 76.7648 12.6181C75.5882 12.6181 74.4117 12.6181 73.2351 12.6181C73.8201 8.63433 74.4246 4.65378 75.0129 0.669961L75.0097 0.676497ZM85.0855 11.9841C85.8415 11.8404 86.6237 11.975 87.2892 12.3632C87.6598 12.592 88.0758 12.8861 88.1408 13.3437C88.3293 14.7511 88.5016 16.1608 88.6576 17.5726C88.7096 18.1445 88.7974 18.7197 88.7974 19.2949C88.5157 18.6585 88.0933 18.0951 87.5622 17.6477C87.4546 17.5474 87.3163 17.4867 87.17 17.4754C87.0236 17.4641 86.8778 17.503 86.7562 17.5857C86.5528 17.8286 86.4381 18.1342 86.4312 18.4517C86.4257 18.8688 86.5229 19.2808 86.7139 19.6511C86.9805 20.3276 87.2925 20.9845 87.5395 21.6675C86.7103 21.0171 85.9904 20.237 85.4073 19.357C84.671 18.1863 84.0619 16.9394 83.5904 15.6379C83.3409 14.9774 83.2758 14.2609 83.4019 13.5659C83.5176 13.1757 83.7361 12.8242 84.0341 12.5486C84.3322 12.2731 84.6989 12.0837 85.0953 12.0005L85.0855 11.9841ZM62.6294 12.4188C63.0561 12.1466 63.5439 11.9864 64.0481 11.9527C64.5523 11.919 65.0569 12.013 65.5157 12.226C65.8305 12.3963 66.0993 12.6413 66.2987 12.9397C66.4981 13.2381 66.622 13.581 66.6598 13.9385C66.7248 14.8633 66.39 15.7523 66.0454 16.5922C65.6197 17.5453 65.1333 18.47 64.5893 19.3602C64.0002 20.2383 63.2812 21.0207 62.4572 21.6806C62.7562 20.8015 63.195 19.9812 63.4875 19.0988C63.5628 18.8694 63.5884 18.6265 63.5626 18.3864C63.5368 18.1463 63.4602 17.9145 63.338 17.7066C63.2894 17.6415 63.2281 17.5871 63.1578 17.5468C63.0875 17.5065 63.0098 17.4811 62.9294 17.4723C62.8489 17.4634 62.7676 17.4712 62.6902 17.4952C62.6129 17.5192 62.5413 17.5589 62.4799 17.6118C61.9213 18.0744 61.4763 18.6605 61.1798 19.3243C61.3228 17.3634 61.5893 15.4189 61.8298 13.4711C61.8591 12.994 62.2556 12.6541 62.6294 12.4188ZM70.7746 13.1868C73.5915 13.1868 76.4084 13.1868 79.2253 13.1868C79.209 14.5561 79.2513 15.9255 79.2025 17.2948C76.3911 17.2719 73.5828 17.3144 70.7713 17.2752C70.7941 15.9124 70.7713 14.5496 70.7713 13.1868H70.7746ZM67.0725 13.2848C67.5828 14.1901 68.1549 15.1378 68.1841 16.2065C68.1729 17.1396 67.8527 18.0424 67.2741 18.772C66.6919 19.4523 66.241 20.2359 65.9447 21.0825C65.9426 21.611 66.0506 22.1341 66.2616 22.6182C66.4726 23.1022 66.7821 23.5365 67.17 23.8931C67.196 26.2069 67.17 28.5273 67.17 30.8411C65.9187 30.9064 64.6121 30.9228 63.4322 30.4489C62.2524 29.975 61.5438 28.8998 61.157 27.7756C60.9344 27.1741 60.833 26.5341 60.8586 25.8928C60.8843 25.2515 61.0366 24.6217 61.3066 24.0402C61.9859 22.8604 63.0389 21.9682 63.9068 20.9387C64.6016 20.151 65.228 19.3047 65.7789 18.4092C66.3607 17.3079 66.9165 16.151 67.0498 14.8927C67.1034 14.3584 67.1099 13.8203 67.0693 13.2848H67.0725ZM82.9144 13.2848C82.8921 13.7837 82.8976 14.2834 82.9306 14.7816C83.0543 15.7847 83.3606 16.7562 83.8342 17.6477C84.7508 19.6086 86.3076 21.1479 87.7345 22.7329C88.1998 23.2205 88.581 23.7827 88.8624 24.3964C89.0957 25.098 89.1776 25.8417 89.1025 26.5777C89.0274 27.3137 88.7971 28.0251 88.4268 28.6645C87.9774 29.5406 87.2107 30.2097 86.2849 30.5339C85.1522 30.8522 83.9685 30.9444 82.8006 30.8051C82.8266 28.4946 82.8006 26.184 82.8006 23.8735C83.4395 23.3311 83.8554 22.5694 83.9674 21.7361C84.0446 21.4547 84.0524 21.1585 83.9902 20.8734C83.6933 20.1455 83.289 19.4668 82.7908 18.8602C82.4245 18.43 82.152 17.9274 81.9908 17.3847C81.8295 16.8421 81.7832 16.2715 81.8548 15.7098C82.001 14.8241 82.4821 14.0496 82.9046 13.2718L82.9144 13.2848ZM69.0585 18.0987C73.0173 18.0987 76.9729 18.0987 80.9317 18.0987C80.9154 19.857 80.9317 21.612 80.9317 23.3669C76.9729 23.3996 73.0173 23.3669 69.0585 23.3669C69.0585 21.6054 69.0585 19.8406 69.0585 18.0791V18.0987ZM67.5828 23.8571C72.5102 23.8571 77.4409 23.8571 82.3716 23.8571C82.4301 26.2036 82.3716 28.5534 82.3943 30.8999C77.4582 30.8999 72.5222 30.8999 67.5861 30.8999C67.5861 28.5534 67.5861 26.2069 67.5861 23.8604L67.5828 23.8571ZM10.2545 55.5577C12.3889 53.403 14.5287 51.2525 16.6738 49.1065C17.0996 49.1326 17.5287 49.0771 17.9512 49.1359C18.403 49.5281 18.7898 49.9856 19.2253 50.3941C19.2253 52.9727 19.2253 55.5577 19.2253 58.1363C18.7995 58.1363 18.3705 58.1363 17.9447 58.1363C17.9447 57.2833 17.9447 56.427 17.9447 55.5741C16.3391 55.5185 14.7302 55.5741 13.1245 55.5512C12.7203 55.537 12.3155 55.5457 11.9122 55.5773C11.7529 55.7277 11.5059 55.8715 11.5287 56.1264C11.5287 56.78 11.5287 57.463 11.5287 58.133C11.1061 58.133 10.6836 58.133 10.2643 58.133C10.235 57.2735 10.2643 56.4107 10.248 55.5479L10.2545 55.5577ZM17.0021 50.4562C15.741 51.721 14.4766 52.9825 13.2318 54.2603C14.7984 54.2832 16.3683 54.2603 17.9382 54.2766C17.9577 53.1034 17.9382 51.9334 17.9382 50.7602C17.7204 50.4824 17.3466 50.2536 17.0021 50.4562ZM37.1538 49.1294C37.5893 49.0934 38.0249 49.1294 38.4539 49.1065C38.9057 49.5281 39.3282 49.9758 39.754 50.4137C39.754 52.989 39.754 55.5643 39.754 58.1395C39.3315 58.1395 38.9089 58.1395 38.4864 58.1395C38.4637 57.28 38.4864 56.4172 38.4864 55.5577C36.4875 55.5577 34.4918 55.5577 32.4929 55.5577C32.3531 55.695 32.2134 55.8388 32.0801 55.9826C32.0801 56.7048 32.0801 57.4271 32.0801 58.1493H30.767C30.767 57.2931 30.767 56.4369 30.767 55.5839C32.8602 53.4106 35.0346 51.3125 37.1278 49.1424L37.1538 49.1294ZM37.5568 50.4072C36.3087 51.7144 35.0086 52.9498 33.7735 54.2603C35.3401 54.2799 36.9035 54.2603 38.4702 54.2603C38.4702 53.1557 38.4702 52.0511 38.4702 50.9464C38.5059 50.6883 38.2459 50.5575 38.1029 50.3941L37.5568 50.4072ZM71.7984 49.1228C74.3044 49.0967 76.8136 49.1228 79.3228 49.1228C79.5211 49.0869 79.6478 49.2699 79.7648 49.3876C80.0899 49.734 80.4344 50.0412 80.7399 50.3941C80.7887 51.2602 80.7399 52.1328 80.7562 53.0086C80.3239 53.4237 79.9176 53.8649 79.4853 54.2766C77.3499 54.3093 75.2112 54.2766 73.0725 54.2766C73.0725 55.5675 73.0725 56.8552 73.0725 58.1461C72.6468 58.1461 72.221 58.1461 71.7952 58.1461C71.7952 55.1427 71.7952 52.1393 71.7952 49.1359L71.7984 49.1228ZM73.0985 50.4105C73.0985 51.2667 73.079 52.123 73.0985 52.9825C75.0487 52.9825 76.9989 52.9825 78.949 52.9825C79.183 52.9825 79.3228 52.7668 79.4691 52.6197C79.5211 52.0707 79.4691 51.5118 79.4918 50.9595C79.5178 50.7079 79.2708 50.5804 79.131 50.417C77.1159 50.4039 75.1007 50.4039 73.0855 50.417L73.0985 50.4105ZM82.0725 49.1032C84.637 49.1032 87.1982 49.1032 89.7627 49.1032C89.7627 49.5281 89.7627 49.9497 89.7627 50.3745C87.6273 50.417 85.4886 50.3745 83.3531 50.3941C83.3531 52.9694 83.3531 55.5457 83.3531 58.1232C82.9241 58.1232 82.5016 58.1232 82.0758 58.1232C82.0595 55.1165 82.0758 52.1066 82.0758 49.1L82.0725 49.1032ZM92.3401 49.1032C94.9014 49.1032 97.4626 49.1032 100.024 49.1032C100.024 49.5281 100.024 49.9529 100.024 50.3745C97.6088 50.4039 95.1939 50.3745 92.7822 50.3909C92.6424 50.4293 92.5204 50.5157 92.4372 50.635C92.3541 50.7544 92.3152 50.8993 92.3271 51.0445V56.2113C92.2784 56.4826 92.5384 56.6329 92.6879 56.816C95.1321 56.8421 97.5633 56.816 100.017 56.816C100.017 57.2473 100.017 57.6787 100.017 58.1232C97.4528 58.1232 94.8884 58.1232 92.3239 58.1232C91.9014 57.6951 91.4723 57.2702 91.0465 56.8454C91.0465 54.7015 91.0465 52.5543 91.0465 50.4137C91.4658 49.9627 91.9046 49.5281 92.3466 49.1065L92.3401 49.1032ZM101.304 49.1032C101.727 49.1032 102.149 49.1032 102.575 49.1032C102.591 51.538 102.575 53.976 102.575 56.4107C102.682 56.5654 102.806 56.7069 102.946 56.8323C103.151 56.8029 103.417 56.914 103.57 56.7277C104.941 55.3518 106.31 53.9662 107.681 52.5903C108.104 52.136 108.575 51.7275 108.982 51.2569C108.982 50.5379 108.982 49.8222 108.982 49.1065C109.407 49.1065 109.83 49.1065 110.252 49.1065C110.278 52.1131 110.252 55.1231 110.252 58.1297C109.83 58.1297 109.404 58.1297 108.982 58.1297C108.956 56.4238 108.982 54.7146 108.982 53.0086C108.419 53.4858 107.932 54.0479 107.399 54.561L104.659 57.2931C104.388 57.5896 104.097 57.867 103.788 58.1232C103.375 58.1395 102.965 58.1232 102.556 58.1232C102.185 57.7637 101.831 57.3911 101.46 57.0349C101.366 56.9369 101.236 56.8421 101.265 56.6885C101.265 54.1557 101.265 51.6262 101.265 49.0934L101.304 49.1032ZM111.546 49.1032C111.975 49.1032 112.407 49.1032 112.846 49.1032C112.846 50.3876 112.846 51.6752 112.846 52.9596C114.98 52.9596 117.117 52.9596 119.256 52.9596C119.256 51.672 119.256 50.3843 119.256 49.0967H120.526C120.526 52.1066 120.546 55.1165 120.526 58.1265C120.104 58.1265 119.685 58.1265 119.262 58.1265C119.262 56.8388 119.262 55.5512 119.262 54.2668C117.13 54.2668 114.998 54.2668 112.866 54.2668C112.843 55.5577 112.866 56.8486 112.866 58.1395C112.443 58.1395 112.024 58.1395 111.604 58.1395C111.556 55.1329 111.604 52.123 111.578 49.1163L111.546 49.1032ZM121.154 49.1032C124.144 49.0869 127.138 49.1032 130.131 49.1032C130.131 49.5281 130.131 49.9497 130.131 50.3745C128.831 50.4235 127.563 50.3745 126.279 50.4007C126.279 52.9759 126.279 55.5512 126.279 58.1265H124.973C124.973 55.5468 124.973 52.9705 124.973 50.3974C123.69 50.3974 122.407 50.3974 121.125 50.3974C121.125 49.966 121.125 49.5379 121.125 49.1098L121.154 49.1032Z" fill="white"/>
<path d="M76.0564 39.4525H76.7064C76.7064 40.9983 76.7064 42.5441 76.7064 44.0932H76.0564C76.0564 43.4396 76.0564 42.7696 76.0564 42.1062C74.9578 42.1062 73.8624 42.1062 72.7638 42.1062C72.7638 42.7598 72.7638 43.4134 72.7638 44.0899C72.5428 44.0899 72.325 44.0899 72.1138 44.1095C72.1138 42.5605 72.1138 41.0114 72.1138 39.4623H72.7638C72.7638 40.1159 72.7638 40.7695 72.7638 41.4428C73.8592 41.4428 74.9545 41.4428 76.0499 41.4428C76.0499 40.7891 76.0499 40.1159 76.0499 39.4492L76.0564 39.4525Z" fill="white"/>
<path d="M0.0194092 40.1356C0.237177 39.9003 0.458196 39.6715 0.695466 39.4558C1.78756 39.4558 2.87965 39.4558 3.97174 39.4558C4.20077 39.6701 4.41779 39.8971 4.62179 40.1356C4.64779 41.2043 4.62179 42.2729 4.62179 43.3416C4.46007 43.628 4.23825 43.8756 3.97174 44.0671C3.4777 44.1325 2.97391 44.0671 2.47661 44.0933C1.87856 44.0769 1.28051 44.1292 0.688965 44.0704C0.452954 43.8662 0.229366 43.6479 0.0194092 43.4168C0.0194092 42.3187 0.0194092 41.2173 0.0194092 40.1192V40.1356ZM0.669463 40.3284C0.669463 41.2402 0.669463 42.1553 0.669463 43.0671C0.649962 43.2338 0.766972 43.4429 0.955487 43.4266C1.90132 43.4266 2.84714 43.4266 3.79297 43.4266C3.88073 43.322 3.98149 43.2141 3.95549 43.0671C3.95549 42.1553 3.95549 41.2402 3.95549 40.3284L3.77672 40.1225C2.80164 40.1225 1.82656 40.1225 0.851478 40.1225L0.659713 40.3284H0.669463ZM15.1559 39.4624C16.456 39.4624 17.7854 39.4624 19.0985 39.4624C19.3314 39.6762 19.5486 39.9067 19.7486 40.1519C19.7739 40.5876 19.7674 41.0245 19.7291 41.4592C19.5344 41.6912 19.3166 41.9026 19.079 42.0899C17.9902 42.1226 16.8948 42.0899 15.8027 42.1063C15.8027 42.7599 15.8027 43.4135 15.8027 44.0671L15.1527 44.09C15.1527 42.5409 15.1527 40.9886 15.1527 39.4427L15.1559 39.4624ZM15.806 40.116C15.806 40.5572 15.806 40.9984 15.806 41.4232C16.8591 41.4232 17.9121 41.4461 18.962 41.4003C19.1993 41.0931 19.053 40.6814 19.0985 40.3251C19.0335 40.25 18.9717 40.1715 18.9067 40.0996C17.8699 40.0996 16.8331 40.0996 15.7962 40.0996L15.806 40.116ZM50.3791 39.4624C50.5969 39.4624 50.8114 39.4624 51.0292 39.4624C51.0584 40.116 51.0292 40.7957 51.0292 41.4624H52.1505C52.8006 40.8088 53.4593 40.1476 54.1267 39.4787H54.9652C54.3152 40.1519 53.6651 40.8055 52.9956 41.4624C53.4344 41.4853 53.8764 41.4363 54.2957 41.4853C54.5325 41.682 54.7502 41.9008 54.9457 42.1389C54.9977 42.7926 54.9457 43.4462 54.9685 44.1194H54.3184C54.3184 43.5508 54.3184 42.9788 54.2989 42.4069C54.2891 42.3212 54.246 42.243 54.1791 42.1891C54.1121 42.1352 54.0267 42.1101 53.9414 42.1193H51.0162C51.0162 42.7729 51.0162 43.4266 51.0162 44.1063C50.7984 44.1063 50.5774 44.1063 50.3661 44.1063C50.3661 42.5605 50.3661 41.0147 50.3661 39.4689L50.3791 39.4624ZM66.8157 40.1356C67.0299 39.8979 67.2566 39.6721 67.495 39.4591C68.5871 39.4591 69.6825 39.4591 70.7746 39.4591C71.0085 39.6695 71.2259 39.8978 71.4246 40.1421C71.4636 41.2075 71.4246 42.2762 71.4246 43.3416C71.3109 43.6455 71.0053 43.8449 70.7746 44.0671C69.78 44.1357 68.7789 44.0671 67.7811 44.0998C67.3195 44.175 67.131 43.6684 66.806 43.4462C66.806 42.3448 66.806 41.2435 66.806 40.1454L66.8157 40.1356ZM67.4658 40.3284C67.4658 41.2402 67.4658 42.1553 67.4658 43.0703C67.443 43.2043 67.5503 43.3056 67.6023 43.4233C68.5774 43.4462 69.5817 43.4233 70.573 43.4233C70.6315 43.3579 70.6933 43.2926 70.7583 43.2305C70.7583 42.3252 70.7583 41.42 70.7583 40.518C70.7722 40.4649 70.7726 40.4093 70.7595 40.356C70.7464 40.3028 70.7202 40.2538 70.6833 40.2134C70.6464 40.173 70.6 40.1427 70.5483 40.1251C70.4967 40.1075 70.4415 40.1032 70.3878 40.1127H67.6608L67.4625 40.3186L67.4658 40.3284Z" fill="white"/>
<path d="M4.95006 40.1224C4.95006 39.9002 4.95006 39.6812 4.95006 39.4688C6.48419 39.4688 8.01506 39.4688 9.54919 39.4688C9.54919 39.691 9.54919 39.91 9.54919 40.1224C8.89914 40.1224 8.2415 40.1224 7.57628 40.1224C7.57628 41.4296 7.57628 42.7598 7.57628 44.0801H7.49827C7.45927 42.7728 7.49827 41.4656 7.48202 40.1583L6.92297 40.1289C6.27292 40.0962 5.60011 40.1289 4.94031 40.1289L4.95006 40.1224ZM31.3098 40.1224C31.5237 39.8895 31.7528 39.6711 31.9956 39.4688C32.9967 39.4688 33.9977 39.4688 35.0021 39.4688C35.3661 39.4165 35.5449 39.8119 35.7951 40.0113C35.9674 40.1289 35.9024 40.3381 35.9154 40.5342C35.9154 41.5146 35.9154 42.4623 35.9154 43.4232C35.7272 43.6604 35.5172 43.8793 35.2881 44.0768C34.638 44.1454 33.988 44.0768 33.3379 44.1029C32.8804 44.1243 32.4219 44.1112 31.9663 44.0637C31.737 43.8664 31.527 43.6476 31.339 43.4101C31.339 42.312 31.339 41.2139 31.339 40.1159L31.3098 40.1224ZM31.9598 40.4492C31.9598 41.3839 31.9598 42.3186 31.9598 43.2532L32.1256 43.4395C33.1007 43.4591 34.105 43.4591 35.0898 43.4395L35.2458 43.2369C35.2458 42.4656 35.2458 41.6943 35.2458 40.9231C35.2458 40.6453 35.3303 40.2695 35.0151 40.1322C34.105 40.1551 33.1917 40.1322 32.2783 40.1322C32.2368 40.129 32.195 40.1346 32.1557 40.1484C32.1163 40.1623 32.0803 40.1842 32.0497 40.2127C32.0192 40.2412 31.9949 40.2758 31.9783 40.3143C31.9617 40.3527 31.9532 40.3942 31.9533 40.4361L31.9598 40.4492ZM36.5622 40.1583C36.7709 39.9237 36.9969 39.7052 37.2383 39.5047C38.5384 39.4818 39.8645 39.5047 41.1776 39.5047C41.1776 39.7269 41.1776 39.9459 41.1776 40.1583C39.9587 40.1583 38.7366 40.1583 37.5178 40.1583C37.274 40.1583 37.1928 40.4623 37.2285 40.6584C37.248 40.9165 37.157 41.2466 37.3748 41.446C37.515 41.4805 37.6596 41.4937 37.8038 41.4852C38.9316 41.4852 40.0595 41.4852 41.1873 41.4852C41.1873 41.7042 41.1873 41.9231 41.1873 42.1388C40.0335 42.1388 38.8796 42.1388 37.7225 42.1388C37.5788 42.1401 37.4362 42.1644 37.3 42.2107C37.2057 42.5772 37.2057 42.9619 37.3 43.3284C37.4495 43.5572 37.781 43.4297 38.0118 43.4657C39.0747 43.4657 40.1407 43.4657 41.2036 43.4657C41.2036 43.6879 41.2036 43.9134 41.2036 44.1389C39.9035 44.1193 38.6261 44.1389 37.339 44.1389C37.014 44.0343 36.8515 43.6879 36.5915 43.4853C36.5915 43.0441 36.5915 42.6029 36.5915 42.178C36.6955 42.0702 36.8027 41.9656 36.9165 41.8512C36.8157 41.735 36.7071 41.6258 36.5915 41.5244C36.572 41.0832 36.5915 40.642 36.5915 40.2008L36.5622 40.1583ZM55.6608 39.4818H56.3108C56.3108 40.7466 56.3108 42.0081 56.3108 43.2696C56.4116 43.3578 56.5091 43.4755 56.6586 43.4526C57.6337 43.4526 58.625 43.4526 59.6099 43.4526C59.6099 42.1257 59.6099 40.7989 59.6099 39.4753H60.2599C60.2599 40.7825 60.2599 42.1094 60.2599 43.4264C60.4679 43.6585 60.689 43.8807 60.91 44.0801C60.91 44.1977 60.91 44.3088 60.91 44.4265H60.2794C60.2242 44.3154 60.1689 44.2075 60.1072 44.0997C58.8591 44.0997 57.611 44.0997 56.3629 44.0997C56.0916 43.9237 55.852 43.7027 55.6543 43.4461C55.6348 42.1388 55.6543 40.8022 55.6543 39.4818H55.6608ZM77.3889 40.1355C77.5904 39.9034 77.8244 39.7008 78.0389 39.4818C79.339 39.4818 80.6554 39.4818 81.9587 39.4818C81.9587 39.7041 81.9587 39.9296 81.9587 40.1355C80.7171 40.1355 79.4755 40.1355 78.2339 40.1355C77.9284 40.2237 78.0162 40.5767 77.9999 40.8152C78.0227 40.9884 77.9479 41.2074 78.0877 41.3447C78.2274 41.4819 78.3737 41.4492 78.5265 41.4525C79.664 41.4525 80.8016 41.4525 81.9392 41.4525C81.9392 41.6747 81.9587 41.897 81.9392 42.1061H78.2534C77.8959 42.2957 78.0649 42.7401 78.0324 43.0669C78.0274 43.1128 78.032 43.1592 78.0461 43.2031C78.0601 43.247 78.0833 43.2874 78.114 43.3217C78.1447 43.3559 78.1822 43.3833 78.2242 43.4019C78.2662 43.4205 78.3116 43.43 78.3574 43.4297C79.5665 43.4297 80.7756 43.4297 81.988 43.4297C81.988 43.6454 81.988 43.8611 81.988 44.0833C80.6879 44.1029 79.3878 44.0833 78.0877 44.0833C77.8152 43.9003 77.5792 43.6675 77.3921 43.397C77.3759 42.982 77.3921 42.5637 77.3921 42.1486C77.478 42.0044 77.5879 41.8761 77.7171 41.7695C77.5871 41.6192 77.3564 41.5015 77.3921 41.2728C77.3753 40.8816 77.3829 40.4897 77.4149 40.0995L77.3889 40.1355ZM93.7897 39.5047C94.7648 39.4688 95.7139 39.5047 96.6792 39.4884C96.8329 39.4729 96.9881 39.4851 97.1375 39.5243C97.3585 39.7106 97.5438 39.9394 97.7616 40.1322C97.7616 41.2433 97.7843 42.3545 97.7616 43.4657C97.5664 43.7246 97.3263 43.946 97.053 44.1193C95.9674 44.1389 94.8818 44.1356 93.8027 44.1193C93.5818 43.9017 93.3724 43.6727 93.1754 43.433C93.1754 42.3349 93.1754 41.2368 93.1754 40.1387C93.3968 39.9422 93.6043 39.7304 93.7962 39.5047H93.7897ZM93.8222 40.3446C93.8222 41.325 93.8222 42.3055 93.8222 43.2859C93.9197 43.3578 94.0107 43.4722 94.1473 43.4526C95.0768 43.4526 96.0097 43.4526 96.9392 43.4526C96.9977 43.384 97.0562 43.3153 97.118 43.25C97.118 42.3153 97.118 41.3839 97.118 40.4525C97.1472 40.2923 96.9912 40.2237 96.897 40.1257C95.9837 40.1518 95.0736 40.1257 94.1603 40.1257C94.014 40.0995 93.9295 40.24 93.8352 40.3152L93.8222 40.3446ZM98.4311 40.1649C98.6456 39.9361 98.8699 39.7106 99.0812 39.4916H103.033C103.033 39.7073 103.033 39.9198 103.033 40.1453C101.782 40.2041 100.524 40.1453 99.2697 40.1812C99.0162 40.2956 99.0747 40.6191 99.0649 40.8348C99.0552 41.0505 99.0129 41.3969 99.2892 41.4623C100.534 41.5015 101.782 41.4623 103.027 41.4885C103.027 41.7009 103.027 41.9198 103.027 42.1421C101.805 42.1421 100.583 42.1421 99.3607 42.1421C99.0649 42.1421 99.0519 42.4885 99.0682 42.7075C99.0844 42.9264 98.9902 43.3088 99.2697 43.4428C100.521 43.4722 101.779 43.4428 103.03 43.4428C103.03 43.6585 103.03 43.8774 103.03 44.0964C101.698 44.1193 100.362 44.1291 99.0292 44.0964C98.8471 43.8644 98.6164 43.6814 98.4376 43.4428C98.3823 43.0049 98.4376 42.5637 98.4149 42.1355C98.5221 42.0179 98.6294 41.897 98.7399 41.7728C98.6099 41.6355 98.3954 41.5179 98.4149 41.2956C98.4149 40.9133 98.4149 40.5309 98.4149 40.1518L98.4311 40.1649ZM112.261 39.4851C113.577 39.4851 114.897 39.4851 116.213 39.4851C116.213 39.7041 116.213 39.9263 116.213 40.1387C115.118 40.1387 114.019 40.1387 112.924 40.1387V41.446C114 41.446 115.072 41.446 116.145 41.446C116.42 41.6275 116.667 41.8476 116.88 42.0996C116.88 42.5375 116.899 42.9787 116.863 43.4068C116.668 43.6454 116.428 43.8382 116.213 44.0605C114.897 44.0801 113.577 44.0605 112.258 44.0605C112.258 42.5114 112.258 40.9623 112.258 39.4132L112.261 39.4851ZM112.911 42.1355C112.911 42.5767 112.911 43.0179 112.911 43.4428C113.951 43.4428 114.988 43.4657 116.028 43.4428C116.353 43.25 116.178 42.8251 116.21 42.5244C116.221 42.4722 116.219 42.4181 116.204 42.3669C116.19 42.3156 116.163 42.2688 116.126 42.2304C116.089 42.1921 116.043 42.1634 115.993 42.1468C115.942 42.1303 115.889 42.1264 115.836 42.1355H112.911ZM124.693 40.1747C124.911 39.9459 125.135 39.7237 125.36 39.5014C126.66 39.5014 127.989 39.5014 129.305 39.5014C129.305 39.7171 129.305 39.9328 129.305 40.1551C128.077 40.1976 126.845 40.1551 125.616 40.1779C125.496 40.1779 125.405 40.2793 125.363 40.3773C125.33 40.6924 125.33 41.01 125.363 41.325L125.548 41.495C126.799 41.495 128.048 41.495 129.299 41.495C129.299 41.714 129.299 41.9329 129.299 42.1486C128.07 42.1486 126.842 42.1486 125.616 42.1486C125.369 42.1486 125.324 42.4297 125.34 42.629C125.356 42.9134 125.259 43.2826 125.538 43.4689C126.79 43.4689 128.048 43.4428 129.302 43.4853C129.302 43.701 129.302 43.9199 129.302 44.1389C128.08 44.1389 126.855 44.1389 125.633 44.1389C125.204 44.1846 124.983 43.7206 124.713 43.4689C124.658 43.0343 124.713 42.5898 124.687 42.1617C124.781 42.0408 124.944 41.946 124.976 41.7924C124.869 41.6421 124.651 41.5309 124.693 41.3152C124.693 40.9361 124.693 40.5538 124.693 40.1747ZM129.975 40.1747C130.179 39.9181 130.41 39.6846 130.664 39.4786C131.964 39.4982 133.264 39.4786 134.564 39.4786C134.564 39.6975 134.564 39.923 134.564 40.1322C133.323 40.1322 132.081 40.1322 130.836 40.1322C130.742 40.2172 130.589 40.2825 130.619 40.4394C130.619 41.3741 130.619 42.312 130.619 43.2467L130.778 43.4428C132.042 43.4722 133.307 43.4199 134.568 43.4722C134.568 43.6814 134.568 43.8905 134.568 44.0997C133.368 44.1454 132.166 44.0997 130.966 44.1225C130.492 44.2108 130.255 43.7238 129.968 43.4395C129.968 42.348 129.968 41.2564 129.968 40.1714L129.975 40.1747ZM139.859 39.4851C140.726 39.4851 141.593 39.4851 142.459 39.4851C142.692 39.6979 142.909 39.9273 143.109 40.1714C143.132 40.6061 143.109 41.0407 143.109 41.4787C143.326 41.4651 143.543 41.4651 143.759 41.4787C144.005 41.6771 144.233 41.8958 144.442 42.1323C144.442 42.5702 144.442 43.0114 144.442 43.4395C144.234 43.6487 144.019 43.8546 143.824 44.0931C142.498 44.1324 141.169 44.1127 139.84 44.0931C139.84 42.5506 139.814 41.0048 139.84 39.459L139.859 39.4851ZM140.509 40.1583C140.509 40.5963 140.509 41.0375 140.509 41.4656C141.159 41.4656 141.835 41.4983 142.495 41.4427C142.469 41.1159 142.495 40.7695 142.472 40.4329C142.472 40.2891 142.336 40.106 142.18 40.1453C141.624 40.1453 141.065 40.1453 140.506 40.1453L140.509 40.1583ZM140.509 42.1192C140.509 42.5604 140.509 43.0016 140.509 43.4264C141.507 43.4264 142.505 43.4264 143.499 43.4264C143.665 43.4559 143.73 43.299 143.824 43.1911C143.802 42.9003 143.824 42.6094 143.798 42.3186C143.727 42.1127 143.493 42.1061 143.311 42.1061C142.385 42.1061 141.458 42.1061 140.529 42.1061L140.509 42.1192ZM145.118 40.1224C145.329 39.8799 145.566 39.6608 145.823 39.4688C146.818 39.4524 147.816 39.4688 148.81 39.4688C149.23 39.4328 149.405 39.9132 149.711 40.1224C149.711 41.2172 149.711 42.3153 149.711 43.4134C149.516 43.6575 149.307 43.8889 149.083 44.1062C147.998 44.1062 146.912 44.1226 145.833 44.1062C145.547 43.9755 145.378 43.6617 145.128 43.4755C145.112 42.3578 145.128 41.2401 145.128 40.1224H145.118ZM145.768 40.4492C145.768 41.3806 145.768 42.3153 145.768 43.2467L145.94 43.4559C146.915 43.4559 147.92 43.4722 148.911 43.4559L149.061 43.2532C149.061 42.2728 149.061 41.2924 149.061 40.3315C148.986 40.2727 148.918 40.2139 148.849 40.1551C147.897 40.1551 146.948 40.1551 145.999 40.1551C145.905 40.2433 145.742 40.3054 145.775 40.4623L145.768 40.4492Z" fill="white"/>
<path d="M9.90034 44.0866C9.9166 42.5441 9.90034 41.0015 9.90034 39.459H10.5504C10.5504 40.1126 10.5504 40.776 10.5504 41.4493C10.9307 41.4493 11.311 41.4493 11.6912 41.4493C12.3413 40.7956 12.9914 40.1093 13.6674 39.4655H14.4897C13.8397 40.1191 13.1896 40.7728 12.5396 41.4264C12.9589 41.4264 13.3781 41.4264 13.7974 41.4264C14.0515 41.6203 14.2856 41.8392 14.4962 42.08C14.4962 42.7336 14.4962 43.3872 14.4962 44.0409C14.2752 44.0409 14.0509 44.0409 13.8462 44.0409C13.8657 43.4493 13.8462 42.8545 13.8462 42.2597C13.7487 42.165 13.6512 42.0212 13.4919 42.0506C12.5168 42.0506 11.5417 42.0506 10.5471 42.0506C10.5471 42.7042 10.5471 43.3578 10.5471 44.0115C10.3309 44.0317 10.1133 44.0317 9.89709 44.0115L9.90034 44.0866ZM21.7768 49.1293C23.9188 49.0803 26.0737 49.1064 28.2189 49.1293C28.6024 49.5313 29.0022 49.9169 29.3922 50.3124C29.532 50.4267 29.4735 50.6392 29.4897 50.783C29.467 51.5248 29.5092 52.2667 29.4702 53.0053C29.2525 53.2046 29.0477 53.4171 28.8429 53.6295C29.0867 53.9563 29.584 54.1589 29.493 54.6295C29.4605 55.3746 29.5352 56.1263 29.4605 56.8649C29.0542 57.3061 28.6154 57.7211 28.1864 58.1427C26.0607 58.1427 23.935 58.1427 21.8093 58.1427C21.3836 57.7211 20.9448 57.3094 20.5417 56.8649C20.5 56.4304 20.4924 55.9933 20.519 55.5577C20.9448 55.5577 21.3705 55.5577 21.7963 55.5577C21.7963 55.8485 21.7963 56.1394 21.7963 56.4302C21.9231 56.5675 22.0531 56.7015 22.1831 56.8355H27.8386C27.9788 56.7132 28.1033 56.5738 28.2091 56.4204C28.2091 55.8453 28.2091 55.2701 28.2091 54.6981C28.1229 54.5216 27.9888 54.3732 27.8223 54.27C26.9708 54.2472 26.1192 54.27 25.2676 54.27C25.2676 53.8452 25.2676 53.4171 25.2676 52.9922C26.1257 52.9628 26.9838 52.9922 27.8418 52.9922C27.9751 52.8615 28.1051 52.7307 28.2319 52.5935C28.2156 51.9922 28.2319 51.3908 28.2319 50.7895L27.8516 50.4202C26.0412 50.4202 24.2308 50.4202 22.4171 50.4202C22.1571 50.3712 21.9914 50.6196 21.8483 50.796C21.8201 51.0947 21.8115 51.3949 21.8223 51.6948C21.3998 51.6948 20.9773 51.6948 20.5515 51.6948C20.5234 51.2595 20.5234 50.8228 20.5515 50.3875C20.948 49.9561 21.3705 49.5411 21.7963 49.1326L21.7768 49.1293ZM51.2795 49.1064C51.7021 49.1064 52.1246 49.1064 52.5439 49.1064C52.5602 50.3941 52.5439 51.685 52.5439 52.9726C54.6858 52.9726 56.8278 52.9726 58.9697 52.9726C59.35 53.3746 59.7498 53.7569 60.1365 54.1524C60.176 54.1859 60.2063 54.229 60.2246 54.2776C60.2428 54.3263 60.2483 54.3788 60.2405 54.4302C60.2405 55.1165 60.2405 55.806 60.2405 56.4956C60.2405 56.6394 60.273 56.8224 60.1528 56.9172C59.7465 57.329 59.35 57.7473 58.9242 58.1362C56.376 58.1362 53.8278 58.1166 51.2795 58.1362C51.247 55.1263 51.2795 52.1131 51.2795 49.1032V49.1064ZM52.5634 54.2504C52.5634 55.1067 52.5309 55.9694 52.5634 56.8257C54.5721 56.8257 56.5775 56.8257 58.5829 56.8257L58.9632 56.427C58.9437 55.8256 58.9632 55.2243 58.9632 54.623C58.8397 54.5053 58.7227 54.3877 58.6122 54.2635C56.597 54.2439 54.5818 54.2635 52.5667 54.2635L52.5634 54.2504ZM62.1485 49.76C62.3658 49.5247 62.6005 49.3062 62.8505 49.1064C64.9653 49.0934 67.0824 49.0934 69.2015 49.1064C69.6663 49.4953 70.0726 49.9627 70.5016 50.3941C70.5016 52.5477 70.5016 54.6981 70.5016 56.8486C70.0661 57.2636 69.6533 57.7048 69.2178 58.1231C67.0986 58.1231 64.9924 58.1231 62.8603 58.1231C62.5013 57.8167 62.1605 57.4893 61.8397 57.1427C61.7194 57.0054 61.5146 56.891 61.5406 56.6852C61.5406 54.611 61.5406 52.5347 61.5406 50.4562C61.7171 50.2043 61.9234 49.9749 62.1549 49.7731L62.1485 49.76ZM63.1625 50.3941C63.0625 50.5212 62.9539 50.6414 62.8375 50.7535C62.8115 52.5706 62.8375 54.3877 62.8375 56.2047C62.779 56.4858 63.0585 56.6329 63.208 56.8191C65.0997 56.8191 66.9913 56.8191 68.883 56.8191L69.26 56.4237C69.26 54.5968 69.26 52.7667 69.26 50.9398C69.286 50.6816 69.0195 50.5542 68.8733 50.3875C66.9816 50.3875 65.0867 50.3712 63.195 50.3875L63.1625 50.3941ZM132.049 49.1064C134.61 49.077 137.174 49.1064 139.736 49.1064C139.736 49.5313 139.736 49.9561 139.736 50.381C137.295 50.4235 134.86 50.381 132.413 50.4039L132.055 50.7503C132.026 51.368 132.055 51.9856 132.055 52.6C132.215 52.734 132.338 52.9791 132.572 52.9693C134.961 52.9693 137.35 52.9693 139.739 52.9693C139.739 53.404 139.755 53.8386 139.739 54.2766C137.382 54.2537 135.029 54.2766 132.673 54.2766C132.403 54.221 132.257 54.4792 132.075 54.6295C132.052 55.2439 132.075 55.8616 132.075 56.476C132.254 56.6361 132.4 56.9074 132.686 56.8551C135.039 56.8551 137.392 56.8551 139.745 56.8551C139.771 57.2898 139.745 57.7244 139.745 58.1623C137.191 58.1623 134.636 58.1623 132.085 58.1623C131.624 57.7448 131.189 57.2984 130.784 56.8257C130.762 55.976 130.784 55.123 130.784 54.2733C130.992 54.0805 131.191 53.8746 131.395 53.6752C131.246 53.3942 130.947 53.2308 130.788 52.9595C130.788 52.1131 130.788 51.2666 130.788 50.4235C131.22 49.9986 131.629 49.5509 132.072 49.1456L132.049 49.1064ZM142.274 49.1064C144.416 49.1064 146.564 49.0835 148.706 49.1064C149.152 49.5084 149.561 49.9496 150.007 50.3712C150.007 51.2209 150.007 52.0739 150.007 52.9268C149.857 53.1817 149.587 53.3386 149.408 53.5805C149.576 53.8268 149.779 54.0471 150.01 54.2341C150.01 55.1034 150.049 55.9792 149.987 56.8486C149.579 57.2965 149.145 57.72 148.687 58.1166C146.564 58.1166 144.442 58.1166 142.32 58.1166C141.897 57.6852 141.471 57.2603 141.049 56.829C141.049 56.4041 141.049 55.9792 141.049 55.5544C141.481 55.5184 141.913 55.5544 142.349 55.5348C142.334 55.8211 142.334 56.108 142.349 56.3943C142.414 56.5642 142.58 56.6721 142.693 56.8159C144.585 56.8388 146.477 56.8159 148.368 56.8159C148.495 56.696 148.616 56.5695 148.729 56.4368C148.775 55.8877 148.729 55.3322 148.729 54.7799C148.749 54.5347 148.492 54.4106 148.362 54.2439C147.507 54.2243 146.642 54.2733 145.794 54.2177C145.768 53.7962 145.794 53.3713 145.794 52.9464C146.597 52.9464 147.403 52.9464 148.206 52.9464C148.446 52.9661 148.56 52.7046 148.726 52.5772C148.745 52.0248 148.726 51.4725 148.726 50.9202C148.752 50.6751 148.502 50.5477 148.372 50.3777C146.477 50.3777 144.579 50.3777 142.684 50.3777C142.554 50.4903 142.437 50.6175 142.336 50.7568C142.31 51.0515 142.31 51.3478 142.336 51.6425C141.904 51.6686 141.471 51.6425 141.036 51.6425C141.036 51.2242 141.036 50.8026 141.036 50.3843C141.439 49.93 141.894 49.5345 142.297 49.077L142.274 49.1064Z" fill="white"/>
<path d="M20.4377 44.0899C20.4377 42.5441 20.4215 40.995 20.4377 39.4492C20.6544 39.4492 20.8711 39.4492 21.0878 39.4492C21.0878 40.1028 21.0878 40.7565 21.0878 41.4297C22.1733 41.4526 23.2589 41.4297 24.338 41.4297C24.5808 41.632 24.8099 41.8504 25.0238 42.0833C25.0238 42.5376 25.0238 42.9918 25.0238 43.4461C24.6988 43.6683 24.5103 44.1716 24.0488 44.0997C22.8429 44.0997 21.6338 44.0997 20.4247 44.0997L20.4377 44.0899ZM21.0878 42.1291C21.0878 42.567 21.0878 43.0049 21.0878 43.4363C22.1376 43.4363 23.1842 43.4363 24.2308 43.4363C24.5038 43.1258 24.3348 42.6846 24.3868 42.3121C24.2893 42.2304 24.2048 42.0964 24.0618 42.116C23.0867 42.116 22.0823 42.116 21.0943 42.116L21.0878 42.1291ZM82.6316 39.4721C83.9512 39.4721 85.2709 39.4721 86.5905 39.4721C86.8156 39.6853 87.0263 39.9135 87.221 40.1551C87.2487 40.597 87.2487 41.0401 87.221 41.482C86.987 41.6748 86.805 41.933 86.5547 42.1062C85.4659 42.1323 84.3738 42.1062 83.2817 42.1062C83.2817 42.7598 83.2817 43.4363 83.2817 44.0997C83.0574 44.0997 82.8332 44.0997 82.6121 44.0997C82.6316 42.5572 82.6121 41.0114 82.6121 39.4688L82.6316 39.4721ZM83.2817 40.1257C83.2817 40.5669 83.2817 41.0081 83.2817 41.433C84.2568 41.433 85.2319 41.433 86.2069 41.433C86.3532 41.4558 86.4605 41.3545 86.571 41.2728C86.571 40.946 86.571 40.6192 86.571 40.3185L86.3987 40.1126C85.3619 40.1126 84.3218 40.1126 83.2849 40.1126L83.2817 40.1257ZM87.8971 39.4721H88.5471C88.5471 40.1257 88.5471 40.7989 88.5471 41.4624H91.8397C91.8397 40.8088 91.8397 40.1323 91.8397 39.4688H92.4897C92.4897 41.0179 92.4897 42.567 92.4897 44.1161C92.2654 44.1161 92.0444 44.1161 91.8397 44.0997C91.8397 43.4461 91.8397 42.7925 91.8397 42.116C90.7411 42.116 89.6425 42.116 88.5471 42.116C88.5471 42.7696 88.5471 43.4461 88.5471 44.1128H87.8971C87.8971 42.567 87.8971 41.0212 87.8971 39.4786V39.4721ZM0 49.1097C0.429036 49.1097 0.861322 49.1097 1.30011 49.1097C1.28386 50.3908 1.30011 51.6752 1.30011 52.9563C1.88516 52.9759 2.47021 52.9563 3.05525 52.9563C3.25027 52.9563 3.48429 52.9988 3.61755 52.819C4.81365 51.6066 6.02275 50.4072 7.2156 49.1947C7.31311 49.0607 7.48862 49.0934 7.62839 49.0868H8.95775C7.98267 50.1555 6.91333 51.1556 5.89599 52.1981C5.64351 52.4344 5.41087 52.6913 5.20043 52.9661C6.04225 52.9661 6.88082 52.9661 7.71939 52.9661C8.13868 53.404 8.57096 53.8289 8.99675 54.2733C8.97725 55.5577 8.99675 56.8453 8.9805 58.133C8.55796 58.133 8.13218 58.133 7.70639 58.133C7.70639 57.0578 7.70639 55.9825 7.70639 54.9073C7.7138 54.8196 7.70208 54.7313 7.67203 54.6487C7.64198 54.566 7.59434 54.4909 7.53243 54.4286C7.47053 54.3664 7.39585 54.3185 7.31361 54.2883C7.23138 54.2581 7.14357 54.2463 7.05634 54.2537C5.13543 54.2537 3.21452 54.2537 1.29361 54.2537C1.29361 55.5413 1.29361 56.829 1.29361 58.1166C0.864572 58.1166 0.438787 58.1166 0.00975081 58.1166C0.00975081 55.11 0.00975081 52.1033 0.00975081 49.0967L0 49.1097Z" fill="white"/>
<path d="M25.3846 39.4591H26.0347C26.0347 41.0016 26.0607 42.5474 26.0119 44.0867C25.8021 44.1047 25.5912 44.1047 25.3814 44.0867C25.3597 42.542 25.3597 40.9951 25.3814 39.446L25.3846 39.4591ZM48.3348 39.5473C48.452 39.4872 48.5801 39.4516 48.7114 39.4426C48.8426 39.4336 48.9744 39.4515 49.0986 39.495C49.3293 39.693 49.5414 39.9118 49.7324 40.1486C49.7551 41.4559 49.7324 42.7631 49.7324 44.0704C49.5114 44.09 49.2904 44.0932 49.0823 44.0965C49.0823 43.652 49.0823 43.2108 49.0823 42.7696C48.0423 42.75 47.0022 42.7696 45.9621 42.7696L45.7833 42.9853C45.7833 43.3546 45.7833 43.7272 45.7833 44.0965C45.5666 44.0965 45.3499 44.0867 45.1333 44.0671C45.1333 43.6259 45.1333 43.188 45.1333 42.7598C46.1961 41.6846 47.2719 40.6225 48.3283 39.544L48.3348 39.5473ZM48.5298 40.2009L46.6641 42.0833C47.4702 42.1062 48.2893 42.0833 49.0791 42.0833C49.0791 41.518 49.0791 40.9559 49.0791 40.3937C49.073 40.3326 49.05 40.2745 49.0126 40.226C48.9752 40.1774 48.9249 40.1405 48.8676 40.1193C48.8103 40.0982 48.7482 40.0937 48.6884 40.1064C48.6287 40.1191 48.5737 40.1484 48.5298 40.1911V40.2009ZM107.639 39.4787C107.783 39.4385 107.933 39.4263 108.081 39.4427C109.056 39.4427 110.012 39.4427 110.977 39.4427C111.172 39.665 111.384 39.8741 111.601 40.0963C111.601 41.1912 111.601 42.2925 111.601 43.3906C111.405 43.6346 111.193 43.866 110.967 44.0834C109.882 44.0834 108.793 44.0834 107.717 44.0834C107.438 43.9364 107.265 43.6357 107.018 43.4298C107.018 42.3121 107.018 41.1944 107.018 40.0767C107.233 39.8806 107.425 39.6551 107.649 39.4689L107.639 39.4787ZM107.665 40.2826C107.665 41.2631 107.665 42.2271 107.665 43.1978C107.72 43.2697 107.776 43.3383 107.837 43.4102C108.813 43.4102 109.817 43.4102 110.808 43.4102L110.958 43.2141C110.958 42.286 110.958 41.3578 110.958 40.4297C110.963 40.3855 110.958 40.3407 110.944 40.2987C110.929 40.2566 110.905 40.2184 110.874 40.187C110.843 40.1555 110.805 40.1316 110.763 40.117C110.721 40.1025 110.677 40.0976 110.633 40.1029C109.719 40.1029 108.806 40.1029 107.893 40.1029L107.678 40.2826H107.665Z" fill="white"/>
<path d="M26.35 40.1225C26.35 39.9003 26.35 39.678 26.3662 39.4689C27.9004 39.4689 29.4345 39.4689 30.9686 39.4689C30.9686 39.6878 30.9686 39.9068 30.9686 40.1225C30.3186 40.1225 29.6522 40.1225 28.9924 40.1225C28.9924 41.4297 28.9924 42.7599 28.9924 44.0802C28.7714 44.0802 28.5504 44.0998 28.3424 44.103C28.3424 42.7729 28.3651 41.4428 28.3424 40.1127C27.6923 40.1127 27.0423 40.1127 26.376 40.1127L26.35 40.1225Z" fill="white"/>
<path d="M61.5731 43.2533C61.5731 41.9886 61.5731 40.7206 61.5731 39.4591H62.2231C62.2231 40.7108 62.2231 41.9624 62.2231 43.2141L62.4019 43.4364C62.5189 43.4168 62.6717 43.4592 62.7627 43.3547C63.6695 42.4363 64.5926 41.5311 65.4831 40.5996C65.5206 40.2196 65.5337 39.8375 65.5221 39.4558H66.1722C66.1722 41.0049 66.1982 42.5572 66.1722 44.1063C65.9609 44.1063 65.7464 44.1063 65.5221 44.1063C65.5221 43.2272 65.5221 42.3481 65.5221 41.469C64.6511 42.3023 63.8223 43.1782 62.9642 44.0246C62.8017 44.1488 62.5742 44.0965 62.3856 44.1031C62.1971 44.1096 62.0379 43.8841 61.8883 43.7501C61.7388 43.6161 61.5373 43.4821 61.5633 43.2533H61.5731Z" fill="white"/>
<path d="M117.54 39.4558H118.19C118.19 40.7141 118.19 41.9755 118.19 43.237C118.248 43.2991 118.31 43.3612 118.368 43.4266C118.869 43.4266 119.369 43.4266 119.87 43.4266C120.013 43.4462 120.097 43.3089 120.195 43.2272C120.179 41.969 120.195 40.7141 120.195 39.4558H120.845C120.874 40.7271 120.845 41.9984 120.845 43.2697C120.943 43.3253 121.021 43.4462 121.151 43.4331C121.71 43.4331 122.272 43.4331 122.834 43.4331C122.834 42.1095 122.834 40.7892 122.834 39.4656H123.484C123.52 40.7925 123.484 42.1193 123.504 43.4462C123.748 43.773 124.212 43.9691 124.18 44.4266C123.965 44.4266 123.754 44.4266 123.53 44.4266C123.458 44.3155 123.387 44.2044 123.312 44.0998C122.555 44.0998 121.801 44.0998 121.037 44.0998C120.796 44.1358 120.653 43.9135 120.488 43.773C120.331 43.9233 120.162 44.1358 119.922 44.0835C119.334 44.0639 118.742 44.1194 118.157 44.0606C117.924 43.8599 117.707 43.6414 117.507 43.407C117.474 42.0834 117.507 40.7565 117.507 39.4297L117.54 39.4558ZM41.0216 49.1065C41.4442 49.1065 41.87 49.1065 42.2957 49.1065C42.3217 50.3942 42.2957 51.6818 42.2957 52.9694C44.4279 52.989 46.5568 52.9694 48.689 52.9694C48.7215 51.6851 48.689 50.3942 48.689 49.1065C49.1213 49.1065 49.5503 49.1065 49.9891 49.1065V58.1232C49.5601 58.1232 49.1311 58.1232 48.689 58.1232C48.689 56.8356 48.689 55.548 48.689 54.2603C46.5536 54.2603 44.4182 54.2603 42.2827 54.2603C42.2827 55.5447 42.2827 56.8323 42.2827 58.1167C41.8569 58.1167 41.4312 58.1167 41.0086 58.1167C40.9826 55.11 41.0086 52.1034 41.0086 49.0935L41.0216 49.1065Z" fill="white"/>
<path d="M134.909 39.4624C136.443 39.4624 137.981 39.4624 139.515 39.4624C139.515 39.6846 139.515 39.9036 139.515 40.116C138.865 40.116 138.192 40.116 137.532 40.116C137.532 41.4232 137.532 42.7533 137.532 44.0704C137.311 44.0704 137.093 44.09 136.882 44.0704C136.882 42.7468 136.882 41.42 136.882 40.0964C136.232 40.0964 135.566 40.0964 134.906 40.0964C134.906 39.8741 134.906 39.6519 134.906 39.4427L134.909 39.4624Z" fill="white"/>
<path d="M6.93277 40.1389L7.49182 40.1683C7.51132 41.4756 7.46906 42.7828 7.50807 44.0901C7.31305 44.0901 7.12129 44.0901 6.92627 44.0901C6.92627 42.7828 6.92627 41.4462 6.92627 40.1259L6.93277 40.1389Z" fill="white"/>
<path d="M15.8256 40.1258C16.8624 40.1258 17.8992 40.1258 18.9361 40.1258C19.0011 40.1977 19.0628 40.2761 19.1278 40.3513C19.0823 40.7075 19.2286 41.1193 18.9913 41.4265C17.9415 41.4722 16.8884 41.4265 15.8353 41.4494C15.8353 41.0082 15.8353 40.567 15.8353 40.1421L15.8256 40.1258ZM140.522 40.1258C141.081 40.1258 141.64 40.1258 142.196 40.1258C142.352 40.1029 142.476 40.2696 142.489 40.4134C142.505 40.7402 142.489 41.0866 142.511 41.4232C141.861 41.4788 141.185 41.4232 140.525 41.4461C140.525 41.0082 140.525 40.567 140.525 40.1388L140.522 40.1258Z" fill="#074AF4"/>
<path d="M48.5297 40.2173C48.5736 40.1747 48.6286 40.1453 48.6884 40.1326C48.7481 40.1199 48.8102 40.1244 48.8675 40.1455C48.9249 40.1667 48.9751 40.2036 49.0125 40.2522C49.0499 40.3007 49.073 40.3589 49.079 40.42C49.079 40.9821 49.079 41.5442 49.079 42.1096C48.2762 42.1096 47.4701 42.1096 46.6641 42.1096L48.5297 40.2271V40.2173ZM83.3076 40.1226C84.3445 40.1226 85.3845 40.1226 86.4214 40.1226L86.5936 40.3284C86.5936 40.6553 86.5936 40.9625 86.5936 41.2827C86.4831 41.3644 86.3759 41.4657 86.2296 41.4429C85.2545 41.4429 84.2794 41.4429 83.3044 41.4429C83.3044 41.0017 83.3044 40.5605 83.3044 40.1356L83.3076 40.1226Z" fill="#074AF4"/>
<path d="M37.5406 50.4005H38.0834C38.2264 50.5639 38.4864 50.6946 38.4507 50.9528C38.4507 52.0574 38.4507 53.1621 38.4507 54.2667C36.884 54.2667 35.3207 54.2667 33.754 54.2667C34.9891 52.9594 36.2892 51.711 37.5373 50.4136L37.5406 50.4005Z" fill="#074AF4"/>
</g>
<defs>
<clipPath id="clip0">
<rect width="150" height="58.1395" fill="white"/>
</clipPath>
</defs>
</svg>
