<svg width="50" height="50" viewBox="0 0 50 50" fill="none" xmlns="http://www.w3.org/2000/svg">
<g clip-path="url(#clip0)">
<path d="M13.556 29.8797C12.6241 29.8797 12.1945 29.4815 11.7791 29.0969L11.7017 29.0252C11.5428 28.881 11.2961 28.8902 11.1496 29.0489C11.0036 29.2076 11.0142 29.4548 11.1729 29.6005L11.2484 29.6699C11.6998 30.0881 12.3181 30.661 13.556 30.661C13.7719 30.661 13.9466 30.4863 13.9466 30.2703C13.9466 30.0544 13.7719 29.8797 13.556 29.8797Z" fill="white" fill-opacity="0.7"/>
<path d="M10.3138 28.778C10.2444 28.5735 10.0235 28.4667 9.81862 28.5331C8.14744 29.0984 5.65036 29.6081 3.60486 29.8003C3.39002 29.8209 3.23249 30.0109 3.25273 30.2261C3.2715 30.4282 3.44195 30.5801 3.64114 30.5801C3.65336 30.5801 3.66558 30.5794 3.6782 30.5785C5.77778 30.3809 8.34624 29.8559 10.069 29.273C10.2733 29.2038 10.3828 28.9825 10.3138 28.778Z" fill="white" fill-opacity="0.7"/>
<path d="M25 29.8798C24.0685 29.8798 23.6393 29.4823 23.2239 29.097C23.0648 28.9506 22.8186 28.9597 22.6719 29.1185C22.5254 29.2763 22.5345 29.5235 22.6928 29.6708C23.1441 30.0888 23.7621 30.661 25 30.661C25.2159 30.661 25.3906 30.4864 25.3906 30.2705C25.3906 30.0546 25.2159 29.8798 25 29.8798Z" fill="white" fill-opacity="0.7"/>
<path d="M21.7826 28.778C21.7133 28.5735 21.4928 28.4667 21.2875 28.5331C19.6277 29.0947 17.1272 29.6036 15.0657 29.7981C14.8509 29.8187 14.693 30.0095 14.7136 30.2238C14.7327 30.4259 14.9027 30.5778 15.1019 30.5778C15.114 30.5778 15.1267 30.577 15.139 30.5761C17.255 30.3755 19.8265 29.8521 21.5377 29.273C21.7422 29.2038 21.8516 28.9825 21.7826 28.778Z" fill="white" fill-opacity="0.7"/>
<path d="M36.4441 29.8797C35.5942 29.8797 35.1662 29.5532 34.768 29.19C34.6093 29.0443 34.3612 29.055 34.2163 29.2152C34.0706 29.3746 34.082 29.6212 34.2415 29.7669C34.7152 30.1995 35.3149 30.661 36.444 30.661C36.66 30.661 36.8348 30.4863 36.8348 30.2704C36.8348 30.0544 36.6601 29.8797 36.4441 29.8797Z" fill="white" fill-opacity="0.7"/>
<path d="M33.2564 28.7781C33.1878 28.5736 32.9672 28.4668 32.7613 28.5332C31.1415 29.081 28.5772 29.6013 26.5257 29.7966C26.3106 29.8172 26.1535 30.0079 26.1733 30.223C26.1933 30.4252 26.3625 30.5763 26.5624 30.5763C26.5746 30.5763 26.5869 30.5756 26.599 30.5748C28.7383 30.3703 31.3154 29.8476 33.0114 29.2731C33.2159 29.2039 33.325 28.9826 33.2564 28.7781Z" fill="white" fill-opacity="0.7"/>
<path d="M46.4539 29.3985C46.3287 29.3 46.2174 29.1964 46.1105 29.0971C45.6603 28.6805 45.1507 28.2091 44.1864 28.5333C42.5415 29.0894 40.0497 29.5976 37.9851 29.7959C37.7701 29.8165 37.6129 30.008 37.6343 30.2224C37.6532 30.4245 37.8235 30.5756 38.0218 30.5756C38.0348 30.5756 38.0478 30.5748 38.0601 30.5742C40.178 30.3697 42.7407 29.847 44.4359 29.2733C44.9402 29.1056 45.1393 29.2612 45.5795 29.6702C45.7002 29.7823 45.8268 29.8983 45.9672 30.0104C46.1364 30.1454 46.3822 30.1165 46.5164 29.9478C46.6508 29.7785 46.6225 29.5328 46.4539 29.3985Z" fill="white" fill-opacity="0.7"/>
<path d="M14.2577 24.4115C13.3934 24.4115 13.0005 24.0472 12.6205 23.6947C12.4618 23.5474 12.215 23.5566 12.0685 23.7156C11.922 23.8735 11.9311 24.1208 12.0894 24.2676C12.5102 24.6578 13.0865 25.1927 14.2576 25.1927C14.4735 25.1927 14.6484 25.018 14.6484 24.8021C14.6484 24.5862 14.4736 24.4115 14.2577 24.4115Z" fill="white" fill-opacity="0.7"/>
<path d="M11.2708 23.392C11.2015 23.1876 10.9802 23.0796 10.7757 23.1471C9.26894 23.6571 6.9732 24.1291 5.06284 24.3217C4.84849 24.3434 4.69164 24.535 4.71345 24.7497C4.73369 24.9511 4.90345 25.101 5.10176 25.101C5.11467 25.101 5.12807 25.1003 5.14146 25.0991C7.10404 24.9011 9.46921 24.4139 11.026 23.8871C11.2303 23.8181 11.3399 23.5961 11.2708 23.392Z" fill="white" fill-opacity="0.7"/>
<path d="M24.9999 24.4114C24.2121 24.4114 23.8167 24.1097 23.4481 23.7736C23.2894 23.6275 23.0422 23.6382 22.8965 23.7987C22.7507 23.9578 22.7622 24.205 22.9216 24.3503C23.368 24.7578 23.9333 25.1927 24.9999 25.1927C25.2158 25.1927 25.3905 25.0179 25.3905 24.802C25.3905 24.5861 25.2158 24.4114 24.9999 24.4114Z" fill="white" fill-opacity="0.7"/>
<path d="M22.01 23.3922C21.9406 23.1877 21.7178 23.0797 21.5149 23.1472C20.0038 23.6587 17.7043 24.1314 15.7928 24.3233C15.578 24.345 15.4216 24.5362 15.443 24.7509C15.4632 24.9523 15.633 25.1026 15.8313 25.1026C15.8443 25.1026 15.8573 25.1018 15.8706 25.1007C17.8352 24.9035 20.204 24.416 21.765 23.8872C21.9695 23.8179 22.079 23.5962 22.01 23.3922Z" fill="white" fill-opacity="0.7"/>
<path d="M35.7421 24.4115C34.9731 24.4115 34.5748 24.1163 34.2635 23.8396C34.1018 23.6977 33.8561 23.7122 33.7112 23.8732C33.5685 24.0345 33.5839 24.2817 33.7448 24.4248C34.1736 24.8043 34.7466 25.1927 35.7422 25.1927C35.9581 25.1927 36.1327 25.0181 36.1327 24.8022C36.1327 24.5862 35.958 24.4115 35.7421 24.4115Z" fill="white" fill-opacity="0.7"/>
<path d="M32.7552 23.392C32.6857 23.1876 32.4645 23.0796 32.26 23.1471C30.7471 23.6594 28.4423 24.1325 26.5235 24.3247C26.3092 24.346 26.1519 24.5376 26.1733 24.7523C26.194 24.9538 26.3641 25.1041 26.5624 25.1041C26.5747 25.1041 26.5883 25.1034 26.6013 25.1021C28.5726 24.9045 30.9477 24.4163 32.5102 23.8871C32.7147 23.8181 32.8246 23.5961 32.7552 23.392Z" fill="white" fill-opacity="0.7"/>
<path d="M44.998 23.8338L44.8318 23.6816C44.4046 23.2859 43.9224 22.8366 43.0022 23.1471C41.4841 23.6613 39.1739 24.1347 37.2543 24.3255C37.04 24.3468 36.8835 24.538 36.9049 24.7527C36.9248 24.9546 37.0941 25.1049 37.2924 25.1049C37.3062 25.1049 37.3185 25.1041 37.332 25.103C39.305 24.9073 41.6838 24.4186 43.2524 23.8872C43.73 23.727 43.9086 23.8918 44.3007 24.2546L44.4793 24.4182C44.6395 24.5602 44.8867 24.5461 45.0309 24.3855C45.1736 24.224 45.1598 23.9773 44.998 23.8338Z" fill="white" fill-opacity="0.7"/>
<path d="M14.9139 19.7239C14.1785 19.7239 13.8199 19.45 13.459 19.1189C13.3 18.9725 13.0531 18.9827 12.9074 19.1425C12.7613 19.3012 12.772 19.5484 12.9311 19.6941C13.3583 20.0867 13.8992 20.5051 14.9139 20.5051C15.1298 20.5051 15.3046 20.3304 15.3046 20.1145C15.3046 19.8986 15.1298 19.7239 14.9139 19.7239Z" fill="white" fill-opacity="0.7"/>
<path d="M12.0907 18.7867C12.0219 18.5822 11.8004 18.4723 11.5959 18.5414C10.1848 19.0167 8.06119 19.4569 6.31178 19.6365C6.09743 19.6587 5.94137 19.8506 5.96308 20.0653C5.98371 20.2664 6.15347 20.4159 6.35148 20.4159C6.36488 20.4159 6.37818 20.4151 6.39187 20.4141C8.22117 20.226 10.3619 19.7816 11.8454 19.2815C12.0499 19.2127 12.1598 18.9911 12.0907 18.7867Z" fill="white" fill-opacity="0.7"/>
<path d="M25.0061 19.724C24.2912 19.724 23.9216 19.4489 23.6312 19.1914C23.4695 19.0476 23.2223 19.062 23.0796 19.2246C22.9366 19.3859 22.951 19.6327 23.1128 19.7758C23.5191 20.1365 24.0623 20.5051 25.006 20.5051C25.222 20.5051 25.3967 20.3305 25.3967 20.1146C25.3967 19.8987 25.2221 19.724 25.0061 19.724Z" fill="white" fill-opacity="0.7"/>
<path d="M22.2082 18.7866C22.1399 18.5829 21.9175 18.4722 21.7134 18.5414C20.3124 19.0133 18.1841 19.4527 16.4171 19.635C16.2024 19.6572 16.0463 19.8494 16.0685 20.0638C16.0895 20.2648 16.2588 20.4144 16.4568 20.4144C16.4701 20.4144 16.4835 20.4136 16.4973 20.4125C18.3161 20.2245 20.5126 19.7701 21.963 19.2814C22.1675 19.2127 22.2773 18.9911 22.2082 18.7866Z" fill="white" fill-opacity="0.7"/>
<path d="M35.0983 19.7239C34.4545 19.7239 34.1066 19.5102 33.825 19.2794C33.6579 19.1417 33.4114 19.1677 33.2749 19.3332C33.1384 19.4999 33.162 19.7461 33.3291 19.883C33.6817 20.1729 34.2012 20.5051 35.0984 20.5051C35.3143 20.5051 35.489 20.3304 35.489 20.1145C35.489 19.8986 35.3142 19.7239 35.0983 19.7239Z" fill="white" fill-opacity="0.7"/>
<path d="M32.331 18.7866C32.2622 18.5829 32.0404 18.4722 31.8358 18.5414C30.4458 19.0094 28.3111 19.4488 26.522 19.6342C26.3076 19.6567 26.1519 19.8487 26.1734 20.0634C26.1948 20.2641 26.3641 20.4136 26.5624 20.4136C26.5754 20.4136 26.5891 20.4128 26.6028 20.4117C28.443 20.2205 30.6463 19.7662 32.086 19.2814C32.2905 19.2127 32.4004 18.9911 32.331 18.7866Z" fill="white" fill-opacity="0.7"/>
<path d="M43.7516 19.1334L43.6554 19.0445C43.2679 18.6867 42.7866 18.2411 41.913 18.5414C40.5213 19.0097 38.3966 19.4481 36.6265 19.632C36.4121 19.6545 36.2565 19.8464 36.2778 20.0611C36.2991 20.2618 36.4686 20.4113 36.6669 20.4113C36.6798 20.4113 36.6935 20.4105 36.7072 20.4094C38.5284 20.2198 40.7211 19.7665 42.163 19.2809C42.578 19.1406 42.7337 19.2566 43.1244 19.6182L43.2266 19.7117C43.386 19.857 43.6333 19.8451 43.7783 19.6854C43.9233 19.5255 43.9118 19.2787 43.7516 19.1334Z" fill="white" fill-opacity="0.7"/>
<path d="M15.4296 15.8176C14.7567 15.8176 14.4191 15.5669 14.1307 15.3103C13.9701 15.1668 13.7234 15.1802 13.5795 15.3419C13.4357 15.5029 13.4498 15.7497 13.6111 15.8932C14.0025 16.2423 14.5244 16.5989 15.4296 16.5989C15.6456 16.5989 15.8203 16.424 15.8203 16.2081C15.8203 15.9922 15.6456 15.8176 15.4296 15.8176Z" fill="white" fill-opacity="0.7"/>
<path d="M12.7746 14.9433C12.7056 14.7388 12.4839 14.6289 12.2798 14.6973C10.9481 15.1451 9.01324 15.5487 7.35048 15.7261C7.13574 15.7491 6.98045 15.9413 7.00334 16.1557C7.02465 16.3563 7.19402 16.505 7.39125 16.505C7.40494 16.505 7.41912 16.5043 7.43291 16.5028C9.1476 16.3201 11.1476 15.9024 12.5286 15.4381C12.733 15.3691 12.8433 15.1478 12.7746 14.9433Z" fill="white" fill-opacity="0.7"/>
<path d="M24.9999 15.8177C24.39 15.8177 24.0576 15.6106 23.7895 15.3866C23.624 15.2486 23.3783 15.2707 23.2395 15.4362C23.1014 15.6018 23.1235 15.8477 23.289 15.9863C23.6304 16.2716 24.1336 16.5989 24.9999 16.5989C25.2158 16.5989 25.3906 16.4242 25.3906 16.2082C25.3906 15.9923 25.2158 15.8177 24.9999 15.8177Z" fill="white" fill-opacity="0.7"/>
<path d="M22.3714 14.9434C22.3024 14.7389 22.0807 14.629 21.8766 14.6974C20.5727 15.1356 18.5811 15.5492 16.9209 15.7262C16.7065 15.749 16.5513 15.9413 16.5741 16.156C16.5955 16.3563 16.7648 16.505 16.9621 16.505C16.9757 16.505 16.9899 16.5043 17.0041 16.5029C18.715 16.3205 20.773 15.8925 22.1253 15.4382C22.3299 15.3691 22.4401 15.1479 22.3714 14.9434Z" fill="white" fill-opacity="0.7"/>
<path d="M34.5702 15.8177C33.9988 15.8177 33.6776 15.6315 33.4625 15.4694C33.29 15.3401 33.0444 15.374 32.9147 15.5472C32.7857 15.7196 32.82 15.9646 32.9924 16.0942C33.4517 16.4386 33.9523 16.5989 34.5702 16.5989C34.7861 16.5989 34.9609 16.4242 34.9609 16.2083C34.9609 15.9923 34.7861 15.8177 34.5702 15.8177Z" fill="white" fill-opacity="0.7"/>
<path d="M31.9732 14.9434C31.9047 14.7389 31.6835 14.629 31.4782 14.6974C30.1897 15.1306 28.1983 15.5431 26.5214 15.7231C26.3063 15.746 26.1506 15.9387 26.1743 16.153C26.1957 16.3536 26.3649 16.502 26.5626 16.502C26.5763 16.502 26.59 16.5012 26.6036 16.4998C28.3317 16.3144 30.3909 15.8876 31.7268 15.4382C31.932 15.3691 32.0419 15.1479 31.9732 14.9434Z" fill="white" fill-opacity="0.7"/>
<path d="M42.6964 15.178C42.3264 14.8362 41.8655 14.4112 41.0256 14.6973C39.7385 15.1302 37.7602 15.5419 36.1039 15.7215C35.8887 15.7448 35.7346 15.9375 35.7575 16.1518C35.7789 16.352 35.9482 16.5004 36.145 16.5004C36.1595 16.5004 36.1741 16.4996 36.1878 16.4983C37.9212 16.3102 39.9185 15.894 41.2765 15.4374C41.6579 15.3061 41.7952 15.4087 42.1676 15.7536C42.3256 15.9001 42.572 15.8887 42.7192 15.7311C42.865 15.5724 42.8543 15.3245 42.6964 15.178Z" fill="white" fill-opacity="0.7"/>
<path d="M12.6952 36.1299C11.6828 36.1299 11.2166 35.6981 10.7657 35.2806C10.2881 34.8383 9.74611 34.3347 8.72492 34.6826C6.40366 35.4669 2.58704 36.1299 0.39056 36.1299C0.174647 36.1299 0 36.3046 0 36.5205C0 36.7364 0.174647 36.9111 0.39056 36.9111C2.69578 36.9111 6.54672 36.2435 8.97516 35.4226C9.55767 35.228 9.78346 35.4362 10.2351 35.8536C10.717 36.2999 11.3765 36.911 12.6953 36.911C12.9112 36.911 13.0858 36.7364 13.0858 36.5205C13.0858 36.3046 12.9111 36.1299 12.6952 36.1299Z" fill="white" fill-opacity="0.7"/>
<path d="M24.9999 36.1299C23.9875 36.1299 23.5214 35.6981 23.0705 35.2806C22.5933 34.8383 22.0512 34.3347 21.0296 34.6826C18.7083 35.4669 14.8917 36.1299 12.6952 36.1299C12.4793 36.1299 12.3046 36.3046 12.3046 36.5205C12.3046 36.7364 12.4793 36.9111 12.6952 36.9111C15.0004 36.9111 18.8514 36.2435 21.2798 35.4226C21.8616 35.228 22.0881 35.4362 22.5398 35.8536C23.0217 36.2999 23.6812 36.911 24.9999 36.911C25.2158 36.911 25.3906 36.7364 25.3906 36.5205C25.3906 36.3046 25.2158 36.1299 24.9999 36.1299Z" fill="white" fill-opacity="0.7"/>
<path d="M37.3045 36.1299C36.2913 36.1299 35.826 35.6981 35.3751 35.2806C34.8975 34.8383 34.3558 34.3347 33.3343 34.6826C31.0134 35.4669 27.1965 36.1299 24.9999 36.1299C24.784 36.1299 24.6093 36.3046 24.6093 36.5205C24.6093 36.7364 24.784 36.9111 24.9999 36.9111C27.3055 36.9111 31.1561 36.2435 33.5845 35.4226C34.1644 35.228 34.3933 35.4362 34.8441 35.8536C35.3256 36.2999 35.9862 36.911 37.3046 36.911C37.5205 36.911 37.6951 36.7364 37.6951 36.5205C37.6951 36.3046 37.5204 36.1299 37.3045 36.1299Z" fill="white" fill-opacity="0.7"/>
<path d="M49.6092 36.1299C48.5961 36.1299 48.1307 35.6981 47.6798 35.2806C47.2015 34.8383 46.6612 34.3347 45.639 34.6826C43.3181 35.4669 39.5011 36.1299 37.3046 36.1299C37.0887 36.1299 36.9141 36.3046 36.9141 36.5205C36.9141 36.7364 37.0887 36.9111 37.3046 36.9111C39.6102 36.9111 43.4608 36.2435 45.8892 35.4226C46.4699 35.228 46.6972 35.4362 47.1488 35.8536C47.6303 36.2999 48.291 36.911 49.6093 36.911C49.8252 36.911 49.9998 36.7364 49.9998 36.5205C49.9998 36.3046 49.8251 36.1299 49.6092 36.1299Z" fill="white" fill-opacity="0.7"/>
<path d="M12.6952 37.6924C11.6828 37.6924 11.2166 37.2605 10.7657 36.8432C10.2881 36.4007 9.74611 35.8971 8.72492 36.245C6.40366 37.0294 2.58704 37.6924 0.39056 37.6924C0.174647 37.6924 0 37.867 0 38.083C0 38.2988 0.174647 38.4736 0.39056 38.4736C2.69578 38.4736 6.54672 37.806 8.97516 36.9851C9.55767 36.7906 9.78346 36.9987 10.2351 37.4161C10.717 37.8623 11.3765 38.4735 12.6953 38.4735C12.9112 38.4735 13.0859 38.2987 13.0858 38.083C13.0858 37.867 12.9111 37.6924 12.6952 37.6924Z" fill="white" fill-opacity="0.7"/>
<path d="M24.9999 37.6924C23.9875 37.6924 23.5214 37.2605 23.0705 36.8432C22.5933 36.4007 22.0512 35.8971 21.0296 36.245C18.7083 37.0294 14.8917 37.6924 12.6952 37.6924C12.4793 37.6924 12.3046 37.867 12.3046 38.083C12.3046 38.2988 12.4793 38.4736 12.6952 38.4736C15.0004 38.4736 18.8514 37.806 21.2798 36.9851C21.8616 36.7906 22.0881 36.9987 22.5398 37.4161C23.0217 37.8623 23.6812 38.4735 24.9999 38.4735C25.2158 38.4735 25.3906 38.2987 25.3906 38.083C25.3906 37.867 25.2158 37.6924 24.9999 37.6924Z" fill="white" fill-opacity="0.7"/>
<path d="M37.3045 37.6924C36.2913 37.6924 35.826 37.2605 35.3751 36.8432C34.8975 36.4007 34.3558 35.8971 33.3343 36.245C31.0134 37.0294 27.1965 37.6924 24.9999 37.6924C24.784 37.6924 24.6093 37.867 24.6093 38.083C24.6093 38.2988 24.784 38.4736 24.9999 38.4736C27.3055 38.4736 31.1561 37.806 33.5845 36.9851C34.1644 36.7906 34.3933 36.9987 34.8441 37.4161C35.3256 37.8623 35.9862 38.4735 37.3046 38.4735C37.5205 38.4735 37.6952 38.2987 37.6951 38.083C37.6951 37.867 37.5204 37.6924 37.3045 37.6924Z" fill="white" fill-opacity="0.7"/>
<path d="M49.6092 37.6924C48.5961 37.6924 48.1307 37.2605 47.6798 36.8432C47.2015 36.4007 46.6612 35.8971 45.639 36.245C43.3181 37.0294 39.5011 37.6924 37.3046 37.6924C37.0887 37.6924 36.9141 37.867 36.9141 38.083C36.9141 38.2988 37.0887 38.4736 37.3046 38.4736C39.6102 38.4736 43.4608 37.806 45.8892 36.9851C46.4699 36.7906 46.6972 36.9987 47.1488 37.4161C47.6303 37.8623 48.291 38.4735 49.6093 38.4735C49.8252 38.4735 49.9999 38.2987 49.9998 38.083C49.9998 37.867 49.8251 37.6924 49.6092 37.6924Z" fill="white" fill-opacity="0.7"/>
<path d="M15.8203 12.6926C15.1042 12.6926 14.7861 12.3978 14.4492 12.0854C14.0911 11.7535 13.6443 11.3414 12.8272 11.618C11.0938 12.2005 8.26057 12.6926 6.64054 12.6926C6.42462 12.6926 6.24988 12.8674 6.24988 13.0833C6.24988 13.2992 6.42462 13.4739 6.64054 13.4739C8.35904 13.4739 11.246 12.9738 13.0771 12.3585C13.4372 12.2357 13.5661 12.3325 13.9182 12.6583C14.2894 13.0023 14.7979 13.4738 15.8203 13.4738C16.0362 13.4738 16.2109 13.2992 16.2109 13.0833C16.2109 12.8674 16.0362 12.6926 15.8203 12.6926Z" fill="white" fill-opacity="0.7"/>
<path d="M25.0001 12.6926C24.284 12.6926 23.9659 12.3978 23.629 12.0854C23.2708 11.7535 22.8241 11.3414 22.007 11.618C20.2736 12.2005 17.4405 12.6926 15.8203 12.6926C15.6044 12.6926 15.4297 12.8674 15.4297 13.0833C15.4297 13.2992 15.6044 13.4739 15.8203 13.4739C17.5388 13.4739 20.4258 12.9738 22.2569 12.3585C22.6173 12.2357 22.7463 12.3325 23.098 12.6583C23.4691 13.0023 23.9776 13.4738 25 13.4738C25.2159 13.4738 25.3907 13.2992 25.3907 13.0833C25.3907 12.8674 25.216 12.6926 25.0001 12.6926Z" fill="white" fill-opacity="0.7"/>
<path d="M34.1796 12.6926C33.4625 12.6926 33.1435 12.3974 32.8063 12.0846C32.4477 11.7531 32.0022 11.3399 31.1867 11.618C29.4532 12.2004 26.6204 12.6926 24.9999 12.6926C24.784 12.6926 24.6093 12.8673 24.6093 13.0833C24.6093 13.2992 24.784 13.4739 24.9999 13.4739C26.718 13.4739 29.6051 12.9737 31.4376 12.3581C31.7954 12.236 31.9243 12.3328 32.2752 12.6579C32.6476 13.0023 33.1573 13.4738 34.1796 13.4738C34.3955 13.4738 34.5702 13.2992 34.5702 13.0833C34.5702 12.8673 34.3955 12.6926 34.1796 12.6926Z" fill="white" fill-opacity="0.7"/>
<path d="M43.3594 12.6926C42.6423 12.6926 42.3233 12.3974 41.986 12.0846C41.6275 11.7531 41.1835 11.3399 40.3664 11.618C38.633 12.2004 35.8001 12.6926 34.1797 12.6926C33.9638 12.6926 33.7891 12.8673 33.7891 13.0833C33.7891 13.2992 33.9638 13.4739 34.1797 13.4739C35.8978 13.4739 38.7849 12.9737 40.6174 12.3581C40.976 12.236 41.1041 12.3328 41.455 12.6579C41.8274 13.0023 42.3371 13.4738 43.3594 13.4738C43.5753 13.4738 43.75 13.2992 43.75 13.0833C43.75 12.8673 43.5753 12.6926 43.3594 12.6926Z" fill="white" fill-opacity="0.7"/>
<path d="M6.74136 12.7059C6.53493 12.6515 6.31902 12.7743 6.26338 12.9826L0.013344 36.4197C-0.0423944 36.628 0.0815991 36.8424 0.289885 36.8981C0.323817 36.9073 0.357455 36.9111 0.390996 36.9111C0.563492 36.9111 0.72132 36.7959 0.767866 36.6211L7.0179 13.1839C7.07364 12.9752 6.94965 12.7613 6.74136 12.7059Z" fill="white" fill-opacity="0.7"/>
<path d="M49.9864 36.4198L43.7363 12.9826C43.6814 12.7739 43.4678 12.651 43.2587 12.706C43.0505 12.7614 42.9262 12.9753 42.9826 13.184L49.2325 36.6211C49.2783 36.7959 49.4369 36.911 49.6094 36.911C49.643 36.911 49.6766 36.9064 49.7102 36.8981C49.9185 36.8424 50.0428 36.628 49.9864 36.4198Z" fill="white" fill-opacity="0.7"/>
<path d="M46.1448 34.9656L40.8714 11.9015C40.8233 11.6906 40.6128 11.5589 40.4037 11.6078C40.1932 11.6559 40.062 11.8653 40.11 12.0755L45.3834 35.1394C45.4246 35.3202 45.5857 35.4431 45.7642 35.4431C45.7933 35.4431 45.8222 35.44 45.851 35.4332C46.0617 35.3852 46.1929 35.1761 46.1448 34.9656Z" fill="white" fill-opacity="0.7"/>
<path d="M31.7 11.9522C31.6802 11.7371 31.4857 11.5769 31.2743 11.5994C31.06 11.6196 30.9021 11.81 30.9218 12.0247L33.0703 35.0883C33.0894 35.2912 33.2595 35.4431 33.4594 35.4431C33.4716 35.4431 33.4838 35.4423 33.4961 35.4415C33.7104 35.4218 33.8683 35.2309 33.8485 35.0165L31.7 11.9522Z" fill="white" fill-opacity="0.7"/>
<path d="M22.1477 11.5982C21.9474 11.5829 21.7506 11.7565 21.7411 11.972L20.7645 35.0357C20.7553 35.2516 20.9228 35.4339 21.1384 35.4431C21.1437 35.4431 21.1494 35.4431 21.1552 35.4431C21.3631 35.4431 21.5363 35.2791 21.545 35.0693L22.5216 12.0048C22.5307 11.7893 22.3632 11.6073 22.1477 11.5982Z" fill="white" fill-opacity="0.7"/>
<path d="M13.0199 11.604C12.8059 11.5646 12.6049 11.7077 12.5671 11.9202L8.46557 34.9839C8.42782 35.1967 8.56932 35.3996 8.78181 35.437C8.80469 35.4408 8.82796 35.4431 8.85046 35.4431C9.03615 35.4431 9.20102 35.3104 9.23456 35.1212L13.3361 12.0568C13.374 11.8443 13.2324 11.6418 13.0199 11.604Z" fill="white" fill-opacity="0.7"/>
<path d="M15.8719 12.6961C15.6568 12.6702 15.4618 12.8182 15.4333 13.0318L12.3082 36.4686C12.2795 36.6829 12.4299 36.879 12.6439 36.908C12.6614 36.9103 12.6786 36.911 12.6957 36.911C12.8887 36.911 13.0562 36.7684 13.0827 36.5723L16.2076 13.1348C16.2363 12.9211 16.0859 12.7247 15.8719 12.6961Z" fill="white" fill-opacity="0.7"/>
<path d="M24.9999 12.6926C24.784 12.6926 24.6093 12.8674 24.6093 13.0833V36.5204C24.6093 36.7363 24.784 36.9111 24.9999 36.9111C25.2158 36.9111 25.3906 36.7363 25.3906 36.5204V13.0833C25.3906 12.8674 25.2158 12.6926 24.9999 12.6926Z" fill="white" fill-opacity="0.7"/>
<path d="M37.6923 36.4685L34.5672 13.0317C34.5383 12.8182 34.3446 12.6701 34.1278 12.696C33.9142 12.7247 33.7639 12.921 33.7921 13.1347L36.9172 36.5722C36.9438 36.7684 37.111 36.911 37.3047 36.911C37.3215 36.911 37.3383 36.9103 37.3565 36.9079C37.5702 36.8789 37.7205 36.6828 37.6923 36.4685Z" fill="white" fill-opacity="0.7"/>
<path d="M49.6093 36.1299C49.3934 36.1299 49.2188 36.3045 49.2188 36.5204V38.0829C49.2188 38.2988 49.3934 38.4735 49.6093 38.4735C49.8252 38.4735 49.9999 38.2988 49.9999 38.0829V36.5204C49.9999 36.3045 49.8252 36.1299 49.6093 36.1299Z" fill="white" fill-opacity="0.7"/>
<path d="M0.39056 36.1299C0.174647 36.1299 0 36.3045 0 36.5204V38.0829C0 38.2988 0.174647 38.4735 0.39056 38.4735C0.606473 38.4735 0.781218 38.2988 0.781218 38.0829V36.5204C0.781218 36.3045 0.606473 36.1299 0.39056 36.1299Z" fill="white" fill-opacity="0.7"/>
</g>
<defs>
<clipPath id="clip0">
<rect width="50" height="50" fill="white"/>
</clipPath>
</defs>
</svg>
