<svg width="40" height="40" viewBox="0 0 40 40" fill="none" xmlns="http://www.w3.org/2000/svg">
<g clip-path="url(#clip0)">
<path d="M19.9999 3.09748e-07C11.7434 -0.00144739 4.33495 5.07191 1.3515 12.7706C-1.63194 20.4693 0.423172 29.21 6.52461 34.7727C6.79826 35.0069 7.20846 34.9814 7.45098 34.715C7.69351 34.4487 7.68065 34.038 7.42194 33.7873C1.72757 28.5945 -0.190196 20.436 2.59437 13.25C5.37893 6.06401 12.2933 1.32797 19.9999 1.32797C27.7066 1.32797 34.621 6.06401 37.4055 13.25C40.1901 20.436 38.2723 28.5945 32.5779 33.7873C32.3933 33.9454 32.3092 34.1914 32.3587 34.4294C32.4081 34.6674 32.5832 34.8597 32.8155 34.9311C33.0479 35.0025 33.3007 34.9418 33.4753 34.7727C39.5767 29.21 41.6318 20.4693 38.6484 12.7706C35.6649 5.07191 28.2565 -0.00144739 19.9999 3.09748e-07Z" fill="white" fill-opacity="0.7"/>
<path d="M6.76938 39.28C6.99854 39.7223 7.45519 40 7.95338 40H12.22C12.7607 40.0013 13.2484 39.675 13.4534 39.1746L13.662 38.6666H26.338L26.5467 39.1746C26.7517 39.675 27.2393 40.0013 27.78 40H32.0467C32.5443 39.9989 32.9998 39.7209 33.2283 39.279C33.4568 38.837 33.4202 38.3045 33.1334 37.898L26.62 28.6666H26.6667C28.1395 28.6666 29.3334 27.4727 29.3334 26V9.33333C29.3334 7.86057 28.1395 6.66666 26.6667 6.66666H26.5207L26.1067 5.01C25.9583 4.41625 25.4247 3.99979 24.8127 4H15.1874C14.5754 3.99979 14.0418 4.41625 13.8934 5.01L13.4794 6.66666H13.3334C11.8606 6.66666 10.6667 7.86057 10.6667 9.33333V26C10.6667 27.4727 11.8606 28.6666 13.3334 28.6666H13.38L6.86671 37.898C6.5778 38.304 6.54023 38.8375 6.76938 39.28ZM14.2114 37.3333L15.3094 34.6666H24.6907L25.7887 37.3333H14.2114ZM22.22 28.6666L22.7694 30H17.2307L17.78 28.6666H22.22ZM16.682 31.3333H23.318L24.142 33.3333H15.858L16.682 31.3333ZM32.0467 38.6666H27.78L23.662 28.6666H24.988L32.0467 38.6666ZM28 24H25.3334C24.9652 24 24.6667 23.7015 24.6667 23.3333V22.6667C24.6667 22.2985 24.9652 22 25.3334 22H28V24ZM12 22H14.6667C15.0349 22 15.3334 22.2985 15.3334 22.6667V23.3333C15.3334 23.7015 15.0349 24 14.6667 24H12V22ZM12 12H19.3334V17.3333H12V12ZM20.6667 12H28V17.3333H20.6667V12ZM15.1874 5.33333H24.8127L25.146 6.66666H14.854L15.1874 5.33333ZM13.3334 8H26.6667C27.4031 8 28 8.59695 28 9.33333V10.6667H12V9.33333C12 8.59695 12.597 8 13.3334 8ZM12 26V25.3333H14.6667C15.7713 25.3333 16.6667 24.4379 16.6667 23.3333V22.6667C16.6667 21.5621 15.7713 20.6667 14.6667 20.6667H12V18.6667H28V20.6667H25.3334C24.2288 20.6667 23.3334 21.5621 23.3334 22.6667V23.3333C23.3334 24.4379 24.2288 25.3333 25.3334 25.3333H28V26C28 26.7364 27.4031 27.3333 26.6667 27.3333H13.3334C12.597 27.3333 12 26.7364 12 26ZM15.012 28.6666H16.338L12.22 38.6666H7.95338L15.012 28.6666Z" fill="white" fill-opacity="0.7"/>
<path d="M4.90534 12.9047C4.7425 12.8357 4.55892 12.8342 4.39501 12.9006C4.23109 12.967 4.10027 13.0958 4.03134 13.2587C2.65302 16.5211 2.30864 20.1277 3.04467 23.592C3.29338 24.7629 3.66245 25.905 4.14601 27C4.29969 27.3284 4.68759 27.4737 5.01921 27.3272C5.35082 27.1807 5.50459 26.7961 5.36534 26.4614C4.4655 24.4261 4.00047 22.2253 4.00001 20C3.99605 17.8625 4.42441 15.7463 5.25934 13.7787C5.32833 13.6158 5.32979 13.4323 5.2634 13.2683C5.197 13.1044 5.0682 12.9736 4.90534 12.9047Z" fill="white" fill-opacity="0.7"/>
<path d="M34.6346 26.4593C34.5322 26.6782 34.5562 26.9353 34.6974 27.1314C34.8386 27.3275 35.0748 27.4319 35.3149 27.4042C35.5549 27.3765 35.7612 27.2211 35.854 26.998C36.8286 24.7937 37.3324 22.4102 37.3333 20C37.3375 17.6839 36.8733 15.3908 35.9686 13.2587C35.8758 13.0393 35.6729 12.8862 35.4365 12.8569C35.2001 12.8277 34.966 12.9268 34.8225 13.1169C34.679 13.307 34.6478 13.5593 34.7406 13.7787C36.0126 16.7895 36.3305 20.1181 35.6513 23.3153C35.4213 24.3954 35.0806 25.449 34.6346 26.4593Z" fill="white" fill-opacity="0.7"/>
</g>
<defs>
<clipPath id="clip0">
<rect width="40" height="40" fill="white"/>
</clipPath>
</defs>
</svg>
