<svg width="50" height="67" viewBox="0 0 50 67" fill="none" xmlns="http://www.w3.org/2000/svg">
<g clip-path="url(#clip0)">
<path d="M37.5006 16.6311L28.3279 4.43198L26.4978 2.01454L25.0324 0.0492442L24.9989 0L17.2513 10.3144L12.4994 16.6311L0 33.2645L12.4994 49.8956L17.2513 56.2145L24.9989 66.5289L25.0324 66.4797L26.4978 64.5144L28.3346 62.0969L37.5073 49.8956L50.0067 33.2645L37.5006 16.6311ZM36.4043 48.4294L28.3346 59.1624L26.4978 61.5955L25.0324 63.5474L24.9989 63.5944L17.2513 53.2979L13.5957 48.4294L2.18578 33.2645L13.5957 18.0995L17.2513 13.2467L24.9989 2.93227L25.0324 2.98151L26.4978 4.92442L28.3346 7.35753L36.4043 18.1017L47.7918 33.2667L36.4043 48.4294Z" fill="white"/>
<path d="M30.1714 21.0004C30.8627 18.001 30.8314 14.9232 28.6568 14.6166C28.5502 14.5992 28.4426 14.5888 28.3346 14.5853C27.7145 14.5324 27.09 14.6039 26.4979 14.7957C25.9775 14.9587 25.4839 15.197 25.0325 15.503C23.7103 16.3983 22.6162 17.8891 22.1241 19.823C20.4422 20.1026 18.8056 20.607 17.2581 21.3228C13.6181 23.0463 11.8887 25.6741 11.5397 28.058C10.9625 32.2482 13.7881 33.7994 15.6898 33.8935C16.2221 33.9081 16.7527 33.8262 17.2558 33.6517C18.4483 33.2309 19.464 32.2818 19.6072 31.0731C18.625 30.5247 17.4975 28.9287 17.6116 27.5432C17.7094 26.3898 18.1882 25.3017 18.9724 24.4506C19.7567 23.5995 20.8017 23.0338 21.9428 22.8426C22.0077 23.738 22.0569 24.6333 22.1218 25.5287C21.171 26.0435 20.285 26.3501 19.3342 26.8493C19.2693 27.5902 19.1575 28.6221 19.0926 29.3473C20.2358 29.4771 20.8824 28.9601 21.7773 28.5572C22.0525 32.9265 22.359 37.2868 20.4349 41.1614C19.4528 40.904 18.3252 40.4676 17.2446 40.1452C16.6305 39.9632 15.9992 39.8447 15.3609 39.7916C14.0185 39.711 12.7344 40.4832 12.4525 41.8061C11.9357 44.19 14.4324 44.8839 16.0768 45.3517C16.4593 45.4543 16.8563 45.4921 17.2514 45.4636C18.6362 45.383 20.1844 44.7227 21.4887 44.5123C22.793 45.0294 23.8892 45.6091 25.0325 45.9807C25.5089 46.1405 25.9996 46.2537 26.4979 46.3187C26.82 46.35 27.1422 46.3657 27.48 46.3657C27.7708 46.35 28.0438 46.3343 28.3346 46.303C33.7622 45.6315 38.3373 40.3713 38.9324 35.279C39.7714 28.0423 34.9009 22.0637 30.1714 21.0004ZM17.2514 43.2722C16.4952 43.223 15.909 42.9007 16.0589 42.5157C16.22 42.0949 16.7032 42.068 17.2514 42.256C17.7017 42.4447 18.1078 42.7253 18.4438 43.0797C18.0642 43.2267 17.6579 43.2923 17.2514 43.2722ZM26.4979 17.954C26.5955 17.8799 26.7083 17.8284 26.8283 17.8032C26.9482 17.7781 27.0722 17.7799 27.1914 17.8085C27.7708 17.9853 27.6098 19.0329 27.254 19.7425L26.4979 19.6977C26.1444 19.682 25.7887 19.6507 25.4352 19.635C25.6276 19.0665 26.0146 18.292 26.4979 17.954ZM25.0325 22.724L25.5 22.7553L25.0325 23.3194L24.6298 23.8208L24.5649 22.7016L25.0325 22.724ZM33.1827 33.2645C32.393 36.1744 31.0573 39.9796 28.3346 41.7255C27.3389 42.3306 26.1974 42.6533 25.0325 42.6589C24.4299 42.6572 23.8295 42.5873 23.2427 42.4508C23.8534 41.4838 24.4508 40.5325 25.0325 39.5409C25.547 38.6701 26.0303 37.7681 26.4979 36.8324C27.2094 35.426 27.8231 33.9721 28.3346 32.481C28.6232 31.5857 28.8984 30.6769 29.1244 29.692C28.8492 29.6114 28.5762 29.5309 28.3346 29.4346C27.6781 29.2197 27.0586 28.9049 26.4979 28.5012C25.8711 28.0497 25.3941 27.4205 25.1287 26.6948C25.5627 26.2114 26.0236 25.7122 26.4979 25.213C27.1109 24.5415 27.7373 23.8902 28.3346 23.2634C28.4047 23.1731 28.4794 23.0864 28.5583 23.0038C31.733 25.1101 34.1805 29.6383 33.1827 33.2645Z" fill="white"/>
</g>
<defs>
<clipPath id="clip0">
<rect width="50" height="66.5289" fill="white"/>
</clipPath>
</defs>
</svg>
