<svg width="49" height="48" viewBox="0 0 49 48" fill="none" xmlns="http://www.w3.org/2000/svg">
<path d="M45.1325 35.6837C45.1325 34.5463 45.8842 33.6667 46.8776 33.6667C47.8576 33.6667 48.6228 34.5463 48.6228 35.6837C48.6228 36.8514 47.8576 37.731 46.8776 37.731C45.8842 37.731 45.1325 36.8514 45.1325 35.6837ZM44.7432 35.6837C44.7432 37.0486 45.7097 38.0798 46.8642 38.0798C48.0187 38.0798 48.9852 37.0486 48.9852 35.6837C48.9852 34.334 48.0187 33.3179 46.8642 33.3179C45.7231 33.3179 44.7432 34.334 44.7432 35.6837ZM46.0453 37.0789H46.4212V35.8808H46.8373L47.5086 37.0789H47.9113L47.1998 35.8505C47.5623 35.805 47.8442 35.5927 47.8442 35.0922C47.8442 34.5614 47.5757 34.3036 46.985 34.3036H46.0319V37.0789H46.0453ZM46.4346 34.6524H46.9447C47.2132 34.6524 47.4951 34.7131 47.4951 35.0771C47.4951 35.5169 47.1864 35.5472 46.8373 35.5472H46.4346V34.6524Z" fill="#FBBD09"/>
<path d="M24.4993 0L48.9986 47.9827H0L24.4993 0Z" fill="#E5E5E5"/>
<path d="M35.722 38.2163C34.675 38.1709 33.8024 38.7014 33.7755 39.3836C33.7487 40.0657 34.581 40.672 35.6281 40.7024C36.6752 40.7478 37.5477 40.2173 37.5746 39.5351C37.6014 38.853 36.7691 38.2467 35.722 38.2163Z" fill="white"/>
<path d="M24.4993 0L0 47.9827H48.9986L24.4993 0ZM10.377 42.8113H10.3635C10.2293 42.7962 10.1219 42.781 10.0682 42.8113C10.0011 42.8417 9.93396 42.9327 9.81314 43.0085L9.78629 43.0236C9.65205 43.0995 9.47754 43.1601 9.19563 43.1146C8.99426 43.0843 8.59153 43.0388 8.32305 43.0085C8.08141 42.9781 7.97402 42.7507 7.98744 42.6142C8.01429 42.2502 8.16196 40.5214 8.20223 40.1726C8.25593 39.6873 8.56469 39.4295 9.39699 39.839C14.3505 42.2654 14.1089 37.5035 14.2163 36.9879L15.6124 20.837C16.0017 18.0314 18.4986 17.5461 18.9148 17.5461C19.6397 17.5461 20.123 17.6523 20.2572 17.5765C20.3915 17.5006 20.5526 17.1215 21.1701 17.2125C21.9755 17.3338 22.3783 17.1822 22.3917 17.7736L22.0561 19.8512C22.0292 19.9422 21.9755 20.473 21.0358 20.1697C18.2436 19.275 18.0154 21.5194 18.002 21.7317C18.002 21.7772 16.5521 38.6106 16.5521 38.6106C15.7735 44.1459 11.5449 43.1146 10.377 42.8113ZM21.4923 33.788L20.0961 42.4474C20.0559 42.7052 19.8277 42.9175 19.5994 42.9175H17.9348C17.7066 42.9175 17.5455 42.7052 17.5858 42.4474L18.9819 33.788C19.0222 33.5302 19.2504 33.3179 19.4786 33.3179H21.1432C21.3849 33.3179 21.546 33.5302 21.4923 33.788ZM19.9887 30.2242C19.7605 30.2242 19.5994 30.0119 19.6397 29.7541L19.9082 28.1163C19.9485 27.8585 20.1767 27.6461 20.4049 27.6461H22.0695C22.2977 27.6461 22.4588 27.8585 22.4185 28.1163L22.1501 29.7541C22.1098 30.0119 21.8816 30.2242 21.6534 30.2242H19.9887ZM40.4071 43.0388C40.1788 43.0843 39.6285 43.1298 39.1452 42.9327C38.8364 42.8113 37.8967 42.4777 37.6014 42.4777C37.2658 42.4777 36.1247 43.0691 34.6749 43.0691C33.0506 43.0691 32.6747 42.2047 32.2048 42.2199C31.9766 42.2199 30.7684 43.0691 29.7616 43.0691C27.5332 43.0691 27.2915 38.6409 25.6404 38.6409C25.1839 38.6409 24.9826 38.8229 24.8349 39.2172L24.3248 42.417C24.2845 42.6748 24.0563 42.8872 23.8281 42.8872H22.1635C21.9353 42.8872 21.7742 42.6748 21.8144 42.417L25.8149 17.6523C25.8551 17.3945 26.0834 17.1822 26.3116 17.1822H27.9762C28.2044 17.1822 28.3655 17.3945 28.3252 17.6523C28.3252 17.6523 25.5464 34.9558 25.4793 35.2591C25.3048 36.1993 27.7211 36.3965 28.7011 33.8487C28.9293 33.3331 29.1709 33.2724 29.3723 33.2724C29.5737 33.2724 30.5402 33.2724 30.8087 33.2724C31.1712 33.2724 31.1443 33.8184 31.104 34.0307C30.6073 36.2903 28.446 37.5035 28.4595 37.7917C28.4729 38.0798 29.6811 39.8238 29.963 40.3091C30.2449 40.7792 31.292 40.5214 31.292 39.8238C31.292 37.1547 32.876 36.5178 33.8963 36.2448C35.1313 35.9112 37.3061 36.6088 37.3061 36.6088C37.5477 36.7149 37.7893 36.6239 37.8296 36.3813C37.8296 36.3813 37.9101 35.8505 37.9236 35.623C37.9504 35.3956 37.7491 34.8951 36.5946 34.9709C35.4535 35.0619 35.3998 35.0923 34.3796 35.2136C34.0305 35.2439 33.7218 35.1832 33.7218 35.1832C33.4667 35.1832 33.2788 34.9861 33.3056 34.7586L33.507 33.7122C33.5338 33.4696 33.7755 33.2876 34.0305 33.2876H37.7759C37.7759 33.2876 38.6619 33.2269 39.1586 33.4544C40.501 34.0459 40.3668 35.3956 40.2728 36.1993C40.1923 37.0031 39.7895 40.3697 39.7627 40.5366C39.7224 40.8702 39.9506 41.4616 40.8098 41.128C40.9172 41.0825 41.0648 41.219 41.0514 41.3555L40.8501 42.5535C40.8098 42.8417 40.6755 42.9933 40.4071 43.0388Z" fill="white"/>
<path d="M45.1325 35.6837C45.1325 34.5463 45.8842 33.6667 46.8776 33.6667C47.8576 33.6667 48.6228 34.5463 48.6228 35.6837C48.6228 36.8514 47.8576 37.731 46.8776 37.731C45.8842 37.731 45.1325 36.8514 45.1325 35.6837ZM44.7432 35.6837C44.7432 37.0486 45.7097 38.0798 46.8642 38.0798C48.0187 38.0798 48.9852 37.0486 48.9852 35.6837C48.9852 34.334 48.0187 33.3179 46.8642 33.3179C45.7231 33.3179 44.7432 34.334 44.7432 35.6837ZM46.0453 37.0789H46.4212V35.8808H46.8373L47.5086 37.0789H47.9113L47.1998 35.8505C47.5623 35.805 47.8442 35.5927 47.8442 35.0922C47.8442 34.5614 47.5757 34.3036 46.985 34.3036H46.0319V37.0789H46.0453ZM46.4346 34.6524H46.9447C47.2132 34.6524 47.4951 34.7131 47.4951 35.0771C47.4951 35.5169 47.1864 35.5472 46.8373 35.5472H46.4346V34.6524Z" fill="white"/>
</svg>
