<svg width="150" height="49" viewBox="0 0 150 49" fill="none" xmlns="http://www.w3.org/2000/svg">
<line x1="1" y1="45.75" x2="73" y2="45.75" stroke="white" stroke-width="0.5"/>
<path d="M0.664062 35L9.64006 1.40002H20.7281L29.6561 35H19.3361L18.3281 30.104H11.9921L10.9841 35H0.664062ZM13.4321 21.704H16.8881L15.1601 13.16L13.4321 21.704Z" fill="white"/>
<path d="M51.6806 11.816V35H43.6166V19.88H40.5926V27.272C40.5926 29.032 40.4006 30.488 40.0166 31.64C39.6326 32.792 39.0726 33.64 38.3366 34.184C37.6326 34.696 36.8966 35.048 36.1286 35.24C35.3926 35.432 34.5126 35.528 33.4886 35.528C32.3686 35.528 31.2006 35.352 29.9846 35V26.936C30.3366 27.064 30.7046 27.128 31.0886 27.128C32.7206 27.128 33.5366 25.768 33.5366 23.048V11.816H51.6806Z" fill="white"/>
<path d="M65.1427 19.544H68.2627C70.4067 19.544 72.1027 20.264 73.3507 21.704C74.5987 23.144 75.2227 25.048 75.2227 27.416C75.2227 29.688 74.5667 31.528 73.2547 32.936C71.9747 34.312 70.3107 35 68.2627 35H57.0787V11.816H65.1427V19.544ZM65.1427 29.624H65.7667C67.0467 29.624 67.6867 28.824 67.6867 27.224C67.6867 25.688 67.0467 24.92 65.7667 24.92H65.1427V29.624Z" fill="white"/>
<path d="M75.8882 45.9999V40.7919H78.7922V41.3679H76.6082V45.9999H75.8882Z" fill="white"/>
<path d="M79.814 40.7919H80.534V44.5719L84.074 40.4919V45.9999H83.354V42.2559L79.814 46.3359V40.7919Z" fill="white"/>
<path d="M86.3171 40.7919H89.6891V45.4239H90.4451V47.3439H89.7731V45.9999H85.8011V47.3439H85.1291V45.4239C85.3931 45.4079 85.6091 45.3359 85.7771 45.2079C85.9531 45.0799 86.0771 44.9039 86.1491 44.6799C86.2211 44.4559 86.2651 44.2479 86.2811 44.0559C86.3051 43.8559 86.3171 43.6159 86.3171 43.3359V40.7919ZM88.9691 45.4239V41.3679H87.0371V43.8279C87.0371 44.5559 86.8251 45.0879 86.4011 45.4239H88.9691Z" fill="white"/>
<path d="M91.5796 40.7919H92.2516V41.7159C92.6596 40.9559 93.3076 40.5759 94.1956 40.5759C94.9956 40.5759 95.6436 40.8359 96.1396 41.3559C96.6356 41.8759 96.8836 42.5559 96.8836 43.3959C96.8836 44.2039 96.6396 44.8759 96.1516 45.4119C95.6716 45.9479 95.0276 46.2159 94.2196 46.2159C93.4036 46.2159 92.7636 45.8759 92.2996 45.1959V48.5199H91.5796V40.7919ZM94.2196 45.6399C94.8036 45.6399 95.2636 45.4279 95.5996 45.0039C95.9436 44.5799 96.1156 44.0439 96.1156 43.3959C96.1156 42.7959 95.9476 42.2719 95.6116 41.8239C95.2836 41.3759 94.7876 41.1519 94.1236 41.1519C93.5716 41.1519 93.1196 41.3719 92.7676 41.8119C92.4236 42.2439 92.2516 42.7719 92.2516 43.3959C92.2516 44.0919 92.4436 44.6399 92.8276 45.0399C93.2196 45.4399 93.6836 45.6399 94.2196 45.6399Z" fill="white"/>
<path d="M102.854 45.4239C102.326 45.9519 101.646 46.2159 100.814 46.2159C99.9819 46.2159 99.3019 45.9519 98.7739 45.4239C98.2459 44.8879 97.9819 44.2119 97.9819 43.3959C97.9819 42.5799 98.2459 41.9079 98.7739 41.3799C99.3019 40.8439 99.9819 40.5759 100.814 40.5759C101.646 40.5759 102.326 40.8439 102.854 41.3799C103.382 41.9079 103.646 42.5799 103.646 43.3959C103.646 44.2119 103.382 44.8879 102.854 45.4239ZM99.3499 45.0159C99.7499 45.4319 100.238 45.6399 100.814 45.6399C101.39 45.6399 101.878 45.4319 102.278 45.0159C102.678 44.5999 102.878 44.0599 102.878 43.3959C102.878 42.7319 102.678 42.1919 102.278 41.7759C101.878 41.3599 101.39 41.1519 100.814 41.1519C100.238 41.1519 99.7499 41.3599 99.3499 41.7759C98.9499 42.1919 98.7499 42.7319 98.7499 43.3959C98.7499 44.0599 98.9499 44.5999 99.3499 45.0159Z" fill="white"/>
<path d="M105.091 40.7919H105.811V44.5719L109.351 40.4919V45.9999H108.631V42.2559L105.091 46.3359V40.7919Z" fill="white"/>
<path d="M111.342 42.0759L110.79 41.7159C111.246 40.9559 111.938 40.5759 112.866 40.5759C113.378 40.5759 113.798 40.7199 114.126 41.0079C114.462 41.2959 114.63 41.6719 114.63 42.1359C114.63 42.6799 114.326 43.0639 113.718 43.2879V43.3119C113.998 43.3679 114.242 43.5079 114.45 43.7319C114.666 43.9479 114.774 44.2439 114.774 44.6199C114.774 45.1399 114.57 45.5359 114.162 45.8079C113.762 46.0799 113.282 46.2159 112.722 46.2159C111.666 46.2159 110.938 45.8079 110.538 44.9919L111.126 44.6919C111.462 45.3239 111.994 45.6399 112.722 45.6399C113.098 45.6399 113.406 45.5479 113.646 45.3639C113.886 45.1719 114.006 44.9079 114.006 44.5719C114.006 44.3559 113.958 44.1759 113.862 44.0319C113.766 43.8879 113.638 43.7919 113.478 43.7439C113.318 43.6879 113.19 43.6519 113.094 43.6359C112.998 43.6199 112.902 43.6119 112.806 43.6119H112.146V43.0359H112.806C113.142 43.0359 113.41 42.9599 113.61 42.8079C113.81 42.6559 113.91 42.4239 113.91 42.1119C113.91 41.8959 113.866 41.7159 113.778 41.5719C113.69 41.4279 113.574 41.3319 113.43 41.2839C113.286 41.2279 113.17 41.1919 113.082 41.1759C113.002 41.1599 112.918 41.1519 112.83 41.1519C112.198 41.1519 111.702 41.4599 111.342 42.0759Z" fill="white"/>
<path d="M120.83 45.4239C120.302 45.9519 119.622 46.2159 118.79 46.2159C117.958 46.2159 117.278 45.9519 116.75 45.4239C116.222 44.8879 115.958 44.2119 115.958 43.3959C115.958 42.5799 116.222 41.9079 116.75 41.3799C117.278 40.8439 117.958 40.5759 118.79 40.5759C119.622 40.5759 120.302 40.8439 120.83 41.3799C121.358 41.9079 121.622 42.5799 121.622 43.3959C121.622 44.2119 121.358 44.8879 120.83 45.4239ZM117.326 45.0159C117.726 45.4319 118.214 45.6399 118.79 45.6399C119.366 45.6399 119.854 45.4319 120.254 45.0159C120.654 44.5999 120.854 44.0599 120.854 43.3959C120.854 42.7319 120.654 42.1919 120.254 41.7759C119.854 41.3599 119.366 41.1519 118.79 41.1519C118.214 41.1519 117.726 41.3599 117.326 41.7759C116.926 42.1919 116.726 42.7319 116.726 43.3959C116.726 44.0599 116.926 44.5999 117.326 45.0159Z" fill="white"/>
<path d="M126.992 40.7919V45.9999H126.272V41.3679H124.04V44.4759C124.04 45.5159 123.464 46.0239 122.312 45.9999V45.4239C122.736 45.4319 123.008 45.3239 123.128 45.0999C123.256 44.8759 123.32 44.5239 123.32 44.0439V40.7919H126.992Z" fill="white"/>
<path d="M128.211 45.9999L129.723 43.7559C129.355 43.7159 129.043 43.5719 128.787 43.3239C128.539 43.0759 128.415 42.7359 128.415 42.3039C128.415 41.8799 128.555 41.5239 128.835 41.2359C129.123 40.9399 129.595 40.7919 130.251 40.7919H132.123V45.9999H131.403V43.8159H130.395L129.015 45.9999H128.211ZM131.403 43.2399V41.3679H130.359C129.543 41.3679 129.135 41.6799 129.135 42.3039C129.135 42.9279 129.543 43.2399 130.359 43.2399H131.403Z" fill="white"/>
<path d="M133.896 45.9999V40.7919H134.616V45.4239H137.208V40.7919H137.928V45.4239H138.768V47.3439H138.096V45.9999H133.896Z" fill="white"/>
<path d="M139.826 40.7919H140.546V44.5719L144.086 40.4919V45.9999H143.366V42.2559L139.826 46.3359V40.7919Z" fill="white"/>
<path d="M145.309 45.9999L146.821 43.7559C146.453 43.7159 146.141 43.5719 145.885 43.3239C145.637 43.0759 145.513 42.7359 145.513 42.3039C145.513 41.8799 145.653 41.5239 145.933 41.2359C146.221 40.9399 146.693 40.7919 147.349 40.7919H149.221V45.9999H148.501V43.8159H147.493L146.113 45.9999H145.309ZM148.501 43.2399V41.3679H147.457C146.641 41.3679 146.233 41.6799 146.233 42.3039C146.233 42.9279 146.641 43.2399 147.457 43.2399H148.501Z" fill="white"/>
<path d="M78.0242 35V1.39997H95.6882V11.144H88.1042V35H78.0242Z" fill="#FBBD09"/>
<path d="M99.3992 1.39997H108.999V18.152L116.055 1.39997H125.127V35H115.527V18.872L108.471 35H99.3992V1.39997Z" fill="#FBBD09"/>
<path d="M149.18 23.528V34.712C147.356 35.576 145.548 36.008 143.756 36.008C141.388 36.008 139.276 35.48 137.42 34.424C135.564 33.368 134.092 31.976 133.004 30.248C131.916 28.52 131.084 26.632 130.508 24.584C129.964 22.536 129.692 20.408 129.692 18.2C129.692 15.064 130.204 12.168 131.228 9.51197C132.252 6.85597 133.836 4.67997 135.98 2.98397C138.156 1.25597 140.7 0.391968 143.612 0.391968C145.404 0.391968 147.26 0.839968 149.18 1.73597V13.016C147.708 11.768 146.284 11.144 144.908 11.144C143.18 11.144 141.82 11.816 140.828 13.16C139.868 14.504 139.388 16.296 139.388 18.536C139.388 20.616 139.9 22.264 140.924 23.48C141.948 24.664 143.276 25.256 144.908 25.256C146.348 25.256 147.772 24.68 149.18 23.528Z" fill="#FBBD09"/>
</svg>
