<svg width="40" height="40" viewBox="0 0 40 40" fill="none" xmlns="http://www.w3.org/2000/svg">
<g clip-path="url(#clip0)">
<path d="M38.6336 18.6282C39.387 18.6282 40 18.0153 40 17.2618V10.8853C40 10.1318 39.387 9.51887 38.6336 9.51887H37.3185V8.08809C37.3185 7.33465 36.7055 6.72168 35.9521 6.72168H33.0245C32.2711 6.72168 31.6581 7.33465 31.6581 8.08809V9.51887H29.3141V8.08809C29.3141 7.33465 28.7012 6.72168 27.9477 6.72168H25.0202C24.2667 6.72168 23.6538 7.33465 23.6538 8.08809V9.51887H21.3098V8.08809C21.3098 7.33465 20.6968 6.72168 19.9434 6.72168H17.0158C16.2623 6.72168 15.6494 7.33465 15.6494 8.08809V9.51887H14.3343C13.5809 9.51887 12.9679 10.1318 12.9679 10.8853V16.2307H1.36641C0.612969 16.2307 0 16.8437 0 17.5971V31.9118C0 32.6652 0.612969 33.2782 1.36641 33.2782H25.6657C26.4191 33.2782 27.0321 32.6652 27.0321 31.9118V28.8406H32.8523C33.1758 28.8406 33.438 28.5784 33.438 28.255C33.438 27.9315 33.1758 27.6693 32.8523 27.6693H27.0321V20.9025H38.6336C38.7412 20.9025 38.8288 20.99 38.8288 21.0977V27.4742C38.8288 27.5818 38.7412 27.6694 38.6336 27.6694H35.7019C35.3784 27.6694 35.1162 27.9316 35.1162 28.255C35.1162 28.5785 35.3784 28.8407 35.7019 28.8407H38.6336C39.387 28.8407 40 28.2277 40 27.4743V21.0978C40 20.3443 39.387 19.7314 38.6336 19.7314H37.3185V18.6282H38.6336ZM32.8294 8.08809C32.8294 7.98043 32.917 7.89285 33.0246 7.89285H35.9522C36.0598 7.89285 36.1474 7.98043 36.1474 8.08809V9.51887H32.8294V8.08809ZM24.8249 8.08809C24.8249 7.98043 24.9125 7.89285 25.0202 7.89285H27.9477C28.0554 7.89285 28.143 7.98043 28.143 8.08809V9.51887H24.8249V8.08809ZM16.8205 8.08809C16.8205 7.98043 16.9081 7.89285 17.0158 7.89285H19.9434C20.051 7.89285 20.1386 7.98043 20.1386 8.08809V9.51887H16.8205V8.08809ZM14.1391 10.8853C14.1391 10.7776 14.2267 10.69 14.3344 10.69H38.6336C38.7412 10.69 38.8288 10.7776 38.8288 10.8853V17.2618C38.8288 17.3695 38.7412 17.4571 38.6336 17.4571H27.0249C26.9545 16.7693 26.3718 16.2308 25.6657 16.2308H14.1391V10.8853ZM31.6581 18.6282V19.7314H29.3141V18.6282H31.6581ZM25.8609 31.9118C25.8609 32.0195 25.7734 32.1071 25.6657 32.1071H1.36641C1.25875 32.1071 1.17117 32.0195 1.17117 31.9118V17.5971C1.17117 17.4895 1.25875 17.4019 1.36641 17.4019H25.6657C25.7734 17.4019 25.8609 17.4895 25.8609 17.5971V31.9118ZM27.0321 18.6282H28.143V19.7314H27.0321V18.6282ZM36.1473 19.7314H32.8293V18.6282H36.1473V19.7314Z" fill="white" fill-opacity="0.7"/>
<path d="M5.86878 18.5296C4.28839 18.5296 3.00269 19.8153 3.00269 21.3957C3.00269 22.9761 4.28839 24.2618 5.86878 24.2618C7.44917 24.2618 8.73487 22.9761 8.73487 21.3957C8.73479 19.8153 7.44909 18.5296 5.86878 18.5296ZM5.86878 23.0906C4.93417 23.0906 4.17386 22.3303 4.17386 21.3957C4.17386 20.4612 4.93417 19.7009 5.86878 19.7009C6.80331 19.7009 7.56362 20.4612 7.56362 21.3957C7.56362 22.3302 6.80331 23.0906 5.86878 23.0906Z" fill="white" fill-opacity="0.7"/>
<path d="M5.86878 25.3247C4.28839 25.3247 3.00269 26.6104 3.00269 28.1908C3.00269 29.0844 3.40839 29.911 4.11573 30.4584C4.37144 30.6563 4.73925 30.6094 4.93722 30.3537C5.13519 30.098 5.08831 29.7301 4.83253 29.5322C4.41394 29.2082 4.17386 28.7193 4.17386 28.1908C4.17386 27.2563 4.93417 26.496 5.86878 26.496C6.80331 26.496 7.56362 27.2563 7.56362 28.1908C7.56362 28.7242 7.31995 29.2158 6.89519 29.5397C6.638 29.7358 6.58847 30.1033 6.78456 30.3604C6.89979 30.5116 7.07417 30.591 7.25065 30.591C7.37448 30.591 7.49925 30.5518 7.60526 30.471C8.32308 29.9236 8.73479 29.0925 8.73479 28.1907C8.73479 26.6104 7.44909 25.3247 5.86878 25.3247Z" fill="white" fill-opacity="0.7"/>
<path d="M13.516 25.3247C11.9356 25.3247 10.6499 26.6104 10.6499 28.1908C10.6499 29.7712 11.9356 31.0569 13.516 31.0569C15.0964 31.0569 16.3821 29.7712 16.3821 28.1908C16.3822 26.6104 15.0964 25.3247 13.516 25.3247ZM13.516 29.8857C12.5815 29.8857 11.8212 29.1254 11.8212 28.1908C11.8212 27.2563 12.5815 26.496 13.516 26.496C14.4506 26.496 15.2109 27.2563 15.2109 28.1908C15.2109 29.1253 14.4506 29.8857 13.516 29.8857Z" fill="white" fill-opacity="0.7"/>
<path d="M21.1635 18.5296C19.5831 18.5296 18.2974 19.8153 18.2974 21.3957C18.2974 22.9761 19.5831 24.2618 21.1635 24.2618C22.7438 24.2618 24.0296 22.9761 24.0296 21.3957C24.0295 19.8153 22.7438 18.5296 21.1635 18.5296ZM21.1635 23.0906C20.2288 23.0906 19.4685 22.3303 19.4685 21.3957C19.4685 20.4612 20.2288 19.7009 21.1635 19.7009C22.098 19.7009 22.8583 20.4612 22.8583 21.3957C22.8583 22.3302 22.098 23.0906 21.1635 23.0906Z" fill="white" fill-opacity="0.7"/>
<path d="M21.1635 25.3247C19.5831 25.3247 18.2974 26.6104 18.2974 28.1908C18.2974 29.7712 19.5831 31.0569 21.1635 31.0569C22.7438 31.0569 24.0296 29.7712 24.0296 28.1908C24.0295 26.6104 22.7438 25.3247 21.1635 25.3247ZM21.1635 29.8857C20.2288 29.8857 19.4685 29.1254 19.4685 28.1908C19.4685 27.2563 20.2288 26.496 21.1635 26.496C22.098 26.496 22.8583 27.2563 22.8583 28.1908C22.8583 29.1253 22.098 29.8857 21.1635 29.8857Z" fill="white" fill-opacity="0.7"/>
<path d="M13.516 18.5296C13.0699 18.5296 12.6422 18.6294 12.2448 18.8264C11.955 18.97 11.8365 19.3213 11.9801 19.6111C12.1237 19.9009 12.4749 20.0194 12.7648 19.8758C12.9991 19.7597 13.2519 19.7008 13.516 19.7008C14.4506 19.7008 15.2109 20.4611 15.2109 21.3956C15.2109 22.3302 14.4506 23.0905 13.516 23.0905C12.6848 23.0905 11.9645 22.4722 11.8403 21.6522C11.7919 21.3324 11.4937 21.1121 11.1737 21.1609C10.8539 21.2093 10.6339 21.5077 10.6823 21.8275C10.8924 23.2152 12.1106 24.2618 13.516 24.2618C15.0964 24.2618 16.3821 22.9761 16.3821 21.3957C16.3822 19.8153 15.0964 18.5296 13.516 18.5296Z" fill="white" fill-opacity="0.7"/>
</g>
<defs>
<clipPath id="clip0">
<rect width="40" height="40" fill="white"/>
</clipPath>
</defs>
</svg>
