<svg width="30" height="30" viewBox="0 0 30 30" fill="none" xmlns="http://www.w3.org/2000/svg">
<g clip-path="url(#clip0)">
<path d="M22.0173 28.8221L22.0585 29.7014C23.5118 29.6334 24.3138 29.2485 25.0894 28.8762C25.8918 28.491 26.6498 28.1273 28.2003 28.1273V27.2469C26.4494 27.2469 25.5644 27.6717 24.7085 28.0826C23.9801 28.4322 23.2921 28.7624 22.0173 28.8221Z" fill="white" fill-opacity="0.7"/>
<path d="M14.9948 27.2469C13.244 27.2469 12.359 27.6717 11.5031 28.0826C10.7747 28.4322 10.0867 28.7625 8.81177 28.8221L8.85291 29.7014C10.3064 29.6335 11.1085 29.2485 11.884 28.8762C12.6864 28.491 13.4443 28.1272 14.9948 28.1272C16.5453 28.1272 17.3033 28.491 18.1057 28.8762C18.8814 29.2485 19.6834 29.6334 21.1369 29.7014L21.178 28.8221C19.9031 28.7625 19.2151 28.4322 18.4866 28.0826C17.6307 27.6717 16.7456 27.2469 14.9948 27.2469Z" fill="white" fill-opacity="0.7"/>
<path d="M1.79004 27.2469V28.1273C3.34044 28.1273 4.09829 28.4911 4.9007 28.8762C5.67633 29.2485 6.47838 29.6336 7.93194 29.7015L7.97297 28.8221C6.698 28.7625 6.01004 28.4323 5.28165 28.0826C4.42578 27.6717 3.5408 27.2469 1.79004 27.2469Z" fill="white" fill-opacity="0.7"/>
<path d="M23.7986 3.85907H24.6789V4.73941H23.7986V3.85907Z" fill="white" fill-opacity="0.7"/>
<path d="M29.9706 0.298492H27.3101V3.85901H25.5592V4.73935H29.1099V11.782H26.4101V9.52254C26.4101 7.83434 25.0367 6.46089 23.3485 6.46089C21.6603 6.46089 20.2869 7.83434 20.2869 9.52254V11.782H18.0568V9.52254C18.0568 7.83434 16.6833 6.46089 14.9951 6.46089C13.3069 6.46089 11.9334 7.83434 11.9334 9.52254V11.782H9.70325V9.52254C9.70325 7.83434 8.32985 6.46089 6.64165 6.46089C4.95345 6.46089 3.58 7.83434 3.58 9.52254V11.782H0.880342V4.73941H22.9182V3.85906H2.66051V0.298492H0V25.8675H2.71926V12.6624H4.42789L3.48739 26.2352C4.45506 26.6998 5.5046 27.18 7.48273 27.18C9.46092 27.18 10.4615 26.6997 11.4292 26.2352C12.2709 25.8312 13.0659 25.4496 14.5536 25.3862L14.5161 24.5067C13.8457 24.5352 13.2972 24.6233 12.8232 24.7459L13.6825 12.6623H16.3637L17.2059 24.7562C16.7225 24.6281 16.1616 24.5358 15.4717 24.5065L15.4343 25.3861C16.9232 25.4493 17.7185 25.831 18.5605 26.2351C19.5282 26.6997 20.5289 27.18 22.5072 27.18C24.4854 27.18 25.5329 26.6997 26.5006 26.2352L25.5801 12.6623H27.2807V25.8674H30L29.9706 0.298492ZM28.1904 1.17883H29.0903V3.85901H28.1904V1.17883ZM0.880342 1.17883H1.78017V3.85901H0.880342V1.17883ZM1.83892 24.9872H0.880342V12.6624H1.83892V24.9872ZM21.1672 10.0215H22.9182V9.14112H21.2013C21.3823 8.11969 22.2759 7.34129 23.3485 7.34129C24.4211 7.34129 25.3147 8.11969 25.4957 9.14112H23.7985V10.0215H25.5298V11.7821H25.5188H21.1964H21.1672V10.0215ZM4.46034 10.0215H6.19168V9.14112H4.49444C4.67544 8.11969 5.56904 7.34129 6.64165 7.34129C7.7142 7.34129 8.60781 8.11969 8.78881 9.14112H7.07202V10.0215H8.8229V11.7821H8.81293H4.49051H4.46034V10.0215ZM11.9192 25.0466C11.6107 25.1717 11.3279 25.3073 11.0482 25.4415C10.1289 25.8829 9.26055 26.2997 7.48273 26.2997C6.00687 26.2997 5.15787 26.0123 4.38604 25.6623L5.31046 12.6623H7.9918L8.84867 24.9674L9.72684 24.9063L8.87432 12.6623H12.8001L11.9192 25.0466ZM12.8626 11.782H12.8138V10.0214H14.5759V9.14106H12.8478C13.0288 8.11963 13.9224 7.34123 14.995 7.34123C16.0676 7.34123 16.9613 8.11963 17.1423 9.14106H15.4562V10.0214H17.1764V11.782H12.8626ZM25.6029 25.6629C24.8313 26.0127 23.9824 26.2997 22.5072 26.2997C20.7292 26.2997 19.8608 25.8829 18.9414 25.4416C18.6736 25.3131 18.403 25.1832 18.1096 25.0627L17.2463 12.6624H21.1338L20.2631 24.9057L21.1413 24.9681L22.0164 12.6624H24.6976L25.6029 25.6629ZM29.1197 24.9872H28.1611V12.6624H29.1197V24.9872Z" fill="white" fill-opacity="0.7"/>
<path d="M1.78027 5.59033H2.66062V6.47067H1.78027V5.59033Z" fill="white" fill-opacity="0.7"/>
<path d="M1.78027 7.35104H2.66062V8.23139H1.78027V7.35104Z" fill="white" fill-opacity="0.7"/>
<path d="M5.75146 19.6758H6.6318V20.5561H5.75146V19.6758Z" fill="white" fill-opacity="0.7"/>
<path d="M7.07202 21.4365H7.95236V22.3169H7.07202V21.4365Z" fill="white" fill-opacity="0.7"/>
<path d="M23.3584 19.6758H24.2387V20.5561H23.3584V19.6758Z" fill="white" fill-opacity="0.7"/>
<path d="M22.0378 21.4365H22.9182V22.3169H22.0378V21.4365Z" fill="white" fill-opacity="0.7"/>
<path d="M14.1533 22.3168H15.0337V23.1972H14.1533V22.3168Z" fill="white" fill-opacity="0.7"/>
<path d="M15.0161 20.5562H15.8965V21.4365H15.0161V20.5562Z" fill="white" fill-opacity="0.7"/>
</g>
<defs>
<clipPath id="clip0">
<rect width="30" height="30" fill="white"/>
</clipPath>
</defs>
</svg>
