<svg width="150" height="26" viewBox="0 0 150 26" fill="none" xmlns="http://www.w3.org/2000/svg">
<path d="M65.3127 17.3235V12.085C65.3127 10.1083 64.0062 8.7777 61.9035 8.76024C61.3047 8.72288 60.7064 8.8412 60.1711 9.10287C59.6358 9.36455 59.183 9.75999 58.8599 10.248C58.5655 9.77447 58.1442 9.38635 57.6404 9.12452C57.1366 8.86269 56.5689 8.73684 55.9972 8.76024C55.4994 8.73704 55.0039 8.83951 54.5596 9.05754C54.1154 9.27557 53.7377 9.60162 53.4639 10.0035V8.95581H51.5784V17.3235H53.482V12.6891C53.482 11.2363 54.3144 10.468 55.6028 10.468C56.8911 10.468 57.4883 11.2538 57.4883 12.6717V17.3235H59.381V12.6891C59.381 11.2363 60.2496 10.468 61.5018 10.468C62.754 10.468 63.4054 11.2538 63.4054 12.6717V17.3235H65.3127ZM93.4797 8.9628H90.3999V6.42735H88.4963V8.9628H86.7374V10.6252H88.4963V14.4353C88.4963 16.3771 89.2744 17.533 91.5037 17.533C92.3364 17.5356 93.1529 17.3117 93.8597 16.887L93.3169 15.3294C92.811 15.6201 92.237 15.7823 91.6485 15.8008C90.7075 15.8008 90.3963 15.2421 90.3963 14.4039V10.6252H93.4761L93.4797 8.9628ZM109.559 8.75326C109.099 8.74032 108.645 8.84738 108.243 9.06313C107.841 9.27888 107.507 9.59533 107.276 9.97907V8.9628H105.408V17.3235H107.294V12.6368C107.294 11.2398 107.909 10.4855 109.143 10.4855C109.547 10.4798 109.948 10.551 110.323 10.695L110.902 8.98026C110.471 8.83153 110.017 8.75477 109.559 8.75326V8.75326ZM85.25 9.62635C84.1825 9.01432 82.9552 8.71126 81.7142 8.75326C79.521 8.75326 78.0951 9.76953 78.0951 11.4284C78.0951 12.7939 79.1447 13.6321 81.0845 13.894L81.9712 14.0162C83.0026 14.1559 83.4948 14.4179 83.4948 14.8893C83.4948 15.5354 82.8072 15.9056 81.5188 15.9056C80.4793 15.9375 79.4592 15.6298 78.6235 15.0325L77.7658 16.4469C78.8638 17.1878 80.1795 17.5685 81.5188 17.533C84.0195 17.533 85.4708 16.3945 85.4708 14.8055C85.4708 13.3352 84.3272 12.5669 82.4452 12.305L81.5586 12.1828C80.7443 12.078 80.0892 11.9208 80.0892 11.362C80.0892 10.7509 80.7045 10.3842 81.7395 10.3842C82.6879 10.3977 83.617 10.6441 84.4393 11.1001L85.25 9.62635ZM135.743 8.75326C135.283 8.74032 134.828 8.84738 134.427 9.06313C134.025 9.27888 133.69 9.59533 133.459 9.97907V8.9628H131.592V17.3235H133.477V12.6368C133.477 11.2398 134.093 10.4855 135.327 10.4855C135.731 10.4798 136.131 10.551 136.507 10.695L137.086 8.98026C136.655 8.83153 136.201 8.75477 135.743 8.75326V8.75326ZM111.463 13.1431C111.463 15.6786 113.294 17.533 116.084 17.533C117.216 17.5871 118.327 17.2308 119.2 16.5342L118.296 15.0639C117.644 15.5429 116.849 15.8063 116.03 15.8148C114.525 15.8148 113.421 14.7461 113.421 13.1397C113.421 11.5332 114.528 10.482 116.03 10.4645C116.849 10.4731 117.644 10.7364 118.296 11.2154L119.2 9.74509C118.327 9.04853 117.216 8.69225 116.084 8.74627C113.294 8.74627 111.463 10.6007 111.463 13.1362V13.1431ZM129.117 13.1431V8.95232H127.231V9.9686C126.91 9.56829 126.493 9.24811 126.017 9.03484C125.541 8.82157 125.019 8.72143 124.495 8.74278C122.067 8.74278 120.152 10.5798 120.152 13.1327C120.152 15.6856 122.056 17.5226 124.495 17.5226C125.019 17.5439 125.541 17.4438 126.017 17.2305C126.493 17.0172 126.91 16.6971 127.231 16.2967V17.3095H129.117V13.1431ZM122.103 13.1431C122.103 11.6729 123.098 10.468 124.73 10.468C126.29 10.468 127.34 11.624 127.34 13.1431C127.34 14.6623 126.29 15.8183 124.73 15.8183C123.098 15.8183 122.103 14.6099 122.103 13.1431ZM99.3534 8.75326C96.8201 8.75326 95.0395 10.5379 95.0395 13.1431C95.0395 15.8008 96.8889 17.533 99.4801 17.533C100.774 17.5768 102.039 17.159 103.034 16.3596L102.111 15.0116C101.391 15.5673 100.5 15.8746 99.5778 15.8847C98.3618 15.8847 97.258 15.3433 96.9866 13.8381H103.421C103.439 13.6111 103.457 13.3841 103.457 13.1397C103.457 10.5344 101.771 8.74976 99.3426 8.74976L99.3534 8.75326ZM99.3173 10.3807C100.533 10.3807 101.311 11.1141 101.51 12.4098H97.0192C97.2182 11.2014 97.9782 10.3807 99.3209 10.3807H99.3173ZM146.6 13.1431V5.60315H144.715V9.97558C144.393 9.57527 143.977 9.25509 143.501 9.04182C143.025 8.82856 142.503 8.72841 141.979 8.74976C139.55 8.74976 137.636 10.5867 137.636 13.1397C137.636 15.6926 139.539 17.5296 141.979 17.5296C142.503 17.5509 143.025 17.4508 143.501 17.2375C143.977 17.0242 144.393 16.704 144.715 16.3037V17.3165H146.6V13.1431ZM148.804 16.5517C148.879 16.5514 148.953 16.5657 149.021 16.5936C149.087 16.6208 149.148 16.6599 149.199 16.7088C149.249 16.7568 149.29 16.8137 149.318 16.8765C149.347 16.9416 149.362 17.0117 149.362 17.0825C149.362 17.1534 149.347 17.2235 149.318 17.2886C149.29 17.3513 149.249 17.4082 149.199 17.4562C149.147 17.5049 149.087 17.544 149.021 17.5715C148.953 17.5997 148.879 17.6139 148.804 17.6134C148.694 17.6147 148.586 17.5846 148.493 17.5268C148.4 17.4691 148.327 17.3862 148.283 17.2886C148.254 17.2235 148.239 17.1534 148.239 17.0825C148.239 17.0117 148.254 16.9416 148.283 16.8765C148.34 16.7482 148.446 16.6466 148.58 16.5936C148.653 16.5642 148.732 16.5499 148.811 16.5517H148.804ZM148.804 17.4946C148.861 17.4955 148.918 17.4848 148.971 17.4632C149.02 17.4424 149.066 17.4128 149.105 17.3759C149.185 17.298 149.23 17.1925 149.23 17.0825C149.23 16.9726 149.185 16.8671 149.105 16.7892C149.066 16.7521 149.021 16.7225 148.971 16.7019C148.918 16.6805 148.861 16.6698 148.804 16.6704C148.746 16.6697 148.688 16.6804 148.634 16.7019C148.57 16.7285 148.513 16.7699 148.469 16.8225C148.424 16.8751 148.394 16.9373 148.381 17.0038C148.367 17.0702 148.371 17.1389 148.391 17.2037C148.411 17.2686 148.447 17.3277 148.497 17.3759C148.536 17.4133 148.583 17.4429 148.634 17.4632C148.69 17.4857 148.751 17.4964 148.811 17.4946H148.804ZM148.837 16.8311C148.891 16.8274 148.945 16.8422 148.989 16.873C149.007 16.8867 149.021 16.9043 149.03 16.9243C149.04 16.9444 149.044 16.9663 149.043 16.9882C149.044 17.0071 149.04 17.0259 149.033 17.0434C149.025 17.0609 149.014 17.0766 149 17.0895C148.966 17.118 148.924 17.1352 148.88 17.1384L149.047 17.3235H148.916L148.761 17.1384H148.71V17.3235H148.601V16.8346L148.837 16.8311ZM148.71 16.9219V17.0546H148.837C148.859 17.0609 148.883 17.0609 148.905 17.0546C148.914 17.0492 148.92 17.0419 148.925 17.0333C148.929 17.0248 148.931 17.0153 148.931 17.0057C148.931 16.9961 148.929 16.9866 148.925 16.9781C148.92 16.9695 148.914 16.9622 148.905 16.9568C148.883 16.9505 148.859 16.9505 148.837 16.9568L148.71 16.9219ZM139.594 13.1431C139.594 11.6729 140.589 10.468 142.221 10.468C143.781 10.468 144.83 11.624 144.83 13.1431C144.83 14.6623 143.781 15.8183 142.221 15.8183C140.589 15.8183 139.594 14.6099 139.594 13.1431ZM75.9346 13.1431V8.95232H74.049V9.9686C73.7275 9.57169 73.3126 9.25442 72.8387 9.04307C72.3648 8.83172 71.8455 8.73237 71.3239 8.75326C68.8955 8.75326 66.981 10.5902 66.981 13.1431C66.981 15.6961 68.8847 17.533 71.3239 17.533C71.8482 17.5544 72.3703 17.4543 72.8463 17.241C73.3223 17.0277 73.7384 16.7075 74.0599 16.3072V17.32H75.9454L75.9346 13.1431ZM68.9209 13.1431C68.9209 11.6729 69.9161 10.468 71.5483 10.468C73.1081 10.468 74.1576 11.624 74.1576 13.1431C74.1576 14.6623 73.1081 15.8183 71.5483 15.8183C69.9161 15.8183 68.9209 14.6134 68.9209 13.1431V13.1431Z" fill="white"/>
<path d="M27.5191 3.20374H16.1191V22.974H27.5191V3.20374Z" fill="#FF5F00"/>
<path d="M16.8428 13.0947C16.8413 11.191 17.2885 9.31188 18.1506 7.59959C19.0127 5.8873 20.2672 4.38668 21.819 3.2113C19.897 1.75367 17.5888 0.847252 15.1582 0.595648C12.7276 0.344045 10.2726 0.757406 8.07394 1.78849C5.87526 2.81957 4.02153 4.42677 2.72464 6.42641C1.42774 8.42605 0.73999 10.7374 0.73999 13.0964C0.73999 15.4554 1.42774 17.7668 2.72464 19.7664C4.02153 21.7661 5.87526 23.3733 8.07394 24.4044C10.2726 25.4354 12.7276 25.8488 15.1582 25.5972C17.5888 25.3456 19.897 24.4392 21.819 22.9815C20.2667 21.8058 19.012 20.3046 18.1498 18.5917C17.2877 16.8788 16.8407 14.999 16.8428 13.0947V13.0947Z" fill="#EB001B"/>
<path d="M42.8998 13.0941C42.8998 15.4533 42.2119 17.7648 40.9147 19.7645C39.6176 21.7642 37.7636 23.3714 35.5646 24.4023C33.3657 25.4333 30.9105 25.8464 28.4797 25.5944C26.049 25.3424 23.7407 24.4356 21.8188 22.9775C23.3701 21.8011 24.6242 20.3 25.4865 18.5877C26.3489 16.8753 26.797 14.9963 26.797 13.0924C26.797 11.1885 26.3489 9.30948 25.4865 7.5971C24.6242 5.88471 23.3701 4.38369 21.8188 3.20726C23.741 1.74899 26.0496 0.842091 28.4806 0.590258C30.9117 0.338425 33.3672 0.75182 35.5663 1.78318C37.7654 2.81454 39.6193 4.42224 40.9162 6.42245C42.213 8.42267 42.9004 10.7347 42.8998 13.0941Z" fill="#F79E1B"/>
<path d="M41.6476 20.8786V20.4735H41.8177V20.3931H41.3943V20.477H41.5644V20.8821L41.6476 20.8786ZM42.4836 20.8786V20.3896H42.3714L42.2194 20.7389L42.0674 20.3896H41.9335V20.8786H42.0095V20.5119L42.1507 20.8297H42.2484L42.3895 20.5119V20.8821L42.4836 20.8786Z" fill="#F79E1B"/>
</svg>
