<?xml version="1.0" encoding="iso-8859-1"?>
<!-- Generator: Adobe Illustrator 19.0.0, SVG Export Plug-In . SVG Version: 6.00 Build 0)  -->
<svg version="1.1" id="Layer_1" xmlns="http://www.w3.org/2000/svg" xmlns:xlink="http://www.w3.org/1999/xlink" x="0px" y="0px"
	 viewBox="0 0 512 512" style="enable-background:new 0 0 512 512;" xml:space="preserve" fill="#ffffff">
<g>
	<g>
		<path d="M367.83,0H144.169c-22.081,0-40.045,17.964-40.045,40.045v77.09c0,4.199,3.403,7.601,7.601,7.601s7.601-3.402,7.601-7.601
			V92.493h273.347v323.708H119.326V167.353c0-4.199-3.403-7.601-7.601-7.601s-7.601,3.402-7.601,7.601v304.601
			c0,22.081,17.964,40.045,40.045,40.045h223.662c22.081,0,40.045-17.964,40.045-40.045V40.045C407.876,17.964,389.911,0,367.83,0z
			 M392.673,471.955c0,13.698-11.144,24.843-24.843,24.843H144.169c-13.698,0-24.843-11.144-24.843-24.843v-40.552h273.347V471.955z
			 M392.674,77.291H119.326V40.045c0-13.698,11.144-24.843,24.843-24.843h223.662c13.698,0,24.843,11.144,24.843,24.843V77.291z"/>
	</g>
</g>
<g>
	<g>
		<path d="M334.684,150.976H183.601c-4.198,0-7.601,3.402-7.601,7.601v155.111c0,4.199,3.403,7.601,7.601,7.601h151.082
			c4.198,0,7.601-3.402,7.601-7.601V158.577C342.285,154.378,338.882,150.976,334.684,150.976z M327.082,306.087h-135.88V166.179
			h135.88V306.087z"/>
	</g>
</g>
<g>
	<g>
		<path d="M270.511,442.856h-29.024c-4.198,0-7.601,3.402-7.601,7.601v28.144c0,4.199,3.403,7.601,7.601,7.601h29.024
			c4.198,0,7.601-3.402,7.601-7.601v-28.144C278.112,446.258,274.709,442.856,270.511,442.856z M262.91,471h-13.821v-12.941h13.821
			V471z"/>
	</g>
</g>
<g>
	<g>
		<path d="M296.246,37.732h-74.206c-4.198,0-7.601,3.402-7.601,7.601c0,4.199,3.403,7.601,7.601,7.601h74.206
			c4.198,0,7.601-3.402,7.601-7.601C303.847,41.134,300.443,37.732,296.246,37.732z"/>
	</g>
</g>
<g>
	<g>
		<path d="M294.813,271.941l-24.898-81.148c-1.16-3.871-5.935-5.677-10.836-5.677c-4.774,0-9.547,1.806-10.708,5.677l-24.9,81.148
			c-0.129,0.516-0.258,1.033-0.258,1.289c0,4.129,6.064,6.967,10.579,6.967c2.838,0,5.031-0.903,5.676-3.354l4.902-17.16h29.544
			l4.902,17.16c0.646,2.451,2.839,3.354,5.677,3.354c4.515,0,10.579-2.968,10.579-6.967
			C295.071,272.843,294.942,272.457,294.813,271.941z M247.854,246.526l11.224-39.606l11.224,39.606H247.854z"/>
	</g>
</g>
<g>
</g>
<g>
</g>
<g>
</g>
<g>
</g>
<g>
</g>
<g>
</g>
<g>
</g>
<g>
</g>
<g>
</g>
<g>
</g>
<g>
</g>
<g>
</g>
<g>
</g>
<g>
</g>
<g>
</g>
</svg>
