<svg id="Capa_1" enable-background="new 0 0 512 512" height="512" viewBox="0 0 512 512" width="512" xmlns="http://www.w3.org/2000/svg"><g><path d="m504.5 363.5h-16v-252.5c0-20.678-16.822-37.5-37.5-37.5h-390c-20.678 0-37.5 16.822-37.5 37.5v36.07c0 4.142 3.358 7.5 7.5 7.5s7.5-3.358 7.5-7.5v-36.07c0-12.407 10.093-22.5 22.5-22.5h390c12.407 0 22.5 10.093 22.5 22.5v212.5h-50.58c-4.142 0-7.5 3.358-7.5 7.5s3.358 7.5 7.5 7.5h50.58v25h-435v-25h351.73c4.142 0 7.5-3.358 7.5-7.5s-3.358-7.5-7.5-7.5h-351.73v-143.74c0-4.142-3.358-7.5-7.5-7.5s-7.5 3.358-7.5 7.5v183.74h-16c-4.142 0-7.5 3.358-7.5 7.5v30c0 20.678 16.822 37.5 37.5 37.5h92.87c4.142 0 7.5-3.358 7.5-7.5s-3.358-7.5-7.5-7.5h-92.87c-12.407 0-22.5-10.093-22.5-22.5v-22.5h179.255c3.484 17.096 18.635 30 36.745 30h50c18.11 0 33.261-12.904 36.745-30h179.255v22.5c0 12.407-10.093 22.5-22.5 22.5h-311.44c-4.142 0-7.5 3.358-7.5 7.5s3.358 7.5 7.5 7.5h311.44c20.678 0 37.5-16.822 37.5-37.5v-30c0-4.142-3.358-7.5-7.5-7.5zm-223.5 30h-50c-9.778 0-18.12-6.27-21.215-15h92.43c-3.095 8.73-11.437 15-21.215 15z"/><path d="m165.436 131.22c-48.248 0-87.5 39.252-87.5 87.5s39.252 87.5 87.5 87.5 87.5-39.252 87.5-87.5c0-4.142-3.358-7.5-7.5-7.5h-72.5v-72.5c0-4.142-3.358-7.5-7.5-7.5zm72.114 95c-3.766 36.465-34.671 65-72.115 65-39.977 0-72.5-32.523-72.5-72.5 0-37.444 28.535-68.349 65-72.115v72.115c0 4.142 3.358 7.5 7.5 7.5z"/><path d="m271.895 199.5c4.142 0 7.5-3.361 7.5-7.503 0-48.248-39.252-87.5-87.5-87.5-4.142 0-7.5 3.358-7.5 7.5v80.003c0 4.142 3.358 7.5 7.5 7.5zm-72.5-79.618c34.001 3.511 61.107 30.616 64.615 64.618h-64.615z"/><path d="m314.564 199.5h112c4.142 0 7.5-3.358 7.5-7.5s-3.358-7.5-7.5-7.5h-112c-4.142 0-7.5 3.358-7.5 7.5s3.358 7.5 7.5 7.5z"/><path d="m314.564 233.943h112c4.142 0 7.5-3.358 7.5-7.5s-3.358-7.5-7.5-7.5h-112c-4.142 0-7.5 3.358-7.5 7.5s3.358 7.5 7.5 7.5z"/><path d="m314.564 268.386h75.333c4.142 0 7.5-3.358 7.5-7.5s-3.358-7.5-7.5-7.5h-75.333c-4.142 0-7.5 3.358-7.5 7.5s3.358 7.5 7.5 7.5z"/></g></svg>