<?xml version="1.0" encoding="utf-8"?>
<!-- Generator: Adobe Illustrator 14.0.0, SVG Export Plug-In . SVG Version: 6.00 Build 43363)  -->
<!DOCTYPE svg PUBLIC "-//W3C//DTD SVG 1.1//EN" "http://www.w3.org/Graphics/SVG/1.1/DTD/svg11.dtd">
<svg version="1.1" id="walmart" xmlns="http://www.w3.org/2000/svg" xmlns:xlink="http://www.w3.org/1999/xlink" x="0px" y="0px"
	 width="400px" height="300px" viewBox="0 0 400 300" enable-background="new 0 0 400 300" xml:space="preserve">
	 <filter id="shadow" class="shadow">
      <feDropShadow dx="0" dy="0" stdDeviation="10" flood-color="rgba(153,174,210,.5)" />
    </filter>
	<linearGradient id="linear-gradient">
  <stop offset="0%" stop-color="rgba(221,231,255,1)"/>
  <stop offset="100%" stop-color="rgba(249,235,255,1)"/>
</linearGradient>
<path id="a_1_" fill="url(#linear-gradient)" filter="url(#shadow)" d="M231.897,150.937c0-8.576-3.666-16.118-16.04-16.118c-6.351,0-11.397,1.783-14.149,3.372
	l2.014,6.892c2.516-1.588,6.525-2.901,10.318-2.901c6.28-0.015,7.307,3.556,7.307,5.845v0.54
	c-13.689-0.022-22.336,4.716-22.336,14.373c0,5.896,4.407,11.423,12.063,11.423c4.713,0,8.65-1.881,11.01-4.89h0.236
	c0,0,1.562,6.534,10.174,4.038c-0.448-2.723-0.596-5.629-0.596-9.118V150.937z M221.681,159.993c0,0.697-0.068,1.422-0.255,2.048
	c-0.79,2.619-3.509,4.837-6.905,4.837c-2.825,0-5.082-1.61-5.082-5.008c0-5.197,5.726-6.634,12.242-6.6V159.993z"/>
<path id="w" fill="url(#linear-gradient)" filter="url(#shadow)" d="M72.982,123.142l-4.544,21.775c-1.225,6.338-2.328,11.293-3.185,17.094h-0.152
	c-0.778-5.743-1.762-10.5-3.006-16.675l-4.729-22.194H46.171l-5.056,21.634c-1.434,6.574-2.774,11.883-3.628,17.483h-0.153
	c-0.875-5.274-2.04-11.945-3.295-18.309c0,0-3.009-15.471-4.062-20.808H18.666c0,0,8.94,36.642,10.369,42.592
	c1.665,6.943,4.667,9.495,13.324,7.775l5.581-22.719c1.417-5.648,2.364-9.667,3.274-15.409h0.161
	c0.637,5.799,1.55,9.78,2.715,15.426c0,0,2.271,10.313,3.437,15.73c1.168,5.413,4.415,8.829,12.892,6.971l13.308-50.368H72.982z"/>
<path id="a" fill="url(#linear-gradient)" filter="url(#shadow)" d="M114.249,150.937c0-8.576-3.662-16.118-16.037-16.118c-6.357,0-11.399,1.783-14.153,3.372
	l2.016,6.892c2.516-1.588,6.524-2.901,10.32-2.901c6.282-0.015,7.309,3.556,7.309,5.845v0.54
	c-13.691-0.022-22.336,4.716-22.336,14.373c0,5.896,4.404,11.423,12.059,11.423c4.709,0,8.649-1.881,11.011-4.89h0.23
	c0,0,1.565,6.534,10.184,4.038c-0.455-2.723-0.602-5.629-0.602-9.118V150.937z M104.031,159.993c0,0.697-0.058,1.422-0.254,2.048
	c-0.791,2.619-3.504,4.837-6.899,4.837c-2.832,0-5.081-1.61-5.081-5.008c0-5.197,5.722-6.634,12.234-6.6V159.993z"/>
<polygon id="l" fill="url(#linear-gradient)" filter="url(#shadow)" points="121.075,173.51 131.3,173.51 131.3,162.813 131.3,123.138 121.075,123.138 "/>
<path id="t" fill="url(#linear-gradient)" filter="url(#shadow)" d="M275.205,123.142H265.12v37.161c0,5.116,0.962,8.709,3.027,10.903
	c1.799,1.914,4.766,3.155,8.32,3.155c3.029,0,6.006-0.572,7.404-1.097l-0.134-7.993c-1.04,0.257-2.244,0.463-3.884,0.463
	c-3.483,0-4.649-2.23-4.649-6.832v-14.211h8.903v-9.64h-8.903V123.142z"/>
<path id="r" fill="url(#linear-gradient)" filter="url(#shadow)" d="M248.26,142.808h-0.29v-7.135h-9.252v37.837h10.545v-19.376c0-1.045,0.067-1.957,0.23-2.792
	c0.784-4.059,3.887-6.65,8.347-6.65c1.222,0,2.098,0.131,3.039,0.267v-9.907c-0.791-0.162-1.331-0.233-2.322-0.233
	C254.617,134.818,250.139,137.357,248.26,142.808z"/>
<path id="m" fill="url(#linear-gradient)" filter="url(#shadow)" d="M182.235,134.818c-2.985,0-5.34,0.747-7.466,2.054c-1.792,1.1-3.393,2.659-4.794,4.713h-0.151
	c-1.626-4.079-5.447-6.767-10.43-6.767c-6.398,0-9.271,3.242-11.019,5.995h-0.153v-5.141h-9.759v37.837h10.281v-22.19
	c0-1.039,0.119-2.143,0.485-3.096c0.854-2.234,2.932-4.851,6.248-4.851c4.148,0,6.089,3.506,6.089,8.572v21.564h10.271v-22.458
	c0-0.993,0.136-2.188,0.431-3.07c0.843-2.541,3.081-4.609,6.169-4.609c4.206,0,6.224,3.448,6.224,9.405v20.731h10.278v-22.284
	C194.938,139.47,188.97,134.818,182.235,134.818z"/>
<path id="orange_5_" fill="url(#linear-gradient)" filter="url(#shadow)" d="M339.395,100.887c-3.299,0-5.926,1.841-5.926,4.084l2.006,22.711
	c0.218,1.363,1.893,2.418,3.922,2.422c2.025-0.003,3.7-1.059,3.926-2.422l2.006-22.711
	C345.328,102.728,342.701,100.887,339.395,100.887z"/>
<path id="orange_4_" fill="url(#linear-gradient)" filter="url(#shadow)" d="M308.316,119.489c-1.938-1.118-4.85,0.231-6.504,3.097c-1.652,2.86-1.366,6.056,0.574,7.178
	l20.664,9.622c1.301,0.482,3.058-0.441,4.072-2.195l-0.006,0.008c1.015-1.759,0.936-3.741-0.135-4.619L308.316,119.489z"/>
<path id="orange_3_" fill="url(#linear-gradient)" filter="url(#shadow)" d="M351.672,137.191c1.021,1.754,2.772,2.677,4.067,2.195l20.671-9.622
	c1.946-1.122,2.225-4.318,0.57-7.178c-1.652-2.864-4.562-4.215-6.504-3.097l-18.666,13.092c-1.068,0.878-1.14,2.86-0.133,4.619
	L351.672,137.191z"/>
<path id="orange_2_" fill="url(#linear-gradient)" filter="url(#shadow)" d="M339.396,158.466c-2.029,0.002-3.704,1.059-3.922,2.421l-2.006,22.711
	c0,2.244,2.627,4.092,5.926,4.092c3.307,0,5.934-1.848,5.934-4.092l-2.006-22.711C343.097,159.524,341.422,158.468,339.396,158.466z
	"/>
<path id="orange_1_" fill="url(#linear-gradient)" filter="url(#shadow)" d="M376.41,158.806l-20.671-9.619c-1.293-0.479-3.041,0.431-4.062,2.188
	c-1.007,1.757-0.936,3.737,0.133,4.619l18.666,13.092c1.942,1.118,4.852-0.238,6.504-3.095
	C378.635,163.127,378.356,159.93,376.41,158.806z"/>
<path id="orange" fill="url(#linear-gradient)" filter="url(#shadow)" d="M327.123,151.381c-1.015-1.762-2.771-2.681-4.072-2.194l-20.664,9.615
	c-1.94,1.124-2.227,4.325-0.574,7.188c1.654,2.856,4.565,4.207,6.504,3.089l18.666-13.086c1.07-0.884,1.149-2.862,0.135-4.619
	L327.123,151.381z"/>
</svg>
