<svg id="Capa_1" enable-background="new 0 0 512 512" height="512" viewBox="0 0 512 512" width="512" xmlns="http://www.w3.org/2000/svg" fill="#ffffff"><g><path d="m504.5 363.5h-16v-32.5-220c0-20.678-16.822-37.5-37.5-37.5h-390c-20.678 0-37.5 16.822-37.5 37.5v50.08c0 4.142 3.357 7.5 7.5 7.5s7.5-3.358 7.5-7.5v-50.08c0-12.407 10.094-22.5 22.5-22.5h390c12.406 0 22.5 10.093 22.5 22.5v212.5h-48.53c-4.143 0-7.5 3.358-7.5 7.5s3.357 7.5 7.5 7.5h48.53v25h-162.5-110-162.5v-25h353.79c4.143 0 7.5-3.358 7.5-7.5s-3.357-7.5-7.5-7.5h-353.79v-129.74c0-4.142-3.357-7.5-7.5-7.5s-7.5 3.358-7.5 7.5v137.24 32.5h-16c-4.143 0-7.5 3.358-7.5 7.5v30c0 20.678 16.822 37.5 37.5 37.5h107.26c4.143 0 7.5-3.358 7.5-7.5s-3.357-7.5-7.5-7.5h-107.26c-12.406 0-22.5-10.093-22.5-22.5v-22.5h16 163.255c3.484 17.096 18.635 30 36.745 30h50c18.11 0 33.261-12.904 36.745-30h163.255 16v22.5c0 12.407-10.094 22.5-22.5 22.5h-297.06c-4.143 0-7.5 3.358-7.5 7.5s3.357 7.5 7.5 7.5h297.06c20.678 0 37.5-16.822 37.5-37.5v-30c0-4.142-3.357-7.5-7.5-7.5zm-223.5 30h-50c-9.778 0-18.119-6.27-21.215-15h92.43c-3.096 8.73-11.437 15-21.215 15z"/><path d="m331.5 277.001c4.143 0 7.5-3.358 7.5-7.5v-127.002c0-4.142-3.357-7.5-7.5-7.5h-151c-4.143 0-7.5 3.358-7.5 7.5v127.002c0 4.142 3.357 7.5 7.5 7.5zm-143.5-127.002h136v112.002h-136z"/><path d="m293.688 199.292-68.666-34.333c-2.325-1.163-5.085-1.039-7.298.328-2.211 1.367-3.557 3.781-3.557 6.38v68.667c0 2.599 1.346 5.013 3.557 6.38 2.404 1.375 4.837 1.484 7.298.328l68.666-34.333c2.54-1.27 4.146-3.867 4.146-6.708s-1.606-5.439-4.146-6.709zm-64.521 28.906v-44.396l44.396 22.198z"/></g></svg>
