<svg width="50" height="63" viewBox="0 0 50 63" fill="none" xmlns="http://www.w3.org/2000/svg">
<g clip-path="url(#clip0)">
<path d="M9.41511 -0.00012207C9.97109 0.463784 10.4471 1.01585 10.8241 1.63402C11.3116 2.49039 11.538 3.46103 11.8378 4.39182C12.6639 7.15487 13.2867 10.0731 14.9661 12.4755L15.1758 12.8068C14.8173 13.3707 14.9043 14.0457 14.9252 14.6788C14.4524 13.9839 14.1002 13.2197 13.7018 12.4829C13.0254 11.2404 12.4714 9.93525 12.0475 8.58566C11.2801 6.34671 11.1302 3.93167 10.1867 1.74722C9.94872 1.15289 9.61849 0.606784 9.41511 -0.00012207ZM43.5913 0.523977C43.7811 0.375133 44.0012 0.490434 44.1742 0.602591C43.8209 1.04808 43.3858 1.45897 43.1919 2.00927C42.7505 3.21994 42.327 4.44214 42.0702 5.70731C41.6875 7.59854 41.1547 9.45624 40.4767 11.2628C40.0814 12.2187 39.6464 13.1652 39.053 14.0164C38.4439 14.8843 37.7887 15.7228 37.1324 16.5614C37.3421 15.8119 37.254 15.03 37.0276 14.2962C38.4471 12.7239 39.4566 10.8204 40.1359 8.82151C40.8352 6.91064 41.1707 4.89286 41.8584 2.9799C42.2358 2.05225 42.7117 1.07323 43.5903 0.523977H43.5913ZM12.3075 0.918099C12.4098 1.17235 12.484 1.43702 12.5287 1.70739C12.9376 4.33522 13.8916 6.84356 15.0699 9.21982C15.3037 9.70094 15.6025 10.1496 15.7912 10.6517C15.3152 10.9818 15.4316 11.595 15.3393 12.0877C14.9976 11.6789 14.7774 11.1904 14.5269 10.725C13.6735 9.08775 13.1147 7.3142 12.7164 5.51654C12.4427 4.00189 12.2111 2.46209 12.3075 0.918099ZM39.9839 2.05225C40.0259 1.68748 40.1422 1.32585 40.4159 1.06904C40.6255 1.37616 40.8572 1.70529 40.8425 2.09732C40.8803 3.74194 40.5972 5.37923 40.1747 6.9641C39.8256 8.14227 39.4283 9.32359 38.7532 10.3613C37.9868 11.5437 37.2855 12.7805 36.3713 13.857C36.5034 13.094 36.602 12.312 36.3713 11.551C36.9815 10.7932 37.6514 10.0835 38.1588 9.24498C38.8101 8.25118 39.2626 7.14057 39.4912 5.9746C39.7879 4.68637 39.7722 3.35411 39.9787 2.05434L39.9839 2.05225ZM9.18657 5.66014C10.0336 6.39388 10.8084 7.23244 11.3462 8.22613C12.2163 9.78794 12.7646 11.4986 13.4575 13.1411C13.8182 14.0006 14.2595 14.8727 15.0206 15.4472C14.8665 15.6421 14.6862 15.8277 14.5929 16.0614C14.5143 16.4073 14.5174 16.7637 14.4797 17.1096C13.9681 16.5247 13.6337 15.813 13.2217 15.1558C12.1838 13.3612 11.8588 11.2837 11.1491 9.36133C10.6836 8.03955 9.56607 7.03118 9.18657 5.66014ZM43.021 7.40329C43.2475 7.22091 43.5452 7.19366 43.8219 7.14649C43.9635 7.68316 43.4498 8.01439 43.1866 8.40432C42.1131 9.77956 41.7137 11.5059 41.2147 13.1411C40.8415 14.2858 40.4242 15.4241 39.8393 16.4796C39.4765 17.141 39.0928 17.8046 38.5561 18.3423C38.1797 18.7273 37.7814 19.0903 37.3631 19.4293C37.4836 19.0393 37.6252 18.6505 37.6587 18.2406C37.6922 17.8308 37.5266 17.4587 37.4039 17.0876C37.9795 16.3423 38.7154 15.7312 39.2459 14.9472C39.5646 14.4522 39.8582 13.9414 40.1255 13.4168C40.7021 12.2523 40.9893 10.9766 41.395 9.74811C41.696 8.82344 42.2612 8.00717 43.021 7.40015V7.40329ZM9.62478 10.2387C10.1689 10.4693 10.5746 10.9179 10.9583 11.3519C11.386 11.8351 11.5653 12.4661 11.7624 13.0657C12.1513 14.1359 12.5046 15.2333 13.1252 16.1987C13.5355 16.8608 14.0556 17.4482 14.6631 17.9356C14.8613 17.7123 15.093 17.4995 15.1873 17.2102C15.2542 16.945 15.3039 16.6758 15.3362 16.4042C15.6067 16.4335 15.8845 16.4199 16.1078 16.2427C15.9767 15.7994 15.787 15.3769 15.6517 14.9356C15.5165 14.4943 15.5836 14.0447 15.6517 13.6055C16.265 13.8539 16.6089 14.4619 17.1687 14.7899C16.9873 14.0761 16.5313 13.486 16.1665 12.8623C15.9631 12.5363 16.0312 12.1432 16.0711 11.7848C16.2506 11.7642 16.4316 11.7592 16.612 11.7701C16.9265 11.9797 17.1477 12.2889 17.4088 12.5552C18.0378 13.2522 18.7769 13.8445 19.4321 14.5195C19.7068 14.8497 20.1754 14.7291 20.5507 14.7543C20.4521 14.3224 20.1806 13.965 20.0129 13.5615C20.666 13.5122 21.252 13.9189 21.577 14.4629C21.8664 14.9503 22.4031 15.1799 22.835 15.5174C23.1345 15.7382 23.3932 16.0095 23.5993 16.3193C24.1874 17.1882 24.6476 18.1347 25.2054 19.0226C25.566 19.5467 25.415 20.2238 25.2798 20.8045C25.1896 21.2374 24.9443 21.6127 24.8007 22.0256C24.7634 22.289 24.7853 22.5573 24.8647 22.8112C24.9441 23.065 25.0791 23.298 25.2599 23.4931C25.5807 23.0487 25.8752 22.5843 26.2485 22.1808C27.0421 21.2951 27.4394 20.0645 28.4657 19.3915C28.4846 20.2563 27.8587 20.9135 27.4834 21.6368C27.1521 22.2122 27.0588 22.8789 26.9519 23.5235C27.235 23.5172 27.5421 23.4858 27.7329 23.2489C28.4028 22.62 28.5716 21.6766 28.7813 20.8265C29.0151 19.8989 29.1545 18.9398 29.5749 18.0656C29.9953 17.1914 30.5184 16.3727 31.2763 15.7794C31.8246 15.334 32.44 14.9849 33.0334 14.6044C34.0356 13.9556 34.9697 13.1757 35.6616 12.1936C35.8293 12.8225 35.7717 13.4828 35.692 14.1233C35.6301 14.5698 35.4949 15.0447 35.1448 15.3528C34.456 15.9272 33.5376 16.1453 32.8635 16.7385C32.6539 16.8968 32.6329 17.1578 32.6769 17.3947C33.0145 17.4041 33.3636 17.3947 33.6687 17.227C34.3197 16.9063 34.9602 16.5153 35.4226 15.9451C35.7266 15.5855 35.9855 15.1453 36.4541 14.9797C36.5894 15.3004 36.7057 15.6516 36.6271 16.0038C36.495 16.5593 36.1407 17.0278 35.7884 17.4628C35.2218 18.0853 34.6051 18.6602 33.9444 19.1819C33.3426 19.6934 32.5448 19.8978 31.9525 20.4282C32.3666 20.5047 32.8069 20.5865 33.2158 20.4408C33.8737 20.1697 34.4721 19.7723 34.977 19.271C35.3387 18.9261 35.8052 18.7144 36.1501 18.3507C36.3923 18.1117 36.5695 17.8014 36.8934 17.6526C36.9123 18.1945 36.9049 18.75 36.7592 19.2762C36.4728 20.0674 35.9203 20.7344 35.1961 21.163C34.3627 21.6326 33.5418 22.1336 32.6371 22.4554C33.0072 22.7699 33.5345 22.6546 33.9643 22.5518C34.4141 22.3621 34.803 22.0581 35.2381 21.8359C35.7109 21.599 35.9436 21.1022 36.2571 20.7049C36.5349 20.9146 36.7812 21.2688 36.5904 21.621C36.0547 22.7835 35.1615 23.7489 34.1604 24.5298C33.7767 24.8442 33.3018 25.0004 32.8415 25.1587C32.8531 25.3631 32.8688 25.5665 32.8856 25.7709C33.4097 25.8757 34.0136 25.8589 34.4476 26.2247C35.0766 26.7488 35.4886 27.4993 36.1617 27.9752C36.8546 28.2897 37.6493 28.08 38.3716 28.2897C38.8402 28.362 39.1778 28.7205 39.4409 29.0884C40.0772 29.9794 40.7052 30.8871 41.1403 31.8976C41.828 33.5307 42.4759 35.1858 42.9508 36.8943C43.2873 37.9006 43.5347 38.9373 43.9132 39.9341C44.4328 40.9459 45.0659 41.8954 45.8002 42.7642C45.9973 42.9812 46.1818 43.2391 46.4638 43.3523C46.7615 43.4382 47.1284 43.4131 47.3612 43.1867C47.725 42.7674 47.8308 42.1531 48.2806 41.803C48.6423 41.6406 49.0658 41.6416 49.4505 41.7097C49.6182 41.779 49.7572 41.9034 49.8447 42.0623C49.9322 42.2212 49.9629 42.4052 49.9317 42.5839C49.8386 43.4091 49.4243 44.1644 48.7785 44.6866C48.0873 44.7502 47.3914 44.7425 46.7018 44.6636C45.4815 44.3764 44.3325 43.6678 43.6343 42.6122C43.5645 42.504 43.4701 42.4138 43.3588 42.3492C43.2474 42.2845 43.1223 42.2471 42.9937 42.2401C42.8893 42.896 42.6455 43.5218 42.2788 44.0755C42.0439 44.3963 41.894 44.9455 41.3982 44.8847C39.3518 44.8963 37.3096 44.9235 35.259 44.8847C35.2077 44.3606 35.3198 43.7684 35.7759 43.4518C36.342 43.0703 37.0695 43.1374 37.7185 43.1783C38.0665 43.1908 38.4628 43.2936 38.7752 43.0871C39.1044 42.847 39.226 42.4267 39.2386 42.0389C39.2705 41.1783 39.1078 40.3216 38.7626 39.5326C38.5959 39.0945 38.1829 38.8272 37.7918 38.6102C37.0936 38.2444 36.3472 37.9813 35.6584 37.5966C35.0378 37.2591 34.4759 36.8272 33.9025 36.4174C33.156 35.8639 32.2566 35.5212 31.6254 34.8157C30.6484 33.7676 29.8108 32.5799 28.6754 31.689C28.3116 31.4175 27.93 31.0831 27.4509 31.0821C26.8904 31.0689 26.3304 31.1234 25.783 31.2445C25.4685 31.3043 25.2515 31.559 25.0638 31.7948C24.5648 32.43 24.1738 33.1397 23.7377 33.8179C23.4315 34.2896 23.2638 34.8493 22.8822 35.2728C22.5006 35.6962 21.9324 35.8639 21.4627 36.1648C20.6712 36.6753 19.733 36.8734 18.8261 37.0736C18.0923 37.2423 17.3343 37.0736 16.5953 37.1784C16.2808 37.388 16.1916 37.8 16.1025 38.1469C15.9526 38.7245 16.2671 39.2695 16.481 39.7853C16.6898 40.2618 16.9254 40.7262 17.1865 41.1762C17.4235 41.5473 17.2547 41.9917 17.2064 42.3911C16.7947 42.5449 16.3487 42.5832 15.9167 42.5019C15.4846 42.4206 15.0831 42.2228 14.7554 41.9299C14.0666 41.1144 14.117 39.9645 13.6295 39.0536C13.0193 39.4729 12.4365 39.976 12.1282 40.6626C11.6219 41.7485 11.3881 42.9613 10.7255 43.9738C10.411 44.4005 10.0085 44.8963 9.4214 44.8742C8.37305 44.8847 7.31631 44.8931 6.26377 44.8795C5.97442 44.8459 5.46912 44.8554 5.49113 44.4434C5.52259 43.9193 5.71129 43.3743 6.10232 43.0168C6.64642 42.5976 7.36663 42.7925 7.99669 42.7118C8.45901 42.628 8.67497 42.1542 8.84481 41.7684C9.34697 40.5106 9.95291 39.2842 10.4173 38.0044C10.5788 37.5574 10.7898 37.1298 11.0463 36.7298C11.3965 36.1512 11.3986 35.4551 11.5401 34.8116C11.7236 33.6963 12.0716 32.581 11.9311 31.4395C11.8127 29.8379 11.5401 28.2373 11.6523 26.6272C11.8808 25.0413 13.2468 23.9218 13.5467 22.359C13.6442 21.7636 13.7626 21.1211 13.51 20.5466C13.1666 19.6977 12.596 18.9597 11.8609 18.4136C11.5129 18.1567 11.0663 18.0677 10.7486 17.7679C11.9857 17.6211 13.0204 18.4597 13.9241 19.185L14.1411 19.0414C13.663 18.3528 12.9879 17.8297 12.5014 17.1442C11.3682 15.6495 11.4363 13.6506 10.6039 12.0175C10.2894 11.4189 9.70026 10.9462 9.62792 10.2355L9.62478 10.2387ZM17.1729 13.7407C17.3826 14.3455 17.6467 15.0048 17.4035 15.6411C17.0964 16.0058 16.6236 16.183 16.2828 16.5163C15.1118 17.509 14.5342 19.01 14.2774 20.4869C14.0541 21.5644 14.1285 22.7164 13.6421 23.7279C13.1273 24.8453 12.2436 25.8159 12.059 27.0664C11.9542 28.0769 12.1387 29.0873 12.2016 30.0947C12.3409 31.4031 12.2658 32.7254 11.9794 34.0097C11.8074 34.7843 11.6355 35.5589 11.45 36.3314C11.3556 36.7507 11.1197 37.1092 10.9384 37.4897C10.3785 38.6784 10.0022 39.9414 9.46648 41.1406C9.19915 41.7475 8.90037 42.3607 8.42547 42.8345C7.90129 43.4089 7.04793 42.8575 6.44618 43.2621C6.12643 43.433 5.9912 43.7862 5.8287 44.0923C6.16313 43.8984 6.4986 43.6342 6.90641 43.6562C7.39599 43.6562 7.92435 43.7705 8.3741 43.5242C8.72425 43.3512 8.89827 42.9833 9.08907 42.6626C9.44551 41.9917 9.81558 41.324 10.0619 40.6039C10.3165 39.8999 10.6091 39.2102 10.9384 38.5379C11.1984 38.0044 11.4269 37.4499 11.7875 36.974C12.1838 36.4415 12.3526 35.7895 12.6262 35.1921C13.0502 34.225 13.3813 33.2198 13.6148 32.19C13.7595 31.4961 13.727 30.7844 13.7689 30.081C14.2386 30.3955 14.6401 30.8053 15.093 31.146C16.4118 30.1838 17.588 29.0307 18.932 28.0999C18.9016 28.5433 18.8188 28.992 18.8953 29.4354C19.0002 29.8924 19.3199 30.2529 19.5149 30.6701C19.6952 31.0359 19.6302 31.4626 19.5705 31.8504C19.4814 32.4238 19.1071 32.8986 18.9698 33.4552C19.2675 33.712 19.7476 33.9216 20.0946 33.6302C20.4773 33.3158 20.8903 32.9825 21.0549 32.4992C21.2153 32.0988 21.3401 31.6334 21.7133 31.3735C22.2721 31.0538 22.9441 31.038 23.5228 30.7655C23.9023 30.4762 23.9987 29.9416 24.3824 29.6534C24.9054 29.5742 25.4386 29.5927 25.9549 29.7079C26.4204 29.8022 26.7527 30.1733 27.1815 30.3441C27.8315 30.362 28.4605 30.1282 29.0685 29.9196C29.336 29.827 29.6207 29.7944 29.9022 29.8241C30.1838 29.8538 30.4554 29.9451 30.6977 30.0915C31.4137 30.5842 31.8697 31.3798 32.6266 31.8231C33.1204 32.1051 33.632 32.3546 34.1268 32.6365C34.7464 32.9908 35.4718 33.1931 35.9813 33.7172C36.7844 34.5621 37.6084 35.4876 38.7395 35.8807C38.7029 35.7099 38.6662 35.539 38.62 35.3713C38.3055 34.1449 37.2184 33.321 36.8515 32.1219C36.712 31.6198 36.537 31.1177 36.5003 30.5957C36.5003 30.2047 36.5978 29.7488 36.9343 29.5108C37.4364 29.406 37.9302 29.6356 38.3653 29.863C38.9314 30.1481 39.3088 30.6754 39.833 31.0276C39.9493 30.8179 40.1968 30.5779 40.0248 30.3358C39.7457 29.8483 39.4281 29.3838 39.075 28.9469C38.7532 28.5433 38.2143 28.4385 37.7279 28.3976C37.1534 28.3264 36.5045 28.4888 35.996 28.1398C35.302 27.6157 34.8795 26.8023 34.1666 26.2981C33.8752 26.1409 33.4988 25.9711 33.1843 26.1608C32.6665 26.4543 32.0312 26.3987 31.4734 26.274C30.5582 25.7929 30.1829 24.6115 29.1409 24.3139C28.3787 24.0854 27.6386 23.6996 26.8251 23.7153C26.7957 24.4627 27.5809 24.9805 28.2665 24.9847C28.992 25.0151 29.6126 25.5088 29.9439 26.1377C28.6303 26.2918 27.3031 26.2572 25.9832 26.3002C25.4916 26.3537 25.0471 25.9291 24.9883 25.4616C24.9003 24.8883 25.0932 24.3285 25.2274 23.7845C24.1256 23.8551 23.0285 23.9853 21.9408 24.1745C21.4093 24.2625 20.8872 24.557 20.34 24.4417C19.8651 24.2321 19.581 23.7667 19.3157 23.3474C19.0505 22.9281 18.8366 22.3453 19.1323 21.8799C19.3735 21.5392 19.7163 21.2833 20.1117 21.1489C20.507 21.0145 20.9348 21.0084 21.3338 21.1315C22.0257 21.3412 22.5363 21.8873 23.1558 22.2321C23.6894 22.4952 24.309 22.1326 24.5732 21.6546C24.7944 21.3401 24.7451 20.9397 24.7766 20.577C24.7934 20.2322 25.0334 19.9481 25.0816 19.6158C24.9454 19.185 24.6675 18.8192 24.4432 18.4314C23.9977 17.7228 23.5815 16.9953 23.1191 16.2983C22.7519 15.7601 22.1991 15.3761 21.5665 15.2197C20.752 14.9744 19.9038 15.1484 19.0746 15.1264C18.5389 14.7973 18.2516 14.183 17.7348 13.8298C17.566 13.7438 17.3658 13.7753 17.1844 13.7512L17.1729 13.7407ZM37.0066 30.8085C37.0601 31.8043 37.6273 32.6638 38.013 33.5569C38.3223 34.2833 38.8685 34.8587 39.4042 35.4237C39.7187 35.7256 39.7942 36.1983 40.1076 36.4908C40.6738 36.734 41.242 36.974 41.785 37.2622C41.6382 36.5474 41.3573 35.8713 41.0931 35.1941C40.6102 33.9735 40.0424 32.7883 39.3937 31.6471C39.162 31.2603 38.9681 30.8378 38.6441 30.5181C38.2751 30.2404 37.7698 30.0926 37.3148 30.2037C37.0307 30.2299 37.0003 30.5779 37.0003 30.8043L37.0066 30.8085ZM15.8562 33.4908C15.332 33.8608 14.7701 34.2675 14.5405 34.8912C14.3942 35.2654 14.3333 35.6676 14.3623 36.0683C14.8707 36.257 15.2722 35.8587 15.6434 35.5767C16.2797 35.0694 17.2043 35.2445 17.8355 34.7287C18.1059 34.5107 18.3775 34.2644 18.519 33.9405C18.5882 33.5212 18.1657 33.2393 17.8281 33.1072C17.1582 32.8975 16.4443 33.1596 15.8614 33.4908H15.8562ZM42.1331 38.0494C42.2568 38.4844 42.5084 38.866 42.6782 39.2832C42.955 40.0787 42.8554 40.9372 42.9759 41.7601C43.2904 41.0882 43.2663 40.3219 43.1783 39.6039C43.1348 39.2816 43.0177 38.9737 42.8358 38.7041C42.654 38.4345 42.4124 38.2105 42.1299 38.0494H42.1331ZM42.8669 12.4944C43.0042 12.3057 43.2317 12.2963 43.4445 12.3151C43.4383 12.4954 43.4582 12.6988 43.3177 12.8392C42.891 13.3571 42.4109 13.835 42.0523 14.4115C41.4799 15.291 41.2378 16.3256 40.9788 17.3276C40.636 18.6557 39.7512 19.7479 38.8423 20.7374C38.3317 21.2783 37.8275 21.8349 37.21 22.2552C37.2415 21.6535 37.3631 21.0288 37.145 20.446C37.6556 19.8905 38.3234 19.5026 38.8171 18.9314C39.4288 18.2162 39.9477 17.4266 40.3613 16.5813C40.7712 15.7878 41.026 14.9189 41.5145 14.1705C41.9245 13.5789 42.3776 13.0183 42.87 12.4933L42.8669 12.4944ZM22.3759 17.4C22.726 17.5823 23.2303 17.7081 23.354 18.1337C23.2711 18.4607 23.1223 18.7626 23.0395 19.097C22.7495 18.5607 22.5266 17.9907 22.3759 17.4ZM36.4657 23.5917C38.5917 22.8516 39.7669 20.6305 41.9108 19.9156C41.2105 20.8789 40.3603 21.7185 39.5961 22.6294C38.7091 23.5801 37.7247 24.5162 36.4772 24.9616C35.8579 25.1933 35.2022 25.3126 34.5409 25.3138C34.9823 24.8851 35.5484 24.5969 35.9321 24.1074C36.0977 23.925 36.2235 23.6828 36.4657 23.5917ZM0.0177002 46.0461C1.5745 45.9528 3.13759 46.022 4.69649 46C18.8842 46 33.0718 46 47.2595 46C48.1464 46.0105 49.0354 45.9759 49.9212 46.0357C49.9108 46.2233 49.8992 46.412 49.8867 46.5996C33.2626 46.594 16.641 46.5929 0.0218936 46.5964C0.0218936 46.412 0.0218936 46.2285 0.0218936 46.0461H0.0177002Z" fill="white"/>
<path d="M0.00621037 47.5408C3.52762 47.522 7.05112 47.5408 10.5725 47.5335C11.1365 47.4989 11.4469 48.1016 11.3724 48.5974C10.3933 48.5974 9.4141 48.588 8.43704 48.6047C8.42341 51.5229 8.43075 54.4401 8.43704 57.3582C6.94524 57.397 5.45239 57.3645 3.96059 57.375C3.58528 57.3949 3.02441 57.3195 2.99506 56.8446C2.97619 54.0962 3.0003 51.3479 2.98352 48.5995C2.22766 48.5796 1.47076 48.6194 0.714895 48.5838C0.212735 48.5198 -0.039917 48.0052 0.00935542 47.5408H0.00621037ZM13.7333 47.5335C14.9179 47.5335 16.1026 47.5261 17.2872 47.5335C17.7894 47.5241 18.2936 47.828 18.4519 48.3175C19.5831 51.3342 20.7331 54.3436 21.8695 57.3582C20.8212 57.3876 19.7823 57.3698 18.7392 57.3719C18.0651 57.3928 17.3941 56.9756 17.1803 56.3237C16.1896 53.7158 15.2125 51.1016 14.2082 48.4978C13.8172 49.2473 13.5729 50.0607 13.2563 50.8426C12.9858 51.5816 12.642 52.2965 12.4313 53.0575C13.2521 53.1696 14.1736 52.8625 14.9106 53.3499C15.1999 53.5176 15.3708 53.8174 15.4799 54.1245C15.8866 55.199 16.3028 56.2702 16.6938 57.3509C14.7554 57.397 12.815 57.3635 10.8766 57.3687C10.7163 57.3818 10.5568 57.3348 10.4292 57.237C10.3016 57.1392 10.2148 56.9975 10.1857 56.8394C10.214 56.4568 10.4132 56.1151 10.54 55.7597C11.608 53.0198 12.6717 50.2777 13.7312 47.5335H13.7333ZM23.1685 47.4978C23.5794 47.5492 24.0837 47.7714 24.1225 48.241C24.1497 50.7368 24.1067 53.2336 24.1424 55.7293C25.695 53.2504 27.1532 50.7116 28.6817 48.218C28.8051 48.0133 28.9791 47.8438 29.1869 47.7257C29.3947 47.6077 29.6294 47.5451 29.8685 47.544C30.8801 47.5146 31.8939 47.544 32.9087 47.5282C33.2232 47.5282 33.5838 47.4989 33.8176 47.7505C34.0608 47.9433 34.0902 48.2683 34.0818 48.5576C34.0734 51.4988 34.0881 54.4401 34.0744 57.3813C33.717 57.3687 33.3406 57.2314 33.1624 56.9023C33.045 56.6182 33.0984 56.3017 33.0869 56.004C33.0869 53.7231 33.1026 51.4422 33.0785 49.1624C32.0983 50.655 31.2407 52.2158 30.3046 53.7315C29.7206 54.6885 29.1514 55.6549 28.5706 56.6119C28.4187 56.8525 28.2068 57.0495 27.9557 57.1835C27.7046 57.3174 27.423 57.3838 27.1386 57.3761C26.0514 57.3761 24.9632 57.3855 23.8761 57.3698C23.4431 57.3939 23.1422 56.9306 23.1422 56.5312C23.1307 53.7336 23.1422 50.9349 23.136 48.1372C23.136 47.9213 23.1485 47.7064 23.1632 47.4937L23.1685 47.4978ZM36.6576 48.1268C37.2124 47.7332 37.878 47.5262 38.5582 47.5356C41.1791 47.5356 43.8073 47.5356 46.4324 47.5356C47.7376 47.5356 48.9683 48.436 49.4139 49.6571C49.7158 50.4443 49.5995 51.3028 49.6183 52.1267C49.6351 53.4893 48.7052 54.7713 47.4262 55.2136C46.7102 55.4746 45.9355 55.3845 45.1901 55.3981C45.1356 56.0511 45.1639 56.7063 45.1534 57.3614C43.6532 57.3939 42.153 57.3677 40.6539 57.3761C40.3394 57.3666 39.9064 57.3499 39.7596 57.0165C39.6611 56.484 39.7303 55.9369 39.6999 55.3992C39.0593 55.3866 38.4094 55.4516 37.7804 55.309C37.2408 55.1791 36.7428 54.9149 36.3326 54.5411C35.9224 54.1673 35.6134 53.6959 35.4342 53.1707C35.1742 52.4275 35.2738 51.6298 35.258 50.8647C35.2483 50.3287 35.3705 49.7987 35.6138 49.3211C35.8571 48.8435 36.2141 48.433 36.6534 48.1257L36.6576 48.1268ZM38.2301 49.7127C38.2207 50.9034 38.2175 52.0952 38.2353 53.287C38.2563 54.0323 38.986 54.5774 39.703 54.4967C39.7397 52.7325 39.7135 50.9684 39.7177 49.2043C41.5303 49.2043 43.3419 49.2043 45.1534 49.2043C45.1597 50.9684 45.144 52.7325 45.1607 54.4967C45.8852 54.5826 46.6284 54.0376 46.64 53.2828C46.6651 52.0952 46.6483 50.9066 46.6463 49.719C46.6443 49.3829 46.5104 49.061 46.2733 48.8228C46.0362 48.5845 45.7149 48.449 45.3788 48.4454C43.4219 48.4356 41.4632 48.4356 39.5028 48.4454C39.1655 48.4451 38.8417 48.578 38.6018 48.8151C38.3619 49.0522 38.2253 49.3744 38.2217 49.7116L38.2301 49.7127ZM48.6339 59.3268C48.8436 59.1517 49.069 58.9798 49.3541 58.9662C49.4967 59.6318 48.5668 59.9462 48.1339 59.5374C47.9598 59.4075 47.9242 59.1821 47.8697 58.9903C48.1789 58.9473 48.4169 59.136 48.6339 59.3268ZM26.8796 59.8666C27.3828 59.7922 27.9395 59.9232 28.297 60.3016C28.8725 60.8613 28.84 61.9189 28.2225 62.4357C27.4992 63.0646 26.2003 62.9011 25.7579 62.0164C25.2798 61.1569 25.8868 59.9546 26.8796 59.8697V59.8666ZM26.7622 60.6506C26.2894 60.8791 26.2181 61.6338 26.6574 61.9326C27.1092 62.3414 27.972 61.9808 27.9384 61.354C27.9993 60.7492 27.2602 60.354 26.7612 60.6506H26.7622ZM0.314425 59.9179C0.850132 59.9179 1.38584 59.9179 1.92259 59.9274C1.92259 60.1255 1.92259 60.3236 1.92259 60.5238C1.62906 60.5364 1.33482 60.5427 1.03988 60.5427C1.03254 61.2764 1.03988 62.0101 1.03988 62.7439L0.314425 62.7355C0.299748 61.7921 0.303942 60.8561 0.314425 59.9169V59.9179ZM2.6491 59.9242C3.25505 59.9578 3.9197 59.789 4.47533 60.1024C4.85588 60.3854 4.86112 60.963 4.69338 61.3676C4.45436 61.8498 3.83898 61.7869 3.38819 61.8162C3.38819 62.1192 3.38819 62.4231 3.38819 62.7271C3.14182 62.7355 2.89441 62.7355 2.65434 62.7271C2.66273 61.7921 2.65434 60.8582 2.65434 59.9253L2.6491 59.9242ZM3.38295 60.5186C3.38295 60.7533 3.38295 60.9885 3.38295 61.224C3.596 61.2053 3.80669 61.1656 4.01196 61.1055C4.01188 60.962 4.00383 60.8185 3.98784 60.6758C3.86414 60.4599 3.57794 60.549 3.37456 60.5186H3.38295ZM5.2857 59.9253C5.56771 59.919 5.85076 59.92 6.13486 59.9179C6.33195 60.31 6.50703 60.7135 6.70936 61.1034C6.88653 60.7209 7.0312 60.3246 7.17378 59.9295C7.43796 59.9221 7.69795 59.9158 7.96738 59.92C7.60465 60.8634 7.17588 61.7827 6.73871 62.6946C6.48501 62.7795 6.2072 62.7261 5.94406 62.7323C6.06148 62.4797 6.17261 62.225 6.29212 61.9735C5.99963 61.2691 5.55827 60.6349 5.2857 59.9253ZM8.61421 59.9253C9.45289 59.9137 10.2916 59.9169 11.1376 59.9253C11.1449 60.8603 11.1376 61.7963 11.1376 62.7313C10.8912 62.7397 10.6449 62.7407 10.4037 62.7313C10.4037 62.0039 10.4037 61.2764 10.4037 60.549C10.0515 60.5385 9.69925 60.5374 9.34701 60.5427C9.34701 61.2691 9.3533 61.9955 9.34701 62.7229C9.10283 62.7411 8.85777 62.7446 8.61316 62.7334C8.61316 61.7974 8.6205 60.8624 8.61316 59.9274L8.61421 59.9253ZM12.0392 59.919H14.529C14.5764 60.8618 14.574 61.8065 14.5217 62.7491C14.2924 62.7442 14.0632 62.7442 13.8339 62.7491C13.8056 62.0154 13.8497 61.2722 13.8046 60.5364C13.4618 60.5364 13.119 60.5364 12.7762 60.5364C12.7489 61.2701 12.7898 62.0039 12.7416 62.7376C12.5078 62.7376 12.2761 62.7376 12.0434 62.7376C12.0056 61.7942 12.0109 60.8508 12.0434 59.9137L12.0392 59.919ZM16.2389 59.919C16.523 59.919 16.8071 59.919 17.0912 59.9295C17.4287 60.8728 17.825 61.7869 18.1248 62.7386C17.8785 62.7386 17.6332 62.7386 17.391 62.7386C17.3082 62.5625 17.2358 62.3822 17.152 62.2082C16.8186 62.2041 16.4859 62.2041 16.1539 62.2082C16.0806 62.3885 16.0009 62.5678 15.9244 62.7481C15.6759 62.7481 15.4285 62.7334 15.18 62.7313C15.5239 61.7879 15.8698 60.8445 16.242 59.9179L16.2389 59.919ZM16.3311 61.6338C16.5408 61.6338 16.7505 61.6338 16.9601 61.6338C16.8806 61.3199 16.7829 61.0109 16.6676 60.7083C16.5316 61.0092 16.4174 61.3196 16.3259 61.637L16.3311 61.6338ZM22.6275 59.9211C22.8616 59.9211 23.0961 59.9211 23.3309 59.9211C23.3488 60.3173 23.3561 60.7135 23.3697 61.1097C23.6738 60.7292 23.9463 60.3257 24.2304 59.9305C24.5324 59.9221 24.8353 59.9169 25.1383 59.9305C24.785 60.3718 24.4139 60.7974 24.0774 61.2523C24.4359 61.7638 24.8636 62.2229 25.2368 62.7198C24.9349 62.7397 24.633 62.7386 24.3311 62.7512C23.9872 62.3319 23.7021 61.8697 23.3729 61.4399C23.3561 61.8728 23.3519 62.3057 23.3299 62.7397C23.0958 62.7397 22.863 62.7414 22.6317 62.7449C22.594 61.8016 22.6013 60.8582 22.6317 59.9148L22.6275 59.9211ZM29.7626 59.9211C29.996 59.9211 30.2305 59.9211 30.466 59.9211C30.6757 60.3991 30.8298 60.9011 31.0552 61.3728C31.2649 60.8928 31.4546 60.4043 31.658 59.9211L32.3918 59.9274C32.5082 60.8708 32.7063 61.7995 32.7923 62.7439C32.5543 62.7439 32.3185 62.7439 32.0826 62.724C32.005 62.2177 31.9578 61.7083 31.8729 61.2051C31.5836 61.7219 31.4221 62.2973 31.1233 62.8089L30.8812 62.6433C30.639 62.1537 30.4765 61.6286 30.2448 61.1349C30.1662 61.6747 30.1054 62.2177 29.9922 62.7523C29.7573 62.7453 29.5225 62.7414 29.2877 62.7407C29.4428 61.7974 29.5896 60.854 29.7678 59.92L29.7626 59.9211ZM33.5366 59.9211C34.3753 59.9211 35.214 59.9211 36.0464 59.9211C36.0642 60.8645 36.0558 61.8078 36.0527 62.7439C35.8095 62.7439 35.5673 62.7376 35.3251 62.7334C35.3146 61.9997 35.3304 61.2659 35.3146 60.5406C34.9652 60.5406 34.6157 60.5406 34.2663 60.5406C34.2443 61.2743 34.2852 62.008 34.2327 62.7418C33.999 62.7418 33.7662 62.7418 33.5345 62.747C33.5199 61.8036 33.5272 60.8603 33.5345 59.9169L33.5366 59.9211ZM37.73 59.9211C38.0173 59.9211 38.3045 59.9211 38.5918 59.9211C38.9168 60.8645 39.3403 61.7753 39.6118 62.7376C39.3707 62.7376 39.1296 62.7376 38.8895 62.7376C38.8067 62.5563 38.7344 62.3739 38.6505 62.1957C38.314 62.1957 37.9785 62.1957 37.643 62.2072C37.5634 62.3864 37.491 62.5678 37.4103 62.746L36.6838 62.7376C36.991 61.7837 37.3767 60.8571 37.7321 59.919L37.73 59.9211ZM37.8244 61.6412L38.4597 61.6286C38.3706 61.2942 38.2595 60.9661 38.1515 60.638C38.0466 60.9745 37.9334 61.3068 37.8244 61.6412ZM40.2649 59.9242C40.5019 59.9242 40.7398 59.9158 40.9778 59.9127C40.9977 60.2722 40.9967 60.6328 40.9967 60.9934C41.3406 60.9934 41.6844 60.9934 42.0293 61.0039C42.0576 60.6422 42.0566 60.2806 42.0545 59.92H42.7883C42.7883 60.855 42.7883 61.7911 42.7883 62.7261C42.542 62.7386 42.2946 62.7386 42.0492 62.7261C42.0492 62.3435 42.0492 61.9619 42.0356 61.5814C41.6886 61.5814 41.3416 61.5814 40.9956 61.5919C40.9956 61.9735 40.9904 62.356 40.9873 62.7386C40.744 62.7386 40.5019 62.7323 40.2597 62.7292C40.2597 61.7932 40.2513 60.8582 40.2597 59.9232L40.2649 59.9242ZM43.6868 59.9075H44.3881C44.4101 60.4829 44.3745 61.0605 44.4143 61.6349C44.9123 61.1108 45.2268 60.4557 45.6912 59.9075H46.3716C46.3821 60.8501 46.3821 61.7935 46.3716 62.7376C46.1305 62.7376 45.8883 62.746 45.6472 62.747C45.6398 62.1422 45.6535 61.5364 45.6346 60.9326C45.2519 61.4808 44.8777 62.0374 44.4814 62.5793C44.3011 62.8477 43.9405 62.7093 43.6742 62.7418C43.6595 61.7984 43.6501 60.855 43.6805 59.9116L43.6868 59.9075ZM47.2742 59.9075C47.509 59.9075 47.7439 59.9075 47.9798 59.9075C48.0112 60.4976 47.9923 61.0909 48.0039 61.6821C48.4463 61.1076 48.8363 60.4955 49.2703 59.9148C49.5009 59.9075 49.7315 59.9043 49.9622 59.9022C49.9894 60.8456 49.9957 61.7963 49.9559 62.7418C49.7221 62.7418 49.4904 62.7418 49.2577 62.7418C49.2409 62.1579 49.2671 61.573 49.2336 60.9902C48.765 61.5395 48.3949 62.1653 47.9693 62.7439L47.2732 62.7355C47.2564 61.7921 47.2658 60.8487 47.2732 59.9116L47.2742 59.9075Z" fill="white"/>
</g>
<defs>
<clipPath id="clip0">
<rect width="50" height="62.8866" fill="white"/>
</clipPath>
</defs>
</svg>
