<svg width="170" height="365" viewBox="0 0 170 365" fill="none" xmlns="http://www.w3.org/2000/svg">
<path d="M183.627 172.23L184.601 172.385L222.542 59.2618L186.746 173.081L187.624 173.529L258.666 77.6669L189.448 174.854L190.146 175.552L287.333 106.335L191.471 177.376L191.919 178.254L305.739 142.457L192.615 180.399L192.77 181.373L312.079 182.5L192.77 183.627L192.615 184.601L305.738 222.543L191.919 186.746L191.471 187.624L287.333 258.666L190.146 189.448L189.448 190.146L258.666 287.333L187.624 191.471L186.746 191.919L222.543 305.738L184.601 192.615L183.627 192.77L182.5 312.079L181.373 192.77L180.399 192.615L142.457 305.739L178.254 191.919L177.376 191.471L106.335 287.333L175.552 190.146L174.854 189.448L77.6669 258.666L173.529 187.624L173.081 186.746L59.2618 222.542L172.385 184.601L172.23 183.627L52.9206 182.5L172.23 181.373L172.385 180.399L59.2616 142.457L173.081 178.254L173.529 177.376L77.6673 106.335L174.854 175.552L175.552 174.854L106.335 77.6673L177.376 173.529L178.254 173.081L142.457 59.2616L180.399 172.385L181.373 172.23L182.5 52.9206L183.627 172.23Z" stroke="#D9A34C" stroke-opacity="0.5"/>
</svg>
