<svg width="120" height="365" viewBox="0 0 120 365" fill="none" xmlns="http://www.w3.org/2000/svg">
<path d="M-55.8049 137.102L-54.8388 137.255L-9.05232 18.005L-42.1039 141.393L-41.2324 141.837L39.1636 42.5721L-30.3995 149.708L-29.7079 150.4L77.4278 80.8365L-21.8373 161.232L-21.3932 162.104L101.995 129.052L-17.2554 174.839L-17.1024 175.805L110.46 182.5L-17.1024 189.195L-17.2554 190.161L101.995 235.948L-21.3932 202.896L-21.8373 203.768L77.4279 284.164L-29.7079 214.6L-30.3995 215.292L39.1636 322.428L-41.2324 223.163L-42.1039 223.607L-9.05232 346.995L-54.8388 227.745L-55.8049 227.898L-62.5 355.46L-69.1951 227.898L-70.1612 227.745L-115.948 346.995L-82.8961 223.607L-83.7676 223.163L-164.164 322.428L-94.6005 215.292L-95.2921 214.6L-202.428 284.164L-103.163 203.768L-103.607 202.896L-226.995 235.948L-107.745 190.161L-107.898 189.195L-235.46 182.5L-107.898 175.805L-107.745 174.839L-226.995 129.052L-103.607 162.104L-103.163 161.232L-202.428 80.8365L-95.2921 150.4L-94.6005 149.708L-164.164 42.5722L-83.7676 141.837L-82.8961 141.393L-115.948 18.0049L-70.1612 137.255L-69.1951 137.102L-62.5 9.53968L-55.8049 137.102Z" stroke="#D9A34C" stroke-opacity="0.5"/>
</svg>
