<svg width="202" height="202" viewBox="0 0 202 202" fill="none" xmlns="http://www.w3.org/2000/svg">
<path d="M102.364 89.2392L103.337 89.3931L124.814 27.7069L105.932 90.2364L106.809 90.6833L146.298 38.6531L109.017 92.2873L109.713 92.9833L163.347 55.7024L111.317 95.1911L111.764 96.068L174.293 77.1856L112.607 98.6634L112.761 99.6355L178.065 101L112.761 102.364L112.607 103.337L174.293 124.814L111.764 105.932L111.317 106.809L163.347 146.298L109.713 109.017L109.017 109.713L146.298 163.347L106.809 111.317L105.932 111.764L124.814 174.293L103.337 112.607L102.364 112.761L101 178.065L99.6355 112.761L98.6634 112.607L77.1856 174.293L96.068 111.764L95.1911 111.317L55.7024 163.347L92.9833 109.713L92.2873 109.017L38.6531 146.298L90.6833 106.809L90.2364 105.932L27.7069 124.814L89.3931 103.337L89.2392 102.364L23.9351 101L89.2392 99.6355L89.3931 98.6634L27.7069 77.1856L90.2364 96.068L90.6833 95.1911L38.6531 55.7023L92.2873 92.9833L92.9833 92.2873L55.7023 38.6531L95.1911 90.6833L96.068 90.2364L77.1856 27.7069L98.6634 89.3931L99.6355 89.2392L101 23.9351L102.364 89.2392Z" stroke="#A7792F" stroke-opacity="0.8"/>
</svg>
