<svg width="403" height="556" viewBox="0 0 403 556" fill="none" xmlns="http://www.w3.org/2000/svg">
<path d="M295.118 199.777L296.081 199.932L367.953 21.1625L319.133 207.279L319.999 207.727L444.568 59.5499L339.612 221.704L340.297 222.4L505.344 119.313L354.549 241.642L354.987 242.515L544.346 194.584L362.481 265.14L362.632 266.105L557.782 278L362.632 289.895L362.481 290.86L544.346 361.416L354.987 313.485L354.549 314.358L505.344 436.687L340.297 333.6L339.612 334.296L444.568 496.45L319.999 348.273L319.133 348.721L367.953 534.837L296.081 356.068L295.118 356.223L283 548.069L270.882 356.223L269.919 356.068L198.047 534.837L246.867 348.721L246.001 348.273L121.432 496.45L226.388 334.296L225.703 333.6L60.6564 436.687L211.451 314.358L211.013 313.485L21.6538 361.416L203.519 290.86L203.368 289.895L8.21829 278L203.368 266.105L203.519 265.14L21.6538 194.584L211.013 242.515L211.451 241.642L60.6564 119.313L225.703 222.4L226.388 221.704L121.432 59.55L246.001 207.727L246.867 207.279L198.047 21.1626L269.919 199.932L270.882 199.777L283 7.93117L295.118 199.777Z" stroke="#D9A34C" stroke-opacity="0.5"/>
</svg>
