<svg width="436" height="490" viewBox="0 0 436 490" fill="none" xmlns="http://www.w3.org/2000/svg">
<path d="M201.424 176.066L202.388 176.218L264.214 19.6696L222.216 182.661L223.085 183.104L330.262 53.3224L239.952 195.358L240.642 196.048L382.678 105.738L252.896 212.915L253.339 213.784L416.331 171.786L259.782 233.612L259.934 234.576L427.927 245L259.934 255.424L259.782 256.388L416.33 318.214L253.339 276.216L252.896 277.085L382.678 384.262L240.642 293.952L239.952 294.642L330.262 436.678L223.085 306.896L222.216 307.339L264.214 470.33L202.388 313.782L201.424 313.934L191 481.927L180.576 313.934L179.612 313.782L117.786 470.331L159.784 307.339L158.915 306.896L51.7381 436.678L142.048 294.642L141.358 293.952L-0.677612 384.262L129.104 277.085L128.661 276.216L-34.3304 318.214L122.218 256.388L122.066 255.424L-45.9266 245L122.066 234.576L122.218 233.612L-34.3305 171.786L128.661 213.784L129.104 212.915L-0.677616 105.738L141.358 196.048L142.048 195.358L51.7381 53.3224L158.915 183.104L159.784 182.661L117.786 19.6695L179.612 176.218L180.576 176.066L191 8.07343L201.424 176.066Z" stroke="#D9A34C" stroke-opacity="0.5"/>
</svg>
