<svg width="341" height="672" viewBox="0 0 341 672" fill="none" xmlns="http://www.w3.org/2000/svg">
<path d="M348.007 265.841L348.993 265.946L408.355 24.6809L362.702 268.802L363.643 269.113L472.75 45.2776L376.449 274.7L377.304 275.202L531.361 78.5882L388.647 283.278L389.378 283.947L581.626 123.141L398.762 294.161L399.338 294.967L621.359 176.975L406.352 306.873L406.75 307.781L648.839 237.732L411.086 320.858L411.288 321.828L662.881 302.763L412.755 335.504V336.496L662.881 369.237L411.288 350.172L411.086 351.142L648.839 434.268L406.75 364.219L406.352 365.127L621.359 495.025L399.338 377.033L398.762 377.839L581.625 548.859L389.378 388.053L388.647 388.722L531.36 593.412L377.304 396.798L376.449 397.3L472.75 626.723L363.643 402.887L362.702 403.198L408.355 647.319L348.993 406.054L348.007 406.159L341 654.289L333.993 406.159L333.007 406.054L273.645 647.319L319.298 403.198L318.357 402.887L209.25 626.723L305.551 397.3L304.696 396.798L150.64 593.411L293.353 388.722L292.622 388.053L100.374 548.859L283.238 377.839L282.662 377.033L60.6411 495.025L275.648 365.127L275.25 364.219L33.1609 434.268L270.914 351.142L270.712 350.172L19.1187 369.237L269.245 336.496V335.504L19.1187 302.763L270.712 321.828L270.914 320.858L33.1611 237.732L275.25 307.781L275.648 306.873L60.6413 176.975L282.662 294.967L283.238 294.161L100.374 123.141L292.622 283.947L293.353 283.278L150.64 78.5884L304.696 275.202L305.551 274.7L209.25 45.2773L318.357 269.113L319.298 268.802L273.645 24.6809L333.007 265.946L333.993 265.841L341 17.7112L348.007 265.841Z" stroke="#D9A34C" stroke-opacity="0.5"/>
</svg>
