<svg width="240" height="240" viewBox="0 0 240 240" fill="none" xmlns="http://www.w3.org/2000/svg">
<path d="M121.715 106.025L122.687 106.179L149.686 28.6368L125.95 107.239L126.827 107.686L176.466 42.2817L129.602 109.702L130.298 110.398L197.718 63.5345L132.314 113.173L132.761 114.05L211.363 90.3143L133.821 117.313L133.975 118.285L216.065 120L133.975 121.715L133.821 122.687L211.363 149.686L132.761 125.95L132.314 126.827L197.718 176.466L130.298 129.602L129.602 130.298L176.466 197.718L126.827 132.314L125.95 132.761L149.686 211.363L122.687 133.821L121.715 133.975L120 216.065L118.285 133.975L117.313 133.821L90.3143 211.363L114.05 132.761L113.173 132.314L63.5345 197.718L110.398 130.298L109.702 129.602L42.2817 176.466L107.686 126.827L107.239 125.95L28.6368 149.686L106.179 122.687L106.025 121.715L23.9351 120L106.025 118.285L106.179 117.313L28.6368 90.3143L107.239 114.05L107.686 113.173L42.2818 63.5344L109.702 110.398L110.398 109.702L63.5344 42.2818L113.173 107.686L114.05 107.239L90.3143 28.6368L117.313 106.179L118.285 106.025L120 23.9351L121.715 106.025Z" stroke="#D9A34C" stroke-opacity="0.5"/>
</svg>
