<svg width="73" height="240" viewBox="0 0 73 240" fill="none" xmlns="http://www.w3.org/2000/svg">
<path d="M-39.3306 68.5019L-39.1213 70.256L-38.3802 68.6524L-11.2222 9.88711L-23.7922 73.3924L-24.1352 75.1253L-22.9349 73.8292L21.0535 26.3324L-10.5255 82.8451L-11.3872 84.3872L-9.84512 83.5255L46.6676 51.9465L-0.829208 95.9349L-2.12527 97.1352L-0.392365 96.7922L63.1128 84.2222L4.34756 111.38L2.74402 112.121L4.49809 112.331L68.7795 120L4.49809 127.669L2.74402 127.879L4.34756 128.62L63.1129 155.778L-0.392365 143.208L-2.12527 142.865L-0.829208 144.065L46.6676 188.053L-9.84512 156.475L-11.3872 155.613L-10.5255 157.155L21.0535 213.668L-22.9349 166.171L-24.1352 164.875L-23.7922 166.608L-11.2222 230.113L-38.3802 171.348L-39.1213 169.744L-39.3306 171.498L-47 235.78L-54.6694 171.498L-54.8787 169.744L-55.6198 171.348L-82.7778 230.113L-70.2078 166.608L-69.8648 164.875L-71.0651 166.171L-115.053 213.668L-83.4745 157.155L-82.6128 155.613L-84.1549 156.475L-140.668 188.054L-93.1708 144.065L-91.8747 142.865L-93.6076 143.208L-157.113 155.778L-98.3476 128.62L-96.744 127.879L-98.4981 127.669L-162.78 120L-98.4981 112.331L-96.744 112.121L-98.3476 111.38L-157.113 84.2222L-93.6076 96.7922L-91.8747 97.1352L-93.1708 95.9349L-140.668 51.9465L-84.1549 83.5255L-82.6128 84.3872L-83.4745 82.8451L-115.053 26.3324L-71.0651 73.8292L-69.8648 75.1253L-70.2078 73.3924L-82.7778 9.88714L-55.6198 68.6524L-54.8787 70.256L-54.6694 68.5019L-47 4.22046L-39.3306 68.5019Z" stroke="#D9A34C" stroke-opacity="0.5"/>
</svg>
