<svg width="380" height="371" viewBox="0 0 380 371" fill="none" xmlns="http://www.w3.org/2000/svg">
<path d="M196.609 154.694L196.696 156.582L197.554 154.898L263.161 26.1906L209.631 160.162L208.922 161.937L210.41 160.736L323.611 69.4009L219.261 170.359L219.739 171.201L360.923 132.982L223.829 183.523L223.928 184.486L368.717 205.94L222.545 197.372L222.25 198.295L345.669 275.728L215.634 209.512L213.918 208.638L214.992 210.237L295.704 330.322L204.294 217.846L203.097 216.372L203.413 218.244L227.403 360.241L190.483 220.934L190 219.111L189.517 220.934L152.597 360.241L176.587 218.244L176.903 216.372L175.706 217.846L84.2959 330.323L165.008 210.237L166.082 208.638L164.366 209.512L34.3313 275.728L157.75 198.295L157.455 197.372L11.2828 205.94L156.072 184.486L156.171 183.523L19.0771 132.982L160.261 171.201L160.739 170.359L56.3888 69.401L169.59 160.736L171.078 161.937L170.369 160.162L116.839 26.1907L182.446 154.898L183.304 156.582L183.391 154.694L190 10.8909L196.609 154.694Z" stroke="#1F2021" stroke-opacity="0.4"/>
</svg>
