<svg width="30" height="30" viewBox="0 0 30 30" fill="rgba(255,255,255,.7)" xmlns="http://www.w3.org/2000/svg">
<path d="M28.8864 9.75521L27.0117 8.3492V1.75781C27.4971 1.75781 27.8906 1.3643 27.8906 0.878906C27.8906 0.393516 27.4971 0 27.0117 0H21.7382C21.2528 0 20.8593 0.393516 20.8593 0.878906C20.8593 1.3643 21.2528 1.75781 21.7382 1.75781V4.39406L16.5814 0.526523C15.6502 -0.170977 14.3496 -0.171035 13.418 0.526816L1.1134 9.75533C-0.0498621 10.628 -0.286464 12.2839 0.585997 13.447C1.00904 14.0106 1.62615 14.3759 2.32371 14.4753C2.4501 14.4933 2.57625 14.5022 2.70164 14.5022C3.001 14.5022 3.2952 14.4509 3.57416 14.352V29.1211C3.57416 29.6065 3.96768 30 4.45307 30H25.5468C26.0322 30 26.4257 29.6065 26.4257 29.1211V14.3515C26.7048 14.4502 27.0001 14.5015 27.3033 14.5015C28.1295 14.5015 28.9185 14.1072 29.414 13.4468C30.2863 12.2839 30.0497 10.628 28.8864 9.75521ZM23.496 1.75781H25.2538V7.03078L23.496 5.71242V1.75781ZM16.4648 17.6953H13.5351V12.3047H16.4648V17.6953ZM18.2226 17.6953V11.4258C18.2226 10.9404 17.8291 10.5469 17.3437 10.5469H12.6562C12.1708 10.5469 11.7773 10.9404 11.7773 11.4258V17.6953H5.33203V13.1834L14.9999 5.93227L24.6679 13.1834V17.6953H18.2226ZM5.33203 19.4531H17.6367V21.2109H14.9999C14.5146 21.2109 14.121 21.6045 14.121 22.0898V24.7266H11.4843C10.9989 24.7266 10.6054 25.1201 10.6054 25.6055V28.2422H5.33197L5.33203 19.4531ZM12.3632 28.2422V26.4844H14.9999C15.4853 26.4844 15.8788 26.0909 15.8788 25.6055V22.9688H18.5156C19.001 22.9688 19.3945 22.5752 19.3945 22.0898V19.4531H24.6679V28.2422H12.3632ZM28.0079 12.3919C27.8401 12.6155 27.5834 12.7437 27.3033 12.7437C27.1123 12.7437 26.9304 12.683 26.7772 12.5682L15.5273 4.13051C15.2148 3.89613 14.7851 3.89613 14.4726 4.13051L3.22213 12.5685C3.03504 12.709 2.804 12.7682 2.57186 12.7351C2.33906 12.7019 2.13311 12.58 1.99201 12.3919C1.70133 12.0044 1.78037 11.4524 2.16815 11.1615L14.4723 1.93342C14.6277 1.81699 14.8139 1.75887 15.0001 1.75887C15.1861 1.75887 15.3721 1.81699 15.5272 1.93313L27.8316 11.1615C28.2195 11.4524 28.2986 12.0044 28.0079 12.3919Z" fill="white" fill-opacity="0.5"/>
</svg>
