<svg width="30" height="30" viewBox="0 0 30 30" fill="none" xmlns="http://www.w3.org/2000/svg">
<path d="M23.2416 9.79041C22.4835 9.37682 21.6012 9.24979 20.7573 9.4329L18.9418 9.8268L19.2435 6.77878C19.365 5.55152 18.6349 4.41603 17.4676 4.01778C16.7864 3.78524 16.0579 3.83696 15.4164 4.16312C14.7748 4.48928 14.304 5.04752 14.0907 5.73485L13.0804 8.98841C12.832 9.78858 12.2145 10.4388 11.4281 10.7279L10.8026 10.9579H6.65796C6.17273 10.9579 5.77905 11.3514 5.77905 11.8368V21.2336C5.77905 21.4666 5.87175 21.6902 6.03654 21.855C6.20134 22.0198 6.42496 22.1125 6.65819 22.1125L10.1905 22.112L18.9519 23.2201C19.2174 23.2537 19.4824 23.2702 19.7463 23.2702C21.086 23.2702 22.3872 22.8417 23.4771 22.0301L23.6671 21.8884C24.5739 21.2132 25.1152 20.1352 25.1152 19.0047V12.9469C25.115 11.6304 24.3972 10.421 23.2416 9.79041ZM7.53687 12.7157H10.0111L9.43132 20.3545L7.53709 20.3547V12.7157H7.53687ZM23.3572 19.005C23.3572 19.5827 23.0805 20.1338 22.617 20.479L22.427 20.6204C21.4888 21.3192 20.3334 21.6229 19.1723 21.4762L11.1857 20.4661L11.5677 15.4323L11.7927 12.4667L12.0346 12.3777C13.3312 11.9012 14.3498 10.8288 14.7592 9.5098L15.7695 6.25602C15.8409 6.02599 15.9984 5.83922 16.2131 5.73005C16.428 5.62087 16.6718 5.60347 16.9 5.68129C17.2907 5.81473 17.5351 6.19468 17.4944 6.60552L17.0737 10.8549C17.0458 11.1344 17.1536 11.4107 17.3634 11.5977C17.5731 11.7844 17.8597 11.8597 18.1346 11.8004L21.1299 11.1507C21.5614 11.0573 22.0123 11.122 22.3998 11.3335C22.9903 11.6558 23.3572 12.274 23.3572 12.9467V19.005Z" fill="white" fill-opacity="0.7"/>
<path d="M25.6066 4.39339C22.7735 1.56029 19.0066 0 15 0C10.9934 0 7.22649 1.56029 4.39339 4.39339C1.56029 7.22649 0 10.9934 0 15C0 19.0066 1.56029 22.7735 4.39339 25.6066C7.22649 28.4397 10.9934 30 15 30C19.0066 30 22.7735 28.4397 25.6066 25.6066C28.4397 22.7735 30 19.0066 30 15C30 10.9934 28.4397 7.22649 25.6066 4.39339ZM24.3636 24.3636C21.8626 26.8648 18.5371 28.2422 15 28.2422C11.4629 28.2422 8.13744 26.8648 5.63644 24.3636C3.13522 21.8626 1.75781 18.5371 1.75781 15C1.75781 11.4629 3.13522 8.13744 5.63644 5.63644C8.13744 3.13522 11.4629 1.75781 15 1.75781C18.5371 1.75781 21.8626 3.13522 24.3636 5.63644C26.8648 8.13744 28.2422 11.4629 28.2422 15C28.2422 18.5371 26.8648 21.8626 24.3636 24.3636Z" fill="white" fill-opacity="0.7"/>
</svg>
