<svg width="30" height="30" viewBox="0 0 30 30" fill="none" xmlns="http://www.w3.org/2000/svg">
<g clip-path="url(#clip0)">
<path d="M15 30C14.655 30 14.375 29.72 14.375 29.375V21.875C14.375 21.53 14.655 21.25 15 21.25C15.345 21.25 15.625 21.53 15.625 21.875V29.375C15.625 29.72 15.345 30 15 30Z" fill="white" fill-opacity="0.7"/>
<path d="M20.625 30C20.5063 30 20.3863 29.9662 20.2788 29.895L14.6538 26.145C14.3663 25.9537 14.2888 25.5662 14.48 25.2787C14.6713 24.9912 15.0575 24.9137 15.3463 25.1049L20.9713 28.855C21.2588 29.0462 21.3363 29.4337 21.145 29.7212C21.025 29.9025 20.8263 30 20.625 30Z" fill="white" fill-opacity="0.7"/>
<path d="M9.37504 30C9.17254 30 8.97504 29.9025 8.85379 29.7213C8.66254 29.4338 8.74004 29.0463 9.02754 28.855L14.6525 25.105C14.94 24.9125 15.3288 24.9913 15.5188 25.2788C15.71 25.5663 15.6325 25.9538 15.345 26.145L9.72004 29.895C9.61504 29.9663 9.49504 30 9.37504 30Z" fill="white" fill-opacity="0.7"/>
<path d="M27.5 6.24998H2.5C1.12125 6.24998 0 5.12873 0 3.74998C0 2.37123 1.12125 1.24998 2.5 1.24998H27.5C28.8787 1.24998 30 2.37123 30 3.74998C30 5.12873 28.8787 6.24998 27.5 6.24998ZM2.5 2.49998C1.81125 2.49998 1.25 3.06123 1.25 3.74998C1.25 4.43873 1.81125 4.99998 2.5 4.99998H27.5C28.1887 4.99998 28.75 4.43873 28.75 3.74998C28.75 3.06123 28.1887 2.49998 27.5 2.49998H2.5Z" fill="white" fill-opacity="0.7"/>
<path d="M25.625 22.5H4.375C3.34125 22.5 2.5 21.6587 2.5 20.625V5.62498C2.5 5.27998 2.78 4.99998 3.125 4.99998H26.875C27.22 4.99998 27.5 5.27998 27.5 5.62498V20.625C27.5 21.6587 26.6588 22.5 25.625 22.5ZM3.75 6.24998V20.625C3.75 20.97 4.03 21.25 4.375 21.25H25.625C25.97 21.25 26.25 20.97 26.25 20.625V6.24998H3.75Z" fill="white" fill-opacity="0.7"/>
<path d="M8.12495 18.75C7.96495 18.75 7.80495 18.6887 7.68245 18.5675C7.4387 18.3237 7.4387 17.9275 7.68245 17.6837L12.6824 12.6837C12.8937 12.4725 13.2237 12.44 13.4712 12.605L16.7449 14.7875L21.3862 8.98497C21.6024 8.71747 21.9949 8.67122 22.2649 8.88747C22.5337 9.10372 22.5774 9.49622 22.3624 9.76622L17.3624 16.0162C17.1599 16.2687 16.7987 16.3275 16.5274 16.1462L13.2037 13.9312L8.5662 18.5687C8.44495 18.6887 8.28495 18.75 8.12495 18.75Z" fill="white" fill-opacity="0.7"/>
</g>
<defs>
<clipPath id="clip0">
<rect width="30" height="30" fill="white"/>
</clipPath>
</defs>
</svg>
