<svg width="30" height="30" viewBox="0 0 30 30" fill="none" xmlns="http://www.w3.org/2000/svg">
<g clip-path="url(#clip0)">
<path d="M9.375 4.74609C14.415 4.74609 18.6914 8.80512 18.6914 14.1211L19.6875 14.1211C20.1729 14.1211 20.5664 14.5146 20.5664 15C20.5664 15.4854 20.1729 15.8789 19.6875 15.8789L18.6914 15.8789V19.7461L21.5625 19.7461C22.0479 19.7461 22.4414 20.1396 22.4414 20.625V21.1523L29.1211 21.1523C29.6065 21.1523 30 21.5459 30 22.0312V24.375C30 24.8604 29.6065 25.2539 29.1211 25.2539C28.6357 25.2539 28.2422 24.8604 28.2422 24.375V22.9102L22.4414 22.9102V24.375C22.4414 24.8604 22.0479 25.2539 21.5625 25.2539L0.878906 25.2539C0.393517 25.2539 0 24.8604 0 24.375V14.0625C0 8.92541 4.20563 4.74609 9.375 4.74609ZM20.6836 21.5039H18.6914L18.6914 23.4961H20.6836L20.6836 21.5039ZM1.75781 23.4961L16.9336 23.4961C16.9336 22.3672 16.9336 14.8968 16.9336 14.0625C16.9336 9.89467 13.5428 6.50391 9.375 6.50391C5.17488 6.50391 1.75781 9.89467 1.75781 14.0625V23.4961Z" fill="white" fill-opacity="0.7"/>
<path d="M9.375 8.49609C12.4443 8.49609 14.9414 10.9932 14.9414 14.0625C14.9414 17.1318 12.4443 19.6289 9.375 19.6289C6.30568 19.6289 3.80859 17.1318 3.80859 14.0625C3.80859 10.9932 6.30568 8.49609 9.375 8.49609ZM9.375 17.8711C11.4751 17.8711 13.1836 16.1626 13.1836 14.0625C13.1836 11.9624 11.4751 10.2539 9.375 10.2539C7.27494 10.2539 5.56641 11.9624 5.56641 14.0625C5.56641 16.1626 7.27494 17.8711 9.375 17.8711Z" fill="white" fill-opacity="0.7"/>
</g>
<defs>
<clipPath id="clip0">
<rect width="30" height="30" fill="white"/>
</clipPath>
</defs>
</svg>
