<svg width="375" height="139" viewBox="0 0 375 139" fill="none" xmlns="http://www.w3.org/2000/svg">
<g clip-path="url(#clip0)">
<path fill-rule="evenodd" clip-rule="evenodd" d="M30.9 79.1999C31.66 82.8899 32.34 87.7599 33.9 92.8799C38.23 107.88 46.43 118.39 62.56 120.2C65.2096 120.429 67.8781 120.291 70.49 119.79C74.66 119.28 78.57 124.09 76.59 128.3C75.94 129.67 74.89 130.82 72.36 131.85C68.6277 133.198 64.7063 133.951 60.74 134.08C38.43 135.25 21.54 122.08 9.24 104.33C5.79496 99.4185 3.02363 94.0675 1 88.4199C-0.394217 84.523 -0.294457 80.2476 1.28 76.4199C1.43051e-06 82.3999 1.16 87.8999 7.8 91.0799C14.44 94.2599 25.68 90.5899 30 81.4299C30.3502 80.7066 30.6541 79.9618 30.91 79.1999H30.9Z" fill="#141515"/>
<path fill-rule="evenodd" clip-rule="evenodd" d="M60 31.1799C56.37 31.9899 51.55 32.7299 46.48 34.2799C31.72 38.7999 21.4 47.1599 19.76 63.4799C19.5529 66.1547 19.7043 68.8452 20.21 71.4799C20.78 75.7099 16.05 79.7199 11.85 77.7499C10.49 77.0899 9.36 76.0599 8.31 73.5099C6.92253 69.7403 6.14281 65.7742 6 61.7599C4.62 39.2599 17.52 22.0499 35 9.47994C39.8072 5.9498 45.0765 3.09648 50.66 0.999943C54.4794 -0.442211 58.7037 -0.381455 62.48 1.16994C56.58 -5.74589e-05 51.17 1.23994 48.08 7.99994C44.99 14.7599 48.73 25.9999 57.83 30.2999C58.5507 30.6319 59.2884 30.9257 60.04 31.1799H60Z" fill="#FAE013"/>
<path fill-rule="evenodd" clip-rule="evenodd" d="M110.72 59.61C109.45 56.06 108.12 51.34 105.93 46.47C99.55 32.24 90 23 73.79 23.42C71.1394 23.5746 68.5205 24.0755 66 24.91C62 26.03 57.41 21.82 58.8 17.36C59.26 15.9 60.13 14.64 62.49 13.26C65.9972 11.3886 69.782 10.0922 73.7 9.42C95.61 5.16 114.18 15.87 128.75 31.7C132.847 36.0675 136.32 40.9807 139.07 46.3C140.998 49.9492 141.483 54.1896 140.43 58.18C140.86 52.11 138.98 46.84 131.95 44.61C124.92 42.38 114.29 47.61 111.29 57.27C111.061 58.04 110.871 58.821 110.72 59.61Z" fill="#DD2A1B"/>
<path fill-rule="evenodd" clip-rule="evenodd" d="M79.77 107.23C83.43 106.57 88.27 105.99 93.37 104.65C108.37 100.65 118.94 92.6498 121.18 76.4198C121.475 73.7564 121.408 71.0652 120.98 68.4198C120.59 64.1898 125.46 60.4198 129.57 62.4998C130.91 63.1798 132.01 64.2698 132.97 66.8498C134.222 70.6651 134.863 74.6543 134.87 78.6698C135.44 101.2 121.87 117.92 104.03 129.84C99.0869 133.191 93.7021 135.84 88.03 137.71C84.1555 139.009 79.9331 138.794 76.21 137.11C82.05 138.54 87.52 137.51 90.87 130.89C94.22 124.27 90.87 112.83 81.87 108.22C81.1612 107.849 80.4335 107.515 79.69 107.22L79.77 107.23Z" fill="#045195"/>
<path d="M181.28 61.7601V52.8901H188.36C191.31 52.8901 193.04 54.7201 193.04 57.2701C193.068 57.8835 192.965 58.4959 192.737 59.0661C192.509 59.6364 192.161 60.1513 191.718 60.5765C191.275 61.0016 190.746 61.3272 190.167 61.5313C189.588 61.7354 188.972 61.8134 188.36 61.7601H181.28ZM176.28 47.4701C176.188 47.4623 176.095 47.4748 176.008 47.5069C175.922 47.539 175.843 47.5897 175.778 47.6556C175.713 47.7215 175.664 47.8008 175.633 47.888C175.602 47.9752 175.591 48.068 175.6 48.1601V73.6101C175.591 73.7021 175.602 73.795 175.633 73.8821C175.664 73.9693 175.713 74.0487 175.778 74.1145C175.843 74.1804 175.922 74.2311 176.008 74.2632C176.095 74.2953 176.188 74.3078 176.28 74.3001H180.56C180.653 74.3097 180.746 74.2984 180.834 74.267C180.921 74.2356 181.001 74.1849 181.066 74.1186C181.131 74.0523 181.181 73.9722 181.211 73.8842C181.241 73.7961 181.251 73.7024 181.24 73.6101V67.1701H188.32C194.22 67.1701 198.64 62.9901 198.64 57.2701C198.64 51.7701 194.22 47.4701 188.32 47.4701H176.28ZM216.05 52.4701C220.87 52.4701 224.27 55.9601 224.27 60.9101C224.27 65.8601 220.87 69.3301 216.05 69.3301C214.937 69.3748 213.828 69.1867 212.792 68.7779C211.756 68.3692 210.817 67.7486 210.035 66.956C209.252 66.1635 208.644 65.2163 208.249 64.1752C207.854 63.1342 207.681 62.022 207.74 60.9101C207.678 59.7964 207.849 58.6821 208.243 57.6386C208.637 56.5951 209.244 55.6455 210.027 54.8508C210.809 54.056 211.75 53.4337 212.787 53.0237C213.824 52.6137 214.936 52.4251 216.05 52.4701ZM202.05 60.9101C202.016 63.686 202.809 66.4093 204.326 68.7338C205.844 71.0584 208.019 72.8792 210.574 73.9649C213.129 75.0507 215.949 75.3523 218.676 74.8315C221.402 74.3106 223.913 72.9908 225.888 71.0398C227.863 69.0888 229.213 66.5947 229.767 63.8744C230.321 61.1542 230.054 58.3306 229 55.7625C227.945 53.1944 226.151 50.9978 223.845 49.4518C221.54 47.9058 218.826 47.0803 216.05 47.0801C214.216 47.0439 212.393 47.3757 210.689 48.0558C208.986 48.7359 207.436 49.7505 206.131 51.0397C204.825 52.3289 203.792 53.8665 203.091 55.5618C202.39 57.2571 202.036 59.0757 202.05 60.9101ZM235.53 47.4801C235.438 47.4723 235.345 47.4848 235.258 47.5169C235.172 47.549 235.093 47.5997 235.028 47.6656C234.963 47.7315 234.914 47.8108 234.883 47.898C234.852 47.9852 234.841 48.078 234.85 48.1701V73.6101C234.841 73.7021 234.852 73.795 234.883 73.8821C234.914 73.9693 234.963 74.0487 235.028 74.1145C235.093 74.1804 235.172 74.2311 235.258 74.2632C235.345 74.2953 235.438 74.3078 235.53 74.3001H255.66C255.753 74.3097 255.846 74.2984 255.934 74.267C256.021 74.2356 256.101 74.1849 256.166 74.1186C256.231 74.0523 256.281 73.9722 256.311 73.8842C256.341 73.7961 256.351 73.7024 256.34 73.6101V69.6101C256.353 69.5173 256.344 69.4227 256.315 69.3338C256.286 69.2448 256.236 69.1639 256.17 69.0971C256.105 69.0304 256.024 68.9797 255.936 68.949C255.847 68.9183 255.753 68.9084 255.66 68.9201H240.55V48.1601C240.559 48.068 240.548 47.9752 240.517 47.888C240.486 47.8008 240.437 47.7215 240.372 47.6556C240.307 47.5897 240.228 47.539 240.142 47.5069C240.055 47.4748 239.962 47.4623 239.87 47.4701L235.53 47.4801ZM272.86 67.4801L283.78 48.1001C283.92 47.7501 283.78 47.4901 283.44 47.4901H278.14C277.992 47.4822 277.846 47.5228 277.723 47.6059C277.6 47.6889 277.508 47.8098 277.46 47.9501L270.34 61.8101H270L262.54 47.9001C262.476 47.7814 262.383 47.6813 262.269 47.6094C262.155 47.5376 262.025 47.4965 261.89 47.4901H256.54C256.473 47.4834 256.405 47.4958 256.345 47.5257C256.285 47.5555 256.234 47.6017 256.198 47.659C256.163 47.7163 256.144 47.7824 256.145 47.8498C256.145 47.9171 256.164 47.983 256.2 48.0401L267.2 67.4801V73.6301C267.189 73.7224 267.199 73.8161 267.229 73.9042C267.259 73.9922 267.309 74.0723 267.374 74.1386C267.439 74.2049 267.519 74.2556 267.606 74.287C267.694 74.3184 267.787 74.3297 267.88 74.3201H272.16C272.252 74.3278 272.345 74.3153 272.432 74.2832C272.518 74.2511 272.597 74.2004 272.662 74.1345C272.727 74.0687 272.776 73.9893 272.807 73.9021C272.838 73.815 272.849 73.7221 272.84 73.6301L272.86 67.4801ZM311.61 47.4801C311.424 47.465 311.238 47.5104 311.079 47.6095C310.921 47.7085 310.798 47.856 310.73 48.0301L307.02 57.0301L303.2 67.0001H303L299.11 57.0001L295.2 48.0001C295.146 47.8409 295.044 47.7024 294.908 47.6038C294.772 47.5053 294.608 47.4515 294.44 47.4501H288.74C288.647 47.4404 288.554 47.4517 288.466 47.4831C288.379 47.5145 288.299 47.5652 288.234 47.6315C288.169 47.6978 288.119 47.7779 288.089 47.8659C288.059 47.954 288.049 48.0477 288.06 48.1401V73.6101C288.049 73.7024 288.059 73.7961 288.089 73.8842C288.119 73.9722 288.169 74.0523 288.234 74.1186C288.299 74.1849 288.379 74.2356 288.466 74.267C288.554 74.2984 288.647 74.3097 288.74 74.3001H292.82C292.913 74.3097 293.006 74.2984 293.094 74.267C293.181 74.2356 293.261 74.1849 293.326 74.1186C293.391 74.0523 293.441 73.9722 293.471 73.8842C293.501 73.7961 293.511 73.7024 293.5 73.6101V63.8501L293.27 56.4401L293.56 56.3801L297.56 66.6001L300.43 73.7901C300.488 73.9494 300.597 74.0854 300.74 74.1775C300.882 74.2695 301.051 74.3126 301.22 74.3001H304.54C304.706 74.3126 304.87 74.2691 305.008 74.1766C305.146 74.0841 305.249 73.948 305.3 73.7901L308.3 66.6001L312.18 56.4401L312.46 56.4901L312.24 63.8201V73.6101C312.227 73.7028 312.236 73.7974 312.265 73.8863C312.294 73.9753 312.344 74.0562 312.41 74.123C312.475 74.1897 312.556 74.2404 312.644 74.2711C312.733 74.3018 312.827 74.3117 312.92 74.3001H317.2C317.293 74.3097 317.386 74.2984 317.474 74.267C317.561 74.2356 317.641 74.1849 317.706 74.1186C317.771 74.0523 317.821 73.9722 317.851 73.8842C317.881 73.7961 317.891 73.7024 317.88 73.6101V48.1001C317.891 48.008 317.882 47.9147 317.851 47.827C317.821 47.7393 317.771 47.6597 317.706 47.5941C317.64 47.5286 317.561 47.4788 317.473 47.4487C317.385 47.4185 317.292 47.4087 317.2 47.4201L311.61 47.4801ZM324.43 47.4801C324.248 47.4826 324.074 47.5562 323.945 47.685C323.816 47.8139 323.743 47.9879 323.74 48.1701V73.6101C323.729 73.7034 323.739 73.798 323.769 73.8869C323.8 73.9758 323.851 74.0565 323.917 74.1229C323.984 74.1894 324.064 74.2399 324.153 74.2706C324.242 74.3013 324.337 74.3114 324.43 74.3001H344.55C344.642 74.3078 344.735 74.2953 344.822 74.2632C344.908 74.2311 344.987 74.1804 345.052 74.1145C345.117 74.0487 345.166 73.9693 345.197 73.8821C345.228 73.795 345.239 73.7021 345.23 73.6101V69.6101C345.241 69.518 345.232 69.4247 345.201 69.337C345.171 69.2493 345.121 69.1697 345.056 69.1041C344.99 69.0386 344.911 68.9888 344.823 68.9587C344.735 68.9285 344.642 68.9187 344.55 68.9301H329.42V63.1401H342.37C342.463 63.1497 342.556 63.1384 342.644 63.107C342.731 63.0756 342.811 63.0249 342.876 62.9586C342.941 62.8923 342.991 62.8122 343.021 62.7242C343.051 62.6361 343.061 62.5424 343.05 62.4501V58.4501C343.061 58.3577 343.051 58.264 343.021 58.1759C342.991 58.0879 342.941 58.0078 342.876 57.9415C342.811 57.8752 342.731 57.8245 342.644 57.7931C342.556 57.7617 342.463 57.7504 342.37 57.7601H329.42V52.7601H344.18C344.272 52.7678 344.365 52.7553 344.452 52.7232C344.538 52.6911 344.617 52.6404 344.682 52.5745C344.747 52.5087 344.796 52.4293 344.827 52.3421C344.858 52.255 344.869 52.1621 344.86 52.0701V48.0701C344.869 47.978 344.858 47.8852 344.827 47.798C344.796 47.7108 344.747 47.6315 344.682 47.5656C344.617 47.4997 344.538 47.449 344.452 47.4169C344.365 47.3848 344.272 47.3723 344.18 47.3801L324.43 47.4801ZM351.27 47.4801C351.177 47.4704 351.084 47.4817 350.996 47.5131C350.909 47.5445 350.829 47.5952 350.764 47.6615C350.699 47.7278 350.649 47.8079 350.619 47.8959C350.589 47.984 350.579 48.0777 350.59 48.1701V73.6101C350.579 73.7024 350.589 73.7961 350.619 73.8842C350.649 73.9722 350.699 74.0523 350.764 74.1186C350.829 74.1849 350.909 74.2356 350.996 74.267C351.084 74.2984 351.177 74.3097 351.27 74.3001H355.55C355.643 74.3097 355.736 74.2984 355.824 74.267C355.911 74.2356 355.991 74.1849 356.056 74.1186C356.121 74.0523 356.171 73.9722 356.201 73.8842C356.231 73.7961 356.241 73.7024 356.23 73.6101V67.1701H363.06C363.318 67.1749 363.576 67.1548 363.83 67.1101L367.09 73.8101C367.175 73.9668 367.303 74.0961 367.459 74.1829C367.615 74.2696 367.792 74.3103 367.97 74.3001H372.76C372.844 74.3076 372.928 74.2916 373.003 74.2537C373.078 74.2158 373.141 74.1577 373.185 74.0859C373.229 74.014 373.251 73.9314 373.25 73.8473C373.25 73.7632 373.225 73.681 373.18 73.6101L369 65.4801C370.428 64.6392 371.611 63.4386 372.43 61.9981C373.25 60.5575 373.677 58.9273 373.67 57.2701C373.67 51.7101 369.17 47.4701 363.27 47.4701L351.27 47.4801ZM356.27 61.7701V52.8901H363.27C366.33 52.8901 368.03 54.7501 368.03 57.2701C368.03 59.7901 366.33 61.7601 363.27 61.7601L356.27 61.7701Z" fill="#DD2A1B"/>
<path d="M190.8 88.8999C190.658 88.8996 190.518 88.9399 190.397 89.016C190.277 89.0922 190.181 89.2011 190.12 89.3299L187.12 95.9999L184.85 101.67H184.71L182.64 96.8599L179.24 89.2999C179.2 89.1927 179.131 89.0986 179.041 89.028C178.951 88.9574 178.844 88.9131 178.73 88.8999H175.89C175.833 88.8952 175.775 88.9031 175.721 88.9232C175.668 88.9433 175.619 88.975 175.579 89.0161C175.539 89.0572 175.508 89.1066 175.489 89.1608C175.471 89.2151 175.464 89.2728 175.47 89.3299V105.16C175.464 105.217 175.471 105.275 175.489 105.329C175.508 105.383 175.539 105.433 175.579 105.474C175.619 105.515 175.668 105.547 175.721 105.567C175.775 105.587 175.833 105.595 175.89 105.59H177.82C178.05 105.59 178.19 105.45 178.19 105.16V97.8399L178 92.9999H178.17L180.75 99.1799L183.44 105.18C183.485 105.304 183.566 105.412 183.673 105.488C183.78 105.565 183.908 105.608 184.04 105.61H185.25C185.383 105.612 185.513 105.571 185.621 105.494C185.729 105.417 185.809 105.306 185.85 105.18L188.6 99.1799L191.11 92.9999H191.26L191.11 97.8399V105.16C191.11 105.45 191.26 105.59 191.51 105.59H193.51C193.79 105.59 193.9 105.45 193.9 105.16V89.3299C193.9 89.0499 193.79 88.8999 193.51 88.8999H190.8ZM223.51 91.2499C226.92 91.2499 229.24 93.7999 229.24 97.2499C229.272 98.0219 229.148 98.7924 228.875 99.5151C228.602 100.238 228.185 100.898 227.65 101.455C227.116 102.013 226.474 102.457 225.763 102.76C225.052 103.063 224.288 103.219 223.515 103.219C222.742 103.219 221.978 103.063 221.267 102.76C220.556 102.457 219.914 102.013 219.38 101.455C218.845 100.898 218.428 100.238 218.155 99.5151C217.882 98.7924 217.758 98.0219 217.79 97.2499C217.79 93.7899 220.11 91.2499 223.51 91.2499ZM214.98 97.2499C214.996 98.9359 215.51 100.579 216.459 101.974C217.407 103.368 218.747 104.45 220.309 105.084C221.872 105.717 223.587 105.875 225.238 105.535C226.89 105.196 228.404 104.375 229.59 103.177C230.776 101.978 231.581 100.456 231.902 98.8006C232.224 97.1456 232.049 95.4323 231.399 93.8767C230.749 92.321 229.653 90.9926 228.249 90.059C226.845 89.1253 225.196 88.628 223.51 88.6299C222.376 88.6075 221.25 88.8164 220.199 89.2437C219.148 89.671 218.196 90.3079 217.4 91.1154C216.603 91.923 215.98 92.8843 215.567 93.9407C215.155 94.9971 214.962 96.1265 215 97.2599L214.98 97.2499ZM267.79 105.58C268.05 105.58 268.19 105.44 268.19 105.15V89.3299C268.19 89.0499 268.05 88.8999 267.79 88.8999H265.86C265.803 88.8952 265.745 88.9031 265.691 88.9232C265.638 88.9433 265.589 88.975 265.549 89.0161C265.509 89.0572 265.478 89.1066 265.459 89.1608C265.441 89.2151 265.434 89.2728 265.44 89.3299V96.6899L265.66 101.61H265.49L261.87 96.5199L256.06 89.1599C255.972 89.0606 255.862 88.9827 255.739 88.9325C255.616 88.8822 255.483 88.8608 255.35 88.8699H253.56C253.28 88.8699 253.16 89.0199 253.16 89.2999V105.13C253.16 105.42 253.28 105.56 253.53 105.56H255.43C255.74 105.56 255.89 105.42 255.89 105.13V97.7799L255.72 92.7799H255.86L259.86 98.3599L265.3 105.29C265.353 105.377 265.428 105.449 265.517 105.498C265.607 105.548 265.708 105.572 265.81 105.57L267.79 105.58ZM289.14 88.8999C289.082 88.8916 289.022 88.8969 288.966 88.9156C288.91 88.9342 288.859 88.9657 288.817 89.0074C288.776 89.0491 288.744 89.1 288.726 89.156C288.707 89.2119 288.702 89.2715 288.71 89.3299V91.0799C288.704 91.1379 288.71 91.1966 288.73 91.2517C288.749 91.3067 288.781 91.3567 288.822 91.398C288.863 91.4393 288.913 91.4707 288.968 91.4901C289.023 91.5095 289.082 91.5163 289.14 91.5099H294.75V105.16C294.75 105.45 294.89 105.59 295.15 105.59H297.07C297.127 105.591 297.183 105.581 297.236 105.56C297.289 105.539 297.337 105.507 297.377 105.467C297.417 105.427 297.449 105.379 297.47 105.326C297.491 105.273 297.501 105.217 297.5 105.16V91.5099H303.11C303.168 91.5144 303.226 91.5064 303.28 91.4864C303.334 91.4664 303.383 91.4349 303.424 91.394C303.465 91.3531 303.496 91.3039 303.516 91.2497C303.537 91.1954 303.545 91.1375 303.54 91.0799V89.3299C303.546 89.2719 303.54 89.2132 303.52 89.1582C303.501 89.1031 303.469 89.0531 303.428 89.0118C303.387 88.9706 303.337 88.9391 303.282 88.9197C303.227 88.9004 303.168 88.8936 303.11 88.8999H289.14ZM328.88 88.8999C328.68 88.8999 328.57 88.9599 328.51 89.0999L321.51 105.16C321.42 105.36 321.45 105.59 321.7 105.59H324C324.105 105.588 324.207 105.555 324.293 105.494C324.378 105.434 324.444 105.348 324.48 105.25L325.79 102.19H334.89L336.1 105.19C336.133 105.321 336.211 105.436 336.321 105.515C336.431 105.594 336.565 105.631 336.7 105.62H338.77C338.824 105.624 338.878 105.615 338.928 105.593C338.978 105.572 339.021 105.538 339.055 105.496C339.088 105.453 339.111 105.403 339.121 105.35C339.13 105.296 339.127 105.242 339.11 105.19L332.19 89.0999C332.157 89.0473 332.112 89.004 332.057 88.9742C332.003 88.9445 331.942 88.9292 331.88 88.9299L328.88 88.8999ZM330.15 91.3899H330.55L333.81 99.6099H326.89L330.15 91.3899ZM371.91 96.3899C371.6 96.3899 371.45 96.5099 371.45 96.7899V101.35C370.764 102.023 369.923 102.519 369.001 102.793C368.08 103.067 367.105 103.112 366.162 102.924C365.219 102.735 364.336 102.319 363.591 101.712C362.846 101.104 362.26 100.324 361.885 99.4382C361.51 98.5527 361.358 97.589 361.44 96.6309C361.523 95.6729 361.838 94.7496 362.359 93.9414C362.88 93.1332 363.591 92.4645 364.43 91.9937C365.268 91.5229 366.209 91.2641 367.17 91.2399C368.155 91.234 369.127 91.4709 369.999 91.9296C370.871 92.3883 371.617 93.0547 372.17 93.8699C372.34 94.0699 372.49 94.0699 372.71 93.8699L374.21 92.7299C374.256 92.702 374.294 92.664 374.323 92.6189C374.351 92.5738 374.369 92.5227 374.375 92.4696C374.381 92.4165 374.374 92.3628 374.356 92.3126C374.338 92.2624 374.308 92.217 374.27 92.1799C373.473 91.0546 372.413 90.1405 371.183 89.5168C369.953 88.893 368.589 88.5783 367.21 88.5999C364.932 88.5999 362.747 89.5049 361.136 91.1159C359.525 92.7268 358.62 94.9117 358.62 97.1899C358.62 99.4681 359.525 101.653 361.136 103.264C362.747 104.875 364.932 105.78 367.21 105.78C368.871 105.806 370.485 105.227 371.75 104.15L372 105.15C372.015 105.273 372.076 105.385 372.171 105.465C372.265 105.545 372.386 105.586 372.51 105.58H373.85C374.13 105.58 374.24 105.44 374.24 105.13V96.7999C374.24 96.5199 374.13 96.3999 373.85 96.3999L371.91 96.3899Z" fill="#045195"/>
<path fill-rule="evenodd" clip-rule="evenodd" d="M29 68.43V70.64C29.23 71.21 29.23 71.87 29.6 72.64C29.8926 73.1994 30.1563 73.7735 30.39 74.36C30.4781 74.681 30.6313 74.9806 30.84 75.24C31.84 76.59 30.76 78.45 32.15 78.48C33.08 78.48 32.55 77.39 33.08 76.7C33.99 75.53 33.4 75.44 33.68 75.16C34.6346 74.8858 35.6541 74.9458 36.57 75.33C36.51 75.02 36.32 75.02 36.34 74.73C36.36 74.44 36.51 74.44 36.66 74.16C37 73.38 36.43 73.24 36.43 72.67C36.43 71.89 36.83 72.04 37.25 71.67C37.67 71.3 37.62 71.21 38.58 71.04L38.5 72.1C39.04 71.81 38.89 71.49 39.8 71.47C40.1498 71.4297 40.5042 71.4729 40.8341 71.596C41.164 71.719 41.4601 71.9184 41.6981 72.1779C41.9361 72.4374 42.1093 72.7496 42.2035 73.0889C42.2977 73.4281 42.3102 73.7849 42.24 74.13C42.38 74.19 42.41 74.13 42.64 74.07C43.06 75.24 44.22 74.59 44.64 75.39C44.9 75.93 44.9 76.02 45.35 76.33C45.7278 76.5961 46.1919 76.7103 46.65 76.65L46.29 75.24L47.14 75.33L47.28 74.61C47.5171 74.7972 47.7716 74.9613 48.04 75.1L47.87 73.84C49.38 74.21 49.87 74.84 52.66 75.04C53.4 75.1 53.54 75.36 54.08 75.53L53.83 76.76C54.2132 76.9626 54.5808 77.1932 54.93 77.45L54.85 78.08C55.6752 78.0771 56.4985 78.0001 57.31 77.85C57.1649 77.9895 56.9907 78.0954 56.8 78.16C57.1589 78.7541 57.419 79.4025 57.57 80.08C57.71 80.86 57.65 81.8 57.82 82.46C57.9991 82.2192 58.2233 82.0154 58.48 81.86C58.65 82.03 58.76 82.49 58.99 82.75C59.5 82.86 59.64 82.63 60.26 82.75C60.5225 83.1336 60.7249 83.5551 60.86 84C61.23 85 61.32 84.54 62 84.8C62.51 85 62.22 85.6 63.16 85.26C63.92 85 65.23 84.2 65.99 84.26C66.5364 84.2616 67.0734 84.4027 67.55 84.67C68.26 85.38 69.82 85.81 70.24 85.07C70.39 84.18 69.88 83.83 70.56 83.2C70.98 82.83 71.63 83.26 72.2 83.46C73.99 84.15 72.6 85.46 74.98 84.87C76.59 84.46 77.19 85.58 78.63 85.64C79.2023 85.5854 79.7549 85.4025 80.2466 85.1047C80.7384 84.8068 81.1566 84.4019 81.47 83.92C82.12 84.06 82.89 84.01 83.47 84.15C84.05 84.29 83.92 84.41 84.29 84.09C84.46 83.95 84.72 83.66 84.89 83.49C84.46 81.95 85.48 81.11 84.52 80C85.1643 79.3589 85.9997 78.9447 86.9 78.82C87.3536 78.8041 87.8037 78.9041 88.2079 79.1106C88.6121 79.3171 88.957 79.6232 89.21 80C89.89 80.83 89.89 81.63 91.21 81.57C93.51 81.49 92.54 81.71 93.59 82.57C94.36 82.43 95.07 81.06 95.59 80.46C95.987 81.7193 96.1993 83.0296 96.22 84.35L95.82 84.58C95.71 84.64 95.65 84.64 95.51 84.72C95.3944 84.7834 95.2925 84.869 95.2101 84.972C95.1277 85.075 95.0665 85.1932 95.03 85.32C95.2879 85.7021 95.4962 86.1154 95.65 86.55C95.76 87.13 95.54 87.73 95.93 88.16L96.3 86.81C97.35 86.73 97.64 86.81 98.12 86.1C99 84.75 98.97 80.86 98.88 79.28C98.8 77.08 97.88 77.13 97.52 75.59C97.16 74.05 96.47 73.33 94.8 73.53L94.74 74.61C94.5929 74.649 94.4395 74.6585 94.2887 74.6378C94.138 74.6171 93.9928 74.5667 93.8616 74.4895C93.7305 74.4123 93.6159 74.3098 93.5247 74.188C93.4334 74.0662 93.3673 73.9275 93.33 73.78L94.04 74.07L94 73.16C93.66 73.33 93.49 73.53 93.2 73.64C93.37 74.01 93.37 73.76 93.32 74.27L92.47 74.47C92.9398 72.6066 93.2741 70.7116 93.47 68.8C93.67 67.46 93.87 67.34 94.78 66.8C95.26 66.51 95 66.4 95.68 66.06C96.36 65.72 96.02 65.88 96.16 65L97.16 64.51L97.45 65.14C97.7293 64.8456 97.9589 64.5079 98.13 64.14C98.41 63.66 98.64 63.66 98.84 63.26C97.56 63.37 98.02 63.6 97.56 61.54C97.36 60.54 97.62 59.65 98.44 59.48C98.64 59.48 99.63 61 99.29 59.42C99.2351 58.6787 99.0019 57.9616 98.61 57.33L99.1 57C99.02 57.86 99.55 57.86 99.89 58.38C100.23 58.9 100.04 59.69 100.12 60.29C100.35 61.67 101.2 62.41 100.38 63.7C100.83 64.16 100.66 63.7 100.94 64.53C101.052 64.8504 101.196 65.1587 101.37 65.45C102.763 66.8218 104.338 67.9961 106.05 68.94C106.018 68.28 105.873 67.6305 105.62 67.02C105 65.76 105.22 66.74 105.48 65.53C104.6 64.87 104.77 64.62 104.97 63.53C103.24 62.61 103.97 62.33 104.32 61.84C103.61 61.41 103.04 61.64 102.79 60.84L102.22 61.24C102.005 61.0778 101.839 60.8599 101.74 60.61C102.02 60.35 102.05 60.61 102.13 60.12C102.148 59.8606 102.121 59.6001 102.05 59.35L101.71 60.41C101.46 60.1916 101.265 59.9176 101.14 59.61C100.94 59.09 101.14 58.95 101.48 58.81L101.31 57.98C101.57 58.09 101.51 58.12 101.77 58.23C101.697 57.7729 101.724 57.3054 101.85 56.86C102.02 56.26 102.19 56.29 102.85 56.26C101.09 50.42 102.68 51.74 102.51 50.53C99.82 50.48 101.07 50.22 99.51 51.08C99.76 50.25 100.39 50.5 100.07 49.5C99.75 48.5 99.31 49.1 98.88 48.27L99.88 48.53L100.11 47.53C100.88 47.53 100.88 47.64 101.27 47.15C101.539 46.8925 101.754 46.5829 101.9 46.24C100.54 45.87 100.73 45.9 100.42 44.46C100.024 44.6071 99.6627 44.8364 99.3611 45.1329C99.0595 45.4293 98.824 45.7861 98.67 46.18L99.6 46.24C99.2 46.55 98.6 46.38 98.01 46.32L97.87 46.53C97.5481 46.8667 97.1645 47.1383 96.74 47.33C94.1 48.79 95.21 48.04 93.42 50.59C93.76 50.85 94.5 50.85 94.73 51.28L93.48 51.65V50.82C93.05 51.25 93.25 51.08 93.2 51.74C93.2 52.22 92.94 52.22 92.69 52.48C92.44 52.74 92.29 53.63 91.75 53.94C91.13 53.94 91.18 53.42 90.56 53.45C89.31 53.51 89.43 54.94 88.63 55.2C88.3327 55.2498 88.0312 55.2699 87.73 55.26C87.24 55.2 87.47 55.26 87.33 55L84.33 56.12C84.33 56.92 84.73 57.49 84.33 58.21C83.57 58.38 83.96 57.75 83.14 58.78L82.4 58.58L82.6 59.95C81.47 59.75 81.86 59.47 81.41 59.07C81.18 58.86 81.5 59.07 81.27 59.07C81.04 59.07 81.44 59.32 81.16 59.07C81.16 57.63 80.08 57.4 78.83 57.92L79.14 58.78C78.01 59.04 78.04 59.29 77.27 58.55C76.7622 58.7378 76.2301 58.8522 75.69 58.89V57.83C75.4488 57.9205 75.24 58.0806 75.09 58.29C75.46 58.44 75.6 58.41 75.52 58.92C75.26 58.81 75.12 58.64 74.84 58.52C74.78 59.27 74.78 59.24 74.3 59.52C73.9981 59.7373 73.6842 59.9376 73.36 60.12C73.67 59.67 74.1 59.12 74.47 58.72C74.7924 58.2541 75.161 57.822 75.57 57.43C75.57 56.6 75.46 56.26 74.86 55.86C74.7344 55.762 74.5872 55.6954 74.4306 55.6659C74.2741 55.6363 74.1127 55.6446 73.96 55.69C73.31 55.92 74.01 56.12 73.39 56.09L73.62 55.69L73.28 55.49C73.08 55.37 73.22 55.49 73.05 55.26C72.88 55.03 72.99 54.97 72.65 54.68C72.4087 54.8854 72.1907 55.1168 72 55.37C71.72 55.74 71.89 55.74 72 56.26C71.26 56.26 71.32 56.46 70.81 56.6C70.3741 56.6248 69.9401 56.6749 69.51 56.75C68.7683 56.8693 68.0752 57.195 67.51 57.69L67.57 58.92C67.09 58.81 66.46 58.66 65.95 58.58C65.6971 58.539 65.4377 58.5708 65.2022 58.6717C64.9667 58.7727 64.7647 58.9385 64.62 59.15C64.6102 59.1513 64.6001 59.1506 64.5905 59.1481C64.5809 59.1455 64.5719 59.1411 64.564 59.1351C64.5561 59.129 64.5495 59.1215 64.5445 59.1129C64.5396 59.1043 64.5363 59.0948 64.535 59.085C64.5337 59.0751 64.5343 59.0651 64.5369 59.0555C64.5394 59.0459 64.5439 59.0369 64.5499 59.029C64.5559 59.0211 64.5635 59.0145 64.5721 59.0095C64.5807 59.0045 64.5901 59.0013 64.6 59L64.46 58.92C64.21 58.77 64.55 58.8 64.32 58.86C64.43 59.2 64.18 59.09 64.66 59.18C64.8059 59.1882 64.952 59.1678 65.09 59.12C65.09 60.12 65.65 59.98 65.6 61.01L65.23 63.01C65.0057 62.227 65.0551 61.391 65.37 60.64C64.9382 60.0157 64.4119 59.4624 63.81 59L63.98 59.77H62.98L63.46 58.77C63.1527 58.9131 62.8769 59.1159 62.6485 59.3665C62.4202 59.6172 62.244 59.9107 62.13 60.23C61.96 61.43 61.73 61.32 61.33 62.18L61.56 62.32C61.56 62.32 61.73 62.4 61.76 62.43C61.8951 62.4783 62.0256 62.5386 62.15 62.61C62.2743 62.6736 62.3839 62.7625 62.4717 62.871C62.5595 62.9795 62.6237 63.1052 62.66 63.24C62.66 63.58 62.41 63.86 62.44 64.18C62.47 64.5 62.69 64.7 62.75 64.95C62.52 64.58 62.21 64.72 62.21 64.12C62.21 63.52 62.32 63.38 62.27 62.86L61.53 62.75C61.16 63.46 61.53 63.49 60.76 64.12C60.3602 64.4894 59.8584 64.7298 59.32 64.81C59.0988 64.7075 58.9011 64.5605 58.7393 64.3781C58.5776 64.1957 58.4552 63.9819 58.38 63.75C58.676 63.9332 58.9539 64.1442 59.21 64.38C59.8229 64.1621 60.356 63.7649 60.74 63.24C61.13 62.75 60.91 62.75 60.99 62.09C61.07 61.43 61.62 60.97 61.7 60.2C61.79 59.08 62.61 59.28 62.35 58.31C62.18 57.62 62.18 58.05 62.52 57.48C61.9716 57.5983 61.4807 57.902 61.13 58.34L59.83 59.28C59.63 60.28 59.77 59.83 59.26 60.4C59.35 61.06 59.57 61.83 59.12 62.23C58.78 61.83 58.44 60.66 58.12 60.09C57.8 59.52 57.64 59.54 57.41 59.23C57.18 58.92 57.21 58.51 56.93 58.23C56.42 59.14 57.81 59.86 55.93 60.23C56.0453 59.9858 56.1861 59.7545 56.35 59.54C55.7 59.48 55.7 59.74 55.08 59.4C54.7369 59.2248 54.3744 59.0906 54 59C54.17 58.72 54.54 58.63 54.77 58.35C54.03 58.26 53.38 58.12 52.67 57.97C51.96 57.82 51.36 58.09 50.54 57.97L50.77 56.97L51.68 57.2C51.96 56.54 51.93 56.14 51.42 55.91C50.77 56.29 50.03 57.43 49.42 57.72C49.33 56.72 49.42 56.72 48.23 56.72C48.0818 56.7005 47.9311 56.723 47.795 56.7849C47.6589 56.8467 47.5428 56.9455 47.46 57.07C47.29 57.27 47.18 57.47 46.95 57.58L46.58 55.87C46.07 56.18 46.07 56.61 45.85 57.18C45.6045 56.7975 45.5018 56.3407 45.56 55.89C45.56 55.41 45.9 55.24 46.21 55.01C47.07 54.41 46.78 54.01 47.21 53.01C47.2323 53.8556 47.3737 54.6938 47.63 55.5C47.6868 55.6771 47.7827 55.8392 47.9107 55.9743C48.0386 56.1093 48.1953 56.2138 48.3691 56.2801C48.5429 56.3464 48.7295 56.3727 48.9148 56.3571C49.1002 56.3415 49.2797 56.2844 49.44 56.19C50.24 55.68 49.87 53.24 49.64 52.41C49.47 51.75 49.64 51.78 49.64 51.21C49.16 50.84 48.2 50.21 47.64 50.87C47.3 51.27 47.53 51.47 46.93 51.72C46.33 51.97 46.36 51.84 45.93 52.21L44.23 53.5C42.64 54.64 43.66 54.82 42.95 55.16C42.04 55.45 41.02 54.85 40.09 54.87C39.9295 55.2953 39.9295 55.7646 40.09 56.19C39.09 55.59 39.38 54.93 38.02 55.82C37.25 56.33 37.68 56.25 37.02 55.99C36.7 56.33 36.28 56.71 36.02 56.99C35.57 57.59 35.94 57.91 36.02 58.57C36.1 59.23 35.48 59.31 35.17 59.65C34.9411 60.1594 34.7991 60.7036 34.75 61.26C34.27 61.17 34.15 60.91 33.98 60.54C33.6112 60.7375 33.306 61.0358 33.1 61.4C33.9 62.32 34.61 62.4 33.27 63.4L33.53 64.08C33.33 64.4 33.08 64.4 33.08 64.86C33.08 65.32 33.36 65.37 33.5 65.69C33.811 66.342 33.9651 67.0577 33.95 67.78C33.5848 68.0676 33.1968 68.3251 32.79 68.55C32.2903 68.4837 31.7981 68.3698 31.32 68.21L31.66 69.04C31.29 68.86 31.03 68.63 30.66 68.41L30.52 68.98C29.27 69.06 29.72 69.24 28.87 68.49L29 68.43Z" fill="#045195"/>
</g>
<defs>
<clipPath id="clip0">
<rect width="374.33" height="138.52" fill="white"/>
</clipPath>
</defs>
</svg>
