<svg xmlns="http://www.w3.org/2000/svg" viewBox="0 0 81.12 31.69"><defs><style>.cls-1{fill:#2b2a29;}.cls-1,.cls-2,.cls-3,.cls-4{fill-rule:evenodd;}.cls-2{fill:#ffed00;}.cls-3,.cls-5{fill:#e31e24;}.cls-4,.cls-6{fill:#065091;}</style></defs><title>Ресурс 4</title><g id="Слой_2" data-name="Слой 2"><g id="Слой_1-2" data-name="Слой 1"><g id="_1273624761856" data-name=" 1273624761856"><path class="cls-1" d="M7.14,18.12c.18.84.33,1.95.68,3.13,1,3.43,2.89,5.83,6.62,6.24a6.25,6.25,0,0,0,1.83-.09,1.42,1.42,0,0,1,1.42,2,1.66,1.66,0,0,1-1,.81,8.51,8.51,0,0,1-2.69.51c-5.15.27-9.06-2.75-11.9-6.8A15.36,15.36,0,0,1,.23,20.23a3.74,3.74,0,0,1,.06-2.74A2.7,2.7,0,0,0,1.8,20.84a4.23,4.23,0,0,0,5.13-2.21,5.49,5.49,0,0,0,.21-.51Z"/><path class="cls-2" d="M13.87,7.13c-.84.19-1.95.35-3.12.71-3.42,1-5.81,2.95-6.18,6.68a6.53,6.53,0,0,0,.1,1.83,1.41,1.41,0,0,1-1.93,1.43,1.61,1.61,0,0,1-.82-1,8.89,8.89,0,0,1-.54-2.68C1.07,9,4.05,5,8.08,2.17A14.87,14.87,0,0,1,11.7.24a3.76,3.76,0,0,1,2.74,0,2.69,2.69,0,0,0-3.33,1.54c-.72,1.54.15,4.13,2.25,5.11a5.38,5.38,0,0,0,.51.2Z"/><path class="cls-3" d="M25.58,13.64c-.29-.81-.6-1.9-1.11-3C23,7.37,20.8,5.25,17.05,5.36a6.39,6.39,0,0,0-1.8.34A1.41,1.41,0,0,1,13.58,4,1.65,1.65,0,0,1,14.44,3,8.9,8.9,0,0,1,17,2.15c5.06-1,9.35,1.48,12.72,5.1a15.41,15.41,0,0,1,2.39,3.34,3.79,3.79,0,0,1,.31,2.72,2.68,2.68,0,0,0-2-3.1,4.22,4.22,0,0,0-4.78,2.89,5.29,5.29,0,0,0-.13.54Z"/><path class="cls-4" d="M18.43,24.53c.84-.15,2-.28,3.15-.59C25,23,27.48,21.2,28,17.48a7.19,7.19,0,0,0,0-1.83,1.41,1.41,0,0,1,2-1.36,1.62,1.62,0,0,1,.78,1,8.35,8.35,0,0,1,.44,2.7c.13,5.15-3,9-7.12,11.71a15.24,15.24,0,0,1-3.69,1.8,3.78,3.78,0,0,1-2.73-.14A2.69,2.69,0,0,0,21,29.94a4.21,4.21,0,0,0-2.07-5.19,4.46,4.46,0,0,0-.5-.22Z"/><path class="cls-5" d="M9.86,10.25a.89.89,0,0,1,.23-.59.84.84,0,0,1,.66-.26h2a3,3,0,0,1,1.49.35,2.31,2.31,0,0,1,.92.94,3,3,0,0,1,0,2.62,2.11,2.11,0,0,1-.84.91,2.54,2.54,0,0,1-1.29.32H11.58v1.59a.86.86,0,0,1-.25.68.93.93,0,0,1-.64.23.81.81,0,0,1-.83-.93Zm1.72.69V13h1a1.08,1.08,0,0,0,.75-.28,1,1,0,0,0,.32-.74,1,1,0,0,0-.3-.76,1.13,1.13,0,0,0-.83-.29Z"/><path class="cls-6" d="M15.21,16.35a5.89,5.89,0,0,1,.14-.59,1,1,0,0,1,.22-.36,1,1,0,0,1,.85-.33.91.91,0,0,1,.82.38,4.8,4.8,0,0,1,.51,1.12l1,3h0l1-3.24a3.1,3.1,0,0,1,.5-.9.92.92,0,0,1,.77-.32,1.11,1.11,0,0,1,.77.28,1.37,1.37,0,0,1,.4.76l.91,5.21,0,.29a2.33,2.33,0,0,1,0,.33.79.79,0,0,1-.25.6.92.92,0,0,1-.63.23.81.81,0,0,1-.61-.24,1.13,1.13,0,0,1-.27-.65l-.56-3.61h0L19.65,22a1.08,1.08,0,0,1-.29.53.86.86,0,0,1-.6.21,1,1,0,0,1-.64-.17,1.2,1.2,0,0,1-.33-.57L16.6,18.27h0l-.49,3.35c-.11.77-.44,1.15-1,1.15a.79.79,0,0,1-.58-.22.88.88,0,0,1-.27-.56.76.76,0,0,0,0-.16c0-.09,0-.19,0-.29a2.54,2.54,0,0,1,0-.29Z"/><path class="cls-5" d="M37.63,12.81v-2h1.59a1,1,0,0,1,1.06,1,1,1,0,0,1-1.06,1ZM36.51,9.63a.13.13,0,0,0-.15.15v5.68a.13.13,0,0,0,.15.15h1a.13.13,0,0,0,.15-.15V14h1.59a2.2,2.2,0,1,0,0-4.39Zm9,1.11a1.79,1.79,0,0,1,1.85,1.89,1.86,1.86,0,1,1-3.72,0A1.8,1.8,0,0,1,45.47,10.74Zm-3.15,1.89a3.15,3.15,0,1,0,3.15-3.09A3.07,3.07,0,0,0,42.32,12.63Zm7.54-3a.13.13,0,0,0-.15.15v5.68a.13.13,0,0,0,.15.15h4.53a.14.14,0,0,0,.16-.15v-.9a.15.15,0,0,0-.16-.16H51V9.78a.14.14,0,0,0-.15-.15Zm8.41,4.46,2.46-4.33c0-.08,0-.13-.08-.13h-1.2a.15.15,0,0,0-.15.1l-1.6,3.09h-.08l-1.68-3.1a.16.16,0,0,0-.14-.09H54.59a.08.08,0,0,0-.08.12L57,14.09v1.37a.14.14,0,0,0,.16.15h1a.14.14,0,0,0,.16-.15ZM67,9.63a.19.19,0,0,0-.19.12l-.84,2L65.1,14h0l-.88-2.22-.87-2a.19.19,0,0,0-.18-.12H61.84a.14.14,0,0,0-.16.15v5.68a.14.14,0,0,0,.16.15h.92a.13.13,0,0,0,.15-.15V13.28l0-1.65h.06l.9,2.27.65,1.61a.17.17,0,0,0,.18.11h.74a.18.18,0,0,0,.18-.11l.68-1.61.88-2.26h.06l0,1.64v2.18a.13.13,0,0,0,.15.15h1a.13.13,0,0,0,.15-.15V9.77a.13.13,0,0,0-.15-.15Zm2.89,0a.16.16,0,0,0-.15.15v5.68a.13.13,0,0,0,.15.15h4.54a.14.14,0,0,0,.15-.15v-.89a.14.14,0,0,0-.15-.15H71v-1.3h2.92a.14.14,0,0,0,.16-.15v-.88a.15.15,0,0,0-.16-.16H71V10.82h3.33a.14.14,0,0,0,.15-.16V9.78a.13.13,0,0,0-.15-.15Zm6.05,0a.13.13,0,0,0-.15.15v5.68a.13.13,0,0,0,.15.15h1a.14.14,0,0,0,.15-.15V14h1.71l.74,1.49a.2.2,0,0,0,.2.11h1.07a.1.1,0,0,0,.1-.15l-.94-1.81a2.14,2.14,0,0,0,1-1.84,2.23,2.23,0,0,0-2.35-2.18Zm1.12,3.18v-2h1.58a1,1,0,0,1,1.08,1,1,1,0,0,1-1.08,1Z"/><path class="cls-6" d="M39.77,18.87a.16.16,0,0,0-.15.09L39,20.45l-.52,1.27h0l-.47-1.08L37.17,19a.14.14,0,0,0-.12-.09h-.63c-.06,0-.1,0-.1.09V22.5c0,.06,0,.09.1.09h.43s.08,0,.08-.09V20.86l0-1.08h0l.58,1.38.61,1.34a.14.14,0,0,0,.14.09h.27a.16.16,0,0,0,.14-.09l.61-1.34.56-1.38h0l0,1.08V22.5c0,.06,0,.09.1.09h.43c.07,0,.09,0,.09-.09V19c0-.06,0-.09-.09-.09Zm7.37.52a1.34,1.34,0,1,1-1.29,1.34A1.26,1.26,0,0,1,47.14,19.39Zm-1.92,1.34a1.92,1.92,0,1,0,1.92-1.92A1.88,1.88,0,0,0,45.22,20.73Zm11.9,1.86a.08.08,0,0,0,.09-.09V19a.08.08,0,0,0-.09-.09h-.43c-.07,0-.1,0-.1.09V20.6l0,1.1h0l-.82-1.13-1.31-1.64a.17.17,0,0,0-.15-.07h-.41a.08.08,0,0,0-.09.09V22.5a.08.08,0,0,0,.09.09h.43c.06,0,.1,0,.1-.09V20.85l0-1.11h0L55.34,21l1.22,1.54a.14.14,0,0,0,.12.06Zm4.8-3.72a.08.08,0,0,0-.09.09v.39c0,.06,0,.1.09.1h1.27V22.5a.08.08,0,0,0,.09.09h.43a.09.09,0,0,0,.1-.09V19.45h1.26a.09.09,0,0,0,.1-.1V19c0-.06,0-.09-.1-.09Zm9,0s-.07,0-.08.05L69.23,22.5s0,.09,0,.09h.52a.15.15,0,0,0,.11-.07l.29-.69h2l.27.67a.13.13,0,0,0,.14.09h.46c.06,0,.1,0,.08-.09l-1.56-3.59s0,0-.07,0Zm.29.56h.09L72,21.26H70.44Zm9.4,1.11c-.06,0-.1,0-.1.09v1a1.32,1.32,0,0,1-1,.41,1.34,1.34,0,0,1,0-2.67,1.38,1.38,0,0,1,1.12.59.07.07,0,0,0,.11,0l.35-.26s0-.07,0-.12a1.91,1.91,0,0,0-1.59-.8,1.92,1.92,0,1,0,0,3.84,1.56,1.56,0,0,0,1-.37l.06.22a.1.1,0,0,0,.11.09H81c.07,0,.09,0,.09-.1V20.63c0-.06,0-.09-.09-.09Z"/></g></g></g></svg>