<?xml version="1.0"?>
<svg xmlns="http://www.w3.org/2000/svg" xmlns:xlink="http://www.w3.org/1999/xlink" version="1.1" id="Capa_1" x="0px" y="0px" viewBox="0 0 512 512" style="enable-background:new 0 0 512 512;" xml:space="preserve" width="512px" height="512px"><g><g>
	<g>
		<path d="M277.131,280.54h-42.262c-2.836,0-5.143,2.307-5.143,5.143v42.452c0,2.836,2.307,5.143,5.143,5.143h42.262    c2.836,0,5.143-2.307,5.143-5.143v-42.452C282.274,282.847,279.967,280.54,277.131,280.54z" data-original="#000000" class="active-path" data-old_color="#000000" fill="#FFFFFF"/>
	</g>
</g><g>
	<g>
		<path d="M433.013,106.981h-87.165V70.508c0-19.059-15.654-34.564-34.896-34.564H201.048c-19.242,0-34.896,15.505-34.896,34.564    v36.474H78.987C35.434,106.981,0,142.415,0,185.969v47.341c2.932,14.277,13.24,26.028,27.505,30.593l172.13,42.067v-20.286    c0-19.428,15.806-35.234,35.234-35.234h42.262c19.428,0,35.234,15.806,35.234,35.234v20.286l172.13-42.067    c14.265-4.565,24.573-16.316,27.505-30.593v-47.341C512,142.415,476.566,106.981,433.013,106.981z M315.756,106.982H196.244    V70.508c0-2.55,2.065-4.473,4.804-4.473h109.904c2.739,0,4.804,1.923,4.804,4.473V106.982z" data-original="#000000" class="active-path" data-old_color="#000000" fill="#FFFFFF"/>
	</g>
</g><g>
	<g>
		<path d="M492.981,292.778c-0.288,0.089-0.578,0.169-0.87,0.24L311.166,337.24c-4.024,15.028-17.755,26.129-34.035,26.129h-42.262    c-16.28,0-30.011-11.101-34.035-26.129L19.889,293.018c-0.292-0.072-0.582-0.152-0.87-0.24C12.11,290.643,5.734,287.534,0,283.643    v127.893c0,35.576,28.943,64.52,64.52,64.52h382.96c35.576,0,64.52-28.943,64.52-64.52V283.643    C506.266,287.534,499.89,290.643,492.981,292.778z" data-original="#000000" class="active-path" data-old_color="#000000" fill="#FFFFFF"/>
	</g>
</g></g> </svg>
