<svg width="24" height="32" viewBox="0 0 24 32" fill="none" xmlns="http://www.w3.org/2000/svg">
<path d="M12 0C5.383 0 0 5.394 0 12.022C0 21.949 11.201 31.481 11.678 31.882C11.7671 31.9579 11.8802 32 11.9973 32.0007C12.1144 32.0015 12.2279 31.9608 12.318 31.886C12.795 31.492 24 22.124 24 12.022C24 5.394 18.617 0 12 0ZM12.002 30.838C10.161 29.193 1 20.579 1 12.022C1 5.944 5.935 1 12 1C18.065 1 23 5.944 23 12.022C23 20.724 13.848 29.215 12.002 30.838Z" fill="black" fill-opacity="0.8"/>
<path d="M12 6C8.691 6 6 8.691 6 12C6 15.309 8.691 18 12 18C15.309 18 18 15.309 18 12C18 8.691 15.309 6 12 6ZM12 17C9.243 17 7 14.757 7 12C7 9.243 9.243 7 12 7C14.757 7 17 9.243 17 12C17 14.757 14.757 17 12 17Z" fill="black" fill-opacity="0.8"/>
</svg>
