<svg width="32" height="36" viewBox="0 0 32 36" fill="none" xmlns="http://www.w3.org/2000/svg">
<path d="M31.4721 9.26111C31.4693 9.25619 31.468 9.25077 31.4652 9.24585C31.4639 9.24339 31.4619 9.24142 31.4602 9.23896C31.2849 8.93946 31.0335 8.69166 30.7315 8.5207L16.9502 0.731337C16.6544 0.565256 16.3208 0.478027 15.9815 0.478027C15.6422 0.478027 15.3087 0.565256 15.0128 0.731337L1.23157 8.5207C0.927309 8.69281 0.6744 8.94289 0.498867 9.2452C0.498047 9.24684 0.496571 9.24815 0.495586 9.24979C0.493125 9.25438 0.492141 9.2593 0.48968 9.26373C0.320977 9.55955 0.231994 9.89411 0.231445 10.2347V25.7655C0.231788 26.1141 0.324526 26.4563 0.500213 26.7574C0.675899 27.0585 0.928255 27.3076 1.23157 27.4794L15.0128 35.2688C15.2955 35.4272 15.6129 35.5132 15.9368 35.5193C15.9496 35.5203 15.9618 35.5234 15.9747 35.5236H15.9816C15.9951 35.5236 16.0079 35.5205 16.021 35.5196C16.3467 35.5144 16.6661 35.4282 16.9502 35.2688L30.7315 27.4794C31.0348 27.3076 31.2871 27.0585 31.4628 26.7574C31.6384 26.4563 31.7311 26.114 31.7314 25.7655V10.2347C31.731 9.89312 31.6416 9.55759 31.4721 9.26111ZM15.6587 1.87387C15.7573 1.81852 15.8685 1.78945 15.9816 1.78945C16.0947 1.78945 16.2059 1.81852 16.3045 1.87387L29.7474 9.47209L24.039 12.7363L10.1605 4.98138L15.6587 1.87387ZM16.1521 17.2462L2.22727 9.46553L8.8229 5.73754L22.7092 13.4967L16.1521 17.2462ZM1.87748 26.3369C1.77634 26.2796 1.69218 26.1966 1.63359 26.0962C1.57499 25.9958 1.54406 25.8817 1.54395 25.7655V10.5872L15.4953 18.383L15.3347 33.9433L1.87748 26.3369ZM30.0857 26.3369L16.6474 33.9323L16.8082 18.383L23.3864 14.6214V21.3651C23.3864 21.5392 23.4555 21.7061 23.5786 21.8292C23.7017 21.9523 23.8686 22.0214 24.0427 22.0214C24.2167 22.0214 24.3836 21.9523 24.5067 21.8292C24.6298 21.7061 24.6989 21.5392 24.6989 21.3651V13.8708L30.4189 10.6V25.7655C30.4189 25.8816 30.388 25.9957 30.3295 26.096C30.271 26.1964 30.1869 26.2794 30.0859 26.3367L30.0857 26.3369Z" fill="black" fill-opacity="0.6"/>
</svg>
