<svg width="30" height="37" viewBox="0 0 30 37" fill="none" xmlns="http://www.w3.org/2000/svg">
<path d="M29.5175 13.241C26.5075 9.97373 24.8388 5.69244 24.8439 1.25C24.8439 1.07595 24.7747 0.909032 24.6517 0.785961C24.5286 0.662891 24.3617 0.59375 24.1876 0.59375H5.81263C5.63859 0.59375 5.47167 0.662891 5.3486 0.785961C5.22552 0.909032 5.15638 1.07595 5.15638 1.25C5.16143 5.69243 3.49274 9.97373 0.482736 13.241C0.384299 13.3481 0.324214 13.4848 0.31192 13.6297C0.299626 13.7746 0.335819 13.9195 0.414814 14.0416L14.4492 35.7315C14.4505 35.7336 14.4522 35.7354 14.4535 35.7374C14.4569 35.7427 14.461 35.7473 14.4645 35.7522C14.4833 35.7788 14.5041 35.8041 14.5267 35.8276C14.5322 35.8334 14.5375 35.8393 14.5432 35.8449C14.5693 35.8704 14.5975 35.8937 14.6275 35.9146C14.6338 35.9187 14.6403 35.9223 14.6466 35.9264C14.6734 35.9436 14.7015 35.9589 14.7306 35.972C14.7376 35.9753 14.7444 35.9789 14.7516 35.9819C14.7856 35.9956 14.8207 36.0065 14.8566 36.0144C14.8653 36.0163 14.8741 36.0178 14.883 36.0194C14.9603 36.0351 15.04 36.0351 15.1173 36.0194C15.1261 36.0178 15.135 36.0163 15.1437 36.0145C15.1795 36.0065 15.2147 35.9956 15.2487 35.9817C15.2559 35.9789 15.2626 35.9751 15.2699 35.9719C15.2989 35.9587 15.3269 35.9436 15.3537 35.9264C15.3599 35.9223 15.3665 35.9187 15.3727 35.9146C15.4027 35.8937 15.4309 35.8704 15.457 35.8449C15.4628 35.8393 15.468 35.8334 15.4735 35.8276C15.4961 35.8041 15.5169 35.7789 15.5358 35.7522C15.5392 35.7473 15.5433 35.7427 15.5468 35.7374C15.5481 35.7354 15.5497 35.7336 15.5511 35.7315L29.5855 14.0418C29.6645 13.9197 29.7007 13.7747 29.6884 13.6298C29.6761 13.4848 29.616 13.3481 29.5175 13.241ZM15.0001 18.9688C14.3512 18.9688 13.7168 18.7763 13.1772 18.4158C12.6376 18.0552 12.217 17.5428 11.9687 16.9432C11.7203 16.3436 11.6553 15.6839 11.7819 15.0474C11.9085 14.4109 12.221 13.8262 12.6799 13.3673C13.1388 12.9084 13.7235 12.5959 14.36 12.4693C14.9965 12.3427 15.6562 12.4077 16.2558 12.656C16.8554 12.9044 17.3678 13.3249 17.7284 13.8645C18.0889 14.4041 18.2814 15.0385 18.2814 15.6875C18.2804 16.5574 17.9344 17.3915 17.3193 18.0066C16.7041 18.6218 15.8701 18.9678 15.0001 18.9688ZM15.6564 33.1528V20.2337C16.8059 20.0678 17.8498 19.4726 18.5782 18.568C19.3066 17.6634 19.6653 16.5165 19.5821 15.3581C19.4989 14.1997 18.9801 13.1157 18.1299 12.3245C17.2798 11.5332 16.1615 11.0933 15.0001 11.0933C13.8387 11.0933 12.7205 11.5332 11.8703 12.3245C11.0202 13.1157 10.5013 14.1997 10.4182 15.3581C10.335 16.5165 10.6937 17.6634 11.4221 18.568C12.1504 19.4726 13.1944 20.0678 14.3439 20.2337V33.1528L1.789 13.7496C4.66308 10.4575 6.31225 6.27398 6.45773 1.90625H23.5425C23.688 6.27398 25.3372 10.4575 28.2113 13.7496L15.6564 33.1528Z" fill="black" fill-opacity="0.6"/>
</svg>
