<svg width="31" height="29" viewBox="0 0 31 29" fill="none" xmlns="http://www.w3.org/2000/svg">
<path d="M28.3063 17.41L30.0448 7.84752C30.0866 7.61786 30.0774 7.38184 30.0179 7.15614C29.9583 6.93044 29.85 6.72057 29.7004 6.54136C29.5509 6.36214 29.3638 6.21797 29.1524 6.11903C28.941 6.02008 28.7104 5.96878 28.477 5.96875H5.75583L5.02802 1.96498C4.96141 1.59765 4.76789 1.26537 4.48126 1.02618C4.19463 0.786977 3.83309 0.656049 3.45977 0.65625H1.0625C0.921604 0.65625 0.786478 0.712221 0.68685 0.81185C0.587221 0.911479 0.53125 1.0466 0.53125 1.1875C0.53125 1.3284 0.587221 1.46352 0.68685 1.56315C0.786478 1.66278 0.921604 1.71875 1.0625 1.71875H3.45977C3.5842 1.71868 3.7047 1.76231 3.80024 1.84203C3.89578 1.92174 3.96029 2.03248 3.98252 2.15491L7.52888 21.66C7.57788 21.93 7.69597 22.1827 7.87167 22.3935C7.31717 22.7402 6.8827 23.249 6.62714 23.8509C6.37159 24.4529 6.30732 25.1189 6.44305 25.7586C6.57878 26.3983 6.90794 26.9808 7.3859 27.4271C7.86386 27.8734 8.46751 28.1619 9.115 28.2536C9.76249 28.3452 10.4225 28.2355 11.0055 27.9394C11.5886 27.6432 12.0665 27.175 12.3744 26.5981C12.6823 26.0211 12.8054 25.3635 12.7269 24.7143C12.6484 24.0651 12.3722 23.4557 11.9357 22.9688H23.1268C22.6406 23.5126 22.3558 24.2068 22.3199 24.9354C22.284 25.664 22.4993 26.3828 22.9298 26.9718C23.3602 27.5608 23.9797 27.9842 24.6848 28.1712C25.3899 28.3583 26.1378 28.2978 26.8036 27.9997C27.4694 27.7016 28.0127 27.1841 28.3428 26.5335C28.6729 25.883 28.7697 25.1389 28.6171 24.4256C28.4645 23.7122 28.0717 23.0729 27.5044 22.6143C26.937 22.1558 26.2295 21.9058 25.5 21.9062H9.09699C8.97259 21.9063 8.85211 21.8626 8.7566 21.7829C8.66109 21.7032 8.59659 21.5925 8.57438 21.4701L8.07407 18.7188H26.7382C27.1115 18.7189 27.473 18.588 27.7596 18.3488C28.0462 18.1096 28.2397 17.7773 28.3063 17.41ZM11.6875 25.0938C11.6875 25.514 11.5629 25.9249 11.3294 26.2743C11.0959 26.6238 10.764 26.8962 10.3757 27.057C9.98741 27.2178 9.56014 27.2599 9.14793 27.1779C8.73572 27.0959 8.35709 26.8935 8.0599 26.5964C7.76271 26.2992 7.56033 25.9205 7.47833 25.5083C7.39634 25.0961 7.43842 24.6688 7.59926 24.2805C7.76009 23.8923 8.03246 23.5604 8.38191 23.3269C8.73137 23.0934 9.14222 22.9688 9.5625 22.9688C10.1259 22.9694 10.666 23.1935 11.0644 23.5918C11.4628 23.9902 11.6869 24.5304 11.6875 25.0938ZM27.625 25.0938C27.625 25.514 27.5004 25.9249 27.2669 26.2743C27.0334 26.6238 26.7015 26.8962 26.3132 27.057C25.9249 27.2178 25.4976 27.2599 25.0854 27.1779C24.6732 27.0959 24.2946 26.8935 23.9974 26.5964C23.7002 26.2992 23.4978 25.9205 23.4158 25.5083C23.3338 25.0961 23.3759 24.6688 23.5368 24.2805C23.6976 23.8923 23.97 23.5604 24.3194 23.3269C24.6689 23.0934 25.0797 22.9688 25.5 22.9688C26.0634 22.9694 26.6035 23.1935 27.0019 23.5918C27.4003 23.9902 27.6244 24.5304 27.625 25.0938ZM5.94907 7.03125H28.4769C28.5547 7.03124 28.6316 7.04833 28.7021 7.0813C28.7726 7.11428 28.8349 7.16235 28.8848 7.2221C28.9347 7.28185 28.9708 7.35182 28.9906 7.42708C29.0105 7.50233 29.0135 7.58103 28.9996 7.65759L27.261 17.2201C27.2387 17.3425 27.1742 17.4533 27.0787 17.533C26.9831 17.6127 26.8626 17.6563 26.7382 17.6562H7.88083L5.94907 7.03125Z" fill="black" fill-opacity="0.8"/>
</svg>
