<svg width="14" height="18" viewBox="0 0 14 18" fill="none" xmlns="http://www.w3.org/2000/svg">
<path d="M10.5 5.60563V3.94366C10.5 3.42577 10.4095 2.91295 10.2336 2.43449C10.0577 1.95602 9.79988 1.52127 9.47487 1.15507C9.14987 0.788869 8.76403 0.498381 8.33939 0.300193C7.91475 0.102006 7.45963 0 7 0C6.54037 0 6.08525 0.102006 5.66061 0.300193C5.23597 0.498381 4.85013 0.788869 4.52513 1.15507C4.20012 1.52127 3.94231 1.95602 3.76642 2.43449C3.59053 2.91295 3.5 3.42577 3.5 3.94366V7.88732C3.5 8.03674 3.55268 8.18004 3.64645 8.28569C3.74021 8.39135 3.86739 8.4507 4 8.4507C4.13261 8.4507 4.25979 8.39135 4.35355 8.28569C4.44732 8.18004 4.5 8.03674 4.5 7.88732V6.73239H8.5V5.60563H4.5V3.94366C4.5 3.19657 4.76339 2.48008 5.23223 1.95181C5.70107 1.42354 6.33696 1.12676 7 1.12676C7.66304 1.12676 8.29893 1.42354 8.76777 1.95181C9.23661 2.48008 9.5 3.19657 9.5 3.94366V7.85915C9.5 8.00857 9.55268 8.15187 9.64645 8.25753C9.74021 8.36318 9.86739 8.42253 10 8.42253C10.1326 8.42253 10.2598 8.36318 10.3536 8.25753C10.4473 8.15187 10.5 8.00857 10.5 7.85915V6.73239H13V16.8732H1V6.73239H2.5V5.60563H0V16.9239C0 17.2093 0.100616 17.483 0.279713 17.6848C0.45881 17.8866 0.701718 18 0.955 18H13.045C13.2983 18 13.5412 17.8866 13.7203 17.6848C13.8994 17.483 14 17.2093 14 16.9239V5.60563H10.5Z" fill="#D9A34C"/>
</svg>
