<svg width="19" height="19" viewBox="0 0 19 19" fill="none" xmlns="http://www.w3.org/2000/svg">
<path d="M7.09277 14.4975C3.21855 14.4975 0.0976562 11.4239 0.0976562 7.60835C0.0976562 3.79284 3.21855 0.719238 7.09277 0.719238C10.967 0.719238 14.0879 3.79284 14.0879 7.60835C14.0879 11.4239 10.967 14.4975 7.09277 14.4975ZM7.09277 1.7791C3.81045 1.7791 1.17383 4.37577 1.17383 7.60835C1.17383 10.8409 3.81045 13.4376 7.09277 13.4376C10.3751 13.4376 13.0117 10.8409 13.0117 7.60835C13.0117 4.37577 10.3751 1.7791 7.09277 1.7791Z" fill="#D9A34C"/>
<path d="M12.9055 12.5288L17.6715 17.2227C17.8992 17.4469 17.8992 17.814 17.6715 18.0382C17.4487 18.2576 17.0911 18.2576 16.8683 18.0382L12.0898 13.3321L12.9055 12.5288Z" fill="#D9A34C"/>
</svg>
